{"glyphs":{"0":{"ha":916,"x_min":69,"x_max":847,"o":"m 355 490 q 367 614 355 564 q 401 692 378 665 q 458 718 425 718 q 514 692 491 718 q 549 614 537 665 q 562 490 562 563 l 562 439 q 549 314 562 366 q 514 234 537 262 q 458 207 491 207 q 402 234 425 207 q 367 313 379 261 q 355 439 355 365 l 355 490 m 69 438 q 116 197 69 299 q 250 40 163 95 q 454 -16 336 -16 q 615 17 543 -16 q 739 109 687 49 q 819 252 791 169 q 847 438 847 336 l 847 490 q 801 731 847 630 q 668 886 754 832 q 461 941 581 941 q 254 885 342 941 q 117 728 165 829 q 69 490 69 627 l 69 438 z "},"1":{"ha":707,"x_min":65,"x_max":565,"o":"m 565 0 l 565 926 l 283 926 q 174 852 229 888 q 65 778 119 815 l 65 536 q 133 583 99 559 q 201 630 167 606 q 269 676 235 653 l 283 676 l 283 0 l 565 0 z "},"2":{"ha":865,"x_min":70,"x_max":800,"o":"m 335 617 q 335 626 335 621 q 334 637 334 631 q 345 680 334 660 q 375 712 355 700 q 420 724 394 724 q 466 712 446 724 q 498 681 486 700 q 509 642 509 663 q 494 583 509 610 q 457 531 479 555 q 410 484 434 507 l 88 174 l 88 0 l 800 0 l 800 220 l 468 220 l 468 231 l 617 377 q 691 452 652 412 q 759 546 730 492 q 787 672 787 599 q 742 809 787 748 q 617 905 698 869 q 426 941 536 941 q 263 913 331 941 q 153 841 196 886 q 90 742 111 795 q 70 634 70 688 l 70 617 l 335 617 z "},"3":{"ha":888,"x_min":58,"x_max":823,"o":"m 327 375 l 433 375 q 495 362 471 375 q 532 328 520 349 q 545 283 545 307 q 530 237 545 257 q 491 205 516 216 q 432 194 465 194 q 372 205 399 194 q 329 238 345 217 q 313 286 313 258 l 58 286 q 99 138 58 207 q 224 27 140 69 q 435 -16 308 -16 q 575 0 507 -16 q 701 49 644 16 q 790 135 757 82 q 823 263 823 189 q 794 381 823 334 q 721 452 766 428 q 629 480 676 477 l 629 494 q 701 520 661 499 q 771 584 741 542 q 800 692 800 626 q 757 822 800 766 q 634 909 714 878 q 444 941 555 941 q 288 921 357 941 q 170 862 219 901 q 95 768 121 824 q 65 642 68 713 l 325 642 q 332 676 325 659 q 353 707 340 693 q 386 728 367 720 q 430 736 406 736 q 499 714 469 736 q 528 656 528 692 q 516 616 528 634 q 482 587 505 598 q 429 576 460 576 l 327 576 l 327 375 z "},"4":{"ha":921,"x_min":58,"x_max":867,"o":"m 364 926 q 208 646 286 787 q 58 359 130 505 l 58 139 l 502 139 l 502 0 l 766 0 l 766 139 l 867 139 l 867 355 l 766 355 l 766 926 l 364 926 m 296 355 l 296 358 q 390 550 342 460 q 489 732 437 640 l 502 732 l 502 355 l 296 355 z "},"5":{"ha":899,"x_min":81,"x_max":838,"o":"m 81 274 q 107 162 81 214 q 180 69 132 109 q 297 7 229 29 q 452 -16 366 -16 q 654 25 567 -16 q 789 142 741 66 q 838 323 838 218 q 795 493 838 425 q 685 595 753 561 q 538 629 616 629 q 446 616 484 629 q 384 584 407 602 q 351 550 360 565 l 338 550 l 351 709 l 777 709 l 777 926 l 133 926 l 99 372 l 353 372 q 371 396 358 382 q 404 420 383 410 q 454 430 424 430 q 515 415 488 430 q 556 373 541 399 q 570 313 570 347 q 555 254 570 280 q 514 212 541 227 q 450 197 487 197 q 406 203 427 197 q 371 220 386 210 q 346 245 355 231 q 334 274 336 259 l 81 274 z "},"6":{"ha":922,"x_min":69,"x_max":853,"o":"m 834 672 q 811 763 832 716 q 746 851 789 810 q 637 916 703 891 q 479 941 570 941 q 336 921 401 941 q 222 861 272 901 q 138 763 172 821 q 87 629 104 705 q 69 460 69 553 q 88 287 69 363 q 140 155 106 212 q 227 59 176 97 q 340 3 277 21 q 475 -16 403 -16 q 670 24 585 -16 q 804 138 755 64 q 853 318 853 213 q 811 484 853 418 q 703 582 770 549 q 560 614 636 614 q 467 600 507 614 q 400 559 427 585 q 357 503 373 534 q 349 503 353 503 q 340 503 345 503 q 340 503 340 503 q 340 503 340 503 q 339 557 336 527 q 352 617 342 587 q 379 672 362 647 q 421 713 397 698 q 479 728 446 728 q 518 722 500 728 q 551 703 536 715 q 573 672 565 690 l 834 672 m 368 307 q 380 366 368 340 q 417 407 393 392 q 475 421 441 421 q 532 407 508 421 q 569 367 556 392 q 583 308 583 341 q 569 249 583 274 q 532 209 556 223 q 475 195 508 195 q 417 210 441 195 q 380 249 393 224 q 368 307 368 274 z "},"7":{"ha":831,"x_min":61,"x_max":777,"o":"m 61 926 l 61 706 l 494 706 l 494 696 l 108 0 l 407 0 l 777 703 l 777 926 l 61 926 z "},"8":{"ha":944,"x_min":64,"x_max":880,"o":"m 472 169 q 410 183 438 169 q 366 222 382 197 q 350 282 350 248 q 366 342 350 317 q 410 382 382 368 q 472 396 438 396 q 534 382 507 396 q 578 342 562 368 q 595 282 595 317 q 578 222 595 248 q 534 183 562 197 q 472 169 507 169 m 472 564 q 421 576 444 564 q 386 610 399 589 q 372 660 372 632 q 386 710 372 688 q 421 743 399 731 q 472 755 444 755 q 523 743 500 755 q 559 710 546 731 q 572 660 572 688 q 559 610 572 632 q 523 576 546 589 q 472 564 500 564 m 472 -16 q 693 19 602 -16 q 832 116 784 54 q 880 258 880 178 q 861 354 880 314 q 812 421 843 395 q 746 463 782 448 q 674 484 710 478 l 674 494 q 763 535 726 509 q 822 601 801 561 q 842 699 842 642 q 799 823 842 768 q 672 909 755 878 q 472 941 589 941 q 272 909 355 941 q 145 823 189 878 q 102 699 102 768 q 122 601 102 642 q 181 535 143 561 q 270 494 219 509 l 270 484 q 198 463 235 478 q 132 421 162 448 q 83 354 101 395 q 64 258 64 314 q 112 116 64 178 q 251 19 160 54 q 472 -16 342 -16 z "},"9":{"ha":922,"x_min":69,"x_max":853,"o":"m 88 252 q 112 161 90 208 q 176 74 133 114 q 286 9 219 34 q 444 -16 352 -16 q 665 40 574 -16 q 805 203 757 96 q 853 465 853 310 q 823 679 853 589 q 739 827 793 769 q 611 913 685 885 q 448 941 536 941 q 252 901 338 941 q 118 787 167 861 q 69 610 69 713 q 115 444 69 509 q 230 347 160 378 q 372 316 299 316 q 469 331 428 316 q 537 370 511 346 q 572 420 563 394 l 588 420 q 582 330 590 371 q 554 258 573 289 q 509 211 536 228 q 446 194 481 194 q 400 202 422 194 q 365 223 379 210 q 348 252 351 236 l 88 252 m 553 623 q 541 564 553 590 q 504 524 528 538 q 446 509 479 509 q 389 524 413 509 q 352 564 365 538 q 338 623 338 589 q 352 682 338 656 q 389 721 365 707 q 446 735 414 735 q 504 721 479 735 q 541 682 528 707 q 553 623 553 656 z "}," ":{"ha":300,"x_min":0,"x_max":0,"o":""},"A":{"ha":952,"x_min":16,"x_max":936,"o":"m 298 0 l 339 175 l 592 175 l 632 0 l 936 0 l 658 926 l 297 926 l 16 0 l 298 0 m 475 690 l 547 375 l 386 375 l 460 690 l 475 690 z "},"À":{"ha":952,"x_min":16,"x_max":936,"o":"m 298 0 l 339 175 l 592 175 l 632 0 l 936 0 l 658 926 l 297 926 l 16 0 l 298 0 m 475 690 l 547 375 l 386 375 l 460 690 l 475 690 m 576 1013 l 418 1228 l 201 1228 l 395 1013 l 576 1013 z "},"Á":{"ha":952,"x_min":16,"x_max":936,"o":"m 298 0 l 339 175 l 592 175 l 632 0 l 936 0 l 658 926 l 297 926 l 16 0 l 298 0 m 475 690 l 547 375 l 386 375 l 460 690 l 475 690 m 376 1013 l 557 1013 l 751 1228 l 534 1228 l 376 1013 z "},"Ä":{"ha":952,"x_min":16,"x_max":936,"o":"m 298 0 l 339 175 l 592 175 l 632 0 l 936 0 l 658 926 l 297 926 l 16 0 l 298 0 m 475 690 l 547 375 l 386 375 l 460 690 l 475 690 m 623 981 q 695 1006 669 981 q 722 1074 722 1032 q 695 1141 722 1115 q 623 1166 669 1166 q 550 1141 576 1166 q 524 1074 524 1115 q 550 1006 524 1032 q 623 981 576 981 m 330 981 q 402 1006 376 981 q 429 1074 429 1032 q 402 1141 429 1115 q 330 1166 376 1166 q 257 1141 283 1166 q 231 1074 231 1115 q 257 1006 231 1032 q 330 981 283 981 z "},"Ǟ":{"ha":952,"x_min":16,"x_max":936,"o":"m 298 0 l 339 175 l 592 175 l 632 0 l 936 0 l 658 926 l 297 926 l 16 0 l 298 0 m 475 690 l 547 375 l 386 375 l 460 690 l 475 690 z "},"Å":{"ha":952,"x_min":16,"x_max":936,"o":"m 298 0 l 339 175 l 592 175 l 632 0 l 936 0 l 658 926 l 297 926 l 16 0 l 298 0 m 475 690 l 547 375 l 386 375 l 460 690 l 475 690 z "},"Ǻ":{"ha":952,"x_min":16,"x_max":936,"o":"m 298 0 l 339 175 l 592 175 l 632 0 l 936 0 l 658 926 l 297 926 l 16 0 l 298 0 m 475 690 l 547 375 l 386 375 l 460 690 l 475 690 m 363 1223 l 589 1223 l 648 1316 l 403 1316 l 363 1223 m 476 947 q 572 983 534 947 q 610 1076 610 1019 q 572 1167 610 1132 q 476 1202 534 1202 q 380 1167 418 1202 q 341 1076 341 1132 q 380 983 341 1019 q 476 947 418 947 m 434 1074 q 446 1103 434 1092 q 475 1115 458 1115 q 505 1103 493 1115 q 517 1074 517 1092 q 505 1046 517 1057 q 475 1034 493 1034 q 446 1046 458 1034 q 434 1074 434 1057 z "},"Ã":{"ha":952,"x_min":16,"x_max":936,"o":"m 298 0 l 339 175 l 592 175 l 632 0 l 936 0 l 658 926 l 297 926 l 16 0 l 298 0 m 475 690 l 547 375 l 386 375 l 460 690 l 475 690 m 572 987 q 655 1008 619 987 q 710 1065 690 1028 q 730 1154 730 1103 l 614 1154 q 604 1112 614 1128 q 572 1096 594 1096 q 536 1106 553 1096 q 500 1130 519 1117 q 456 1154 481 1143 q 395 1164 431 1164 q 306 1139 340 1164 q 257 1075 273 1113 q 242 998 242 1036 l 359 998 q 372 1039 360 1022 q 406 1056 385 1056 q 439 1045 425 1056 q 472 1022 454 1035 q 513 998 489 1008 q 572 987 536 987 z "},"Ằ":{"ha":952,"x_min":16,"x_max":936,"o":"m 298 0 l 339 175 l 592 175 l 632 0 l 936 0 l 658 926 l 297 926 l 16 0 l 298 0 m 475 690 l 547 375 l 386 375 l 460 690 l 475 690 m 566 1191 l 448 1319 l 251 1319 l 404 1191 l 566 1191 m 692 1179 l 567 1179 q 543 1124 567 1143 q 476 1105 519 1105 q 409 1124 433 1105 q 385 1179 385 1143 l 260 1179 q 287 1078 260 1120 q 362 1014 313 1036 q 476 991 410 991 q 590 1014 542 991 q 665 1078 639 1036 q 692 1179 692 1120 z "},"Ǡ":{"ha":952,"x_min":16,"x_max":936,"o":"m 298 0 l 339 175 l 592 175 l 632 0 l 936 0 l 658 926 l 297 926 l 16 0 l 298 0 m 475 690 l 547 375 l 386 375 l 460 690 l 475 690 m 374 1057 q 404 988 374 1015 q 476 960 433 960 q 548 988 519 960 q 578 1057 578 1015 q 548 1128 578 1099 q 476 1156 519 1156 q 404 1128 433 1156 q 374 1057 374 1099 m 707 1198 l 707 1312 l 245 1312 l 245 1198 l 707 1198 z "},"Ḁ":{"ha":952,"x_min":16,"x_max":936,"o":"m 298 0 l 339 175 l 592 175 l 632 0 l 936 0 l 658 926 l 297 926 l 16 0 l 298 0 m 475 690 l 547 375 l 386 375 l 460 690 l 475 690 z "},"Â":{"ha":952,"x_min":16,"x_max":936,"o":"m 298 0 l 339 175 l 592 175 l 632 0 l 936 0 l 658 926 l 297 926 l 16 0 l 298 0 m 475 690 l 547 375 l 386 375 l 460 690 l 475 690 m 572 1173 l 381 1173 l 203 1001 l 395 1001 l 472 1075 l 481 1075 l 552 1001 l 744 1001 l 572 1173 z "},"Ậ":{"ha":952,"x_min":16,"x_max":936,"o":"m 298 0 l 339 175 l 592 175 l 632 0 l 936 0 l 658 926 l 297 926 l 16 0 l 298 0 m 475 690 l 547 375 l 386 375 l 460 690 l 475 690 m 572 1173 l 381 1173 l 203 1001 l 395 1001 l 472 1075 l 481 1075 l 552 1001 l 744 1001 l 572 1173 m 374 -162 q 405 -234 374 -204 q 476 -264 435 -264 q 548 -234 518 -264 q 578 -162 578 -204 q 548 -90 578 -120 q 476 -60 518 -60 q 405 -90 435 -60 q 374 -162 374 -120 z "},"Ấ":{"ha":952,"x_min":16,"x_max":1004,"o":"m 298 0 l 339 175 l 592 175 l 632 0 l 936 0 l 658 926 l 297 926 l 16 0 l 298 0 m 475 690 l 547 375 l 386 375 l 460 690 l 475 690 m 205 1013 l 398 1013 l 471 1086 l 481 1086 l 554 1013 l 747 1013 l 572 1184 l 380 1184 l 205 1013 m 677 1124 l 838 1124 l 1004 1297 l 836 1297 l 677 1124 z "},"Ẫ":{"ha":952,"x_min":16,"x_max":936,"o":"m 298 0 l 339 175 l 592 175 l 632 0 l 936 0 l 658 926 l 297 926 l 16 0 l 298 0 m 475 690 l 547 375 l 386 375 l 460 690 l 475 690 m 239 1013 l 412 1013 l 475 1076 l 477 1076 l 541 1013 l 713 1013 l 559 1141 l 393 1141 l 239 1013 m 388 1182 q 390 1197 388 1189 q 399 1212 393 1206 q 419 1219 406 1219 q 441 1211 430 1219 q 467 1192 452 1202 q 502 1173 481 1181 q 550 1164 522 1164 q 616 1182 587 1164 q 662 1233 646 1200 q 679 1308 679 1265 l 576 1308 q 568 1271 576 1280 q 541 1261 561 1261 q 515 1269 528 1261 q 486 1288 502 1277 q 450 1307 471 1299 q 402 1315 430 1315 q 317 1275 349 1315 q 286 1182 286 1235 l 388 1182 z "},"Ầ":{"ha":952,"x_min":16,"x_max":936,"o":"m 298 0 l 339 175 l 592 175 l 632 0 l 936 0 l 658 926 l 297 926 l 16 0 l 298 0 m 475 690 l 547 375 l 386 375 l 460 690 l 475 690 m 205 1013 l 398 1013 l 471 1086 l 481 1086 l 554 1013 l 747 1013 l 572 1184 l 380 1184 l 205 1013 m 885 1124 l 727 1297 l 559 1297 l 725 1124 l 885 1124 z "},"Ẩ":{"ha":952,"x_min":16,"x_max":936,"o":"m 298 0 l 339 175 l 592 175 l 632 0 l 936 0 l 658 926 l 297 926 l 16 0 l 298 0 m 475 690 l 547 375 l 386 375 l 460 690 l 475 690 m 205 1013 l 398 1013 l 471 1086 l 481 1086 l 554 1013 l 747 1013 l 572 1184 l 380 1184 l 205 1013 m 616 1238 q 631 1240 624 1239 q 654 1241 639 1241 q 692 1229 677 1241 q 707 1197 707 1217 q 701 1175 707 1184 q 681 1156 694 1166 l 739 1096 q 792 1141 766 1112 q 818 1211 818 1170 q 777 1296 818 1274 q 681 1319 736 1319 q 642 1317 660 1319 q 616 1312 623 1314 l 616 1238 z "},"Ă":{"ha":952,"x_min":16,"x_max":936,"o":"m 298 0 l 339 175 l 592 175 l 632 0 l 936 0 l 658 926 l 297 926 l 16 0 l 298 0 m 475 690 l 547 375 l 386 375 l 460 690 l 475 690 m 231 1209 q 262 1088 231 1138 q 347 1012 292 1038 q 476 985 402 985 q 604 1012 550 985 q 688 1088 659 1038 q 718 1209 718 1139 l 577 1209 q 553 1142 577 1166 q 476 1118 528 1118 q 399 1142 424 1118 q 375 1209 375 1166 l 231 1209 z "},"Ắ":{"ha":952,"x_min":16,"x_max":936,"o":"m 298 0 l 339 175 l 592 175 l 632 0 l 936 0 l 658 926 l 297 926 l 16 0 l 298 0 m 475 690 l 547 375 l 386 375 l 460 690 l 475 690 m 692 1179 l 567 1179 q 543 1124 567 1143 q 476 1105 519 1105 q 409 1124 433 1105 q 385 1179 385 1143 l 260 1179 q 287 1078 260 1120 q 362 1014 313 1036 q 476 991 410 991 q 590 1014 542 991 q 665 1078 639 1036 q 692 1179 692 1120 m 387 1191 l 548 1191 l 701 1319 l 504 1319 l 387 1191 z "},"Ẵ":{"ha":952,"x_min":16,"x_max":936,"o":"m 298 0 l 339 175 l 592 175 l 632 0 l 936 0 l 658 926 l 297 926 l 16 0 l 298 0 m 475 690 l 547 375 l 386 375 l 460 690 l 475 690 m 384 1178 q 386 1194 384 1185 q 395 1211 389 1204 q 415 1219 402 1219 q 439 1210 427 1219 q 467 1190 452 1201 q 503 1169 482 1178 q 554 1160 524 1160 q 624 1180 593 1160 q 673 1233 655 1199 q 691 1312 691 1267 l 580 1312 q 572 1271 580 1282 q 545 1261 565 1261 q 516 1270 530 1261 q 486 1290 503 1278 q 449 1310 470 1301 q 398 1319 428 1319 q 307 1277 341 1319 q 273 1178 273 1234 l 384 1178 m 681 1133 l 566 1133 q 541 1089 566 1106 q 476 1072 516 1072 q 411 1089 436 1072 q 387 1133 387 1106 l 271 1133 q 297 1052 271 1087 q 369 996 323 1016 q 476 976 416 976 q 583 996 537 976 q 655 1052 629 1016 q 681 1133 681 1087 z "},"Ẳ":{"ha":952,"x_min":16,"x_max":936,"o":"m 298 0 l 339 175 l 592 175 l 632 0 l 936 0 l 658 926 l 297 926 l 16 0 l 298 0 m 475 690 l 547 375 l 386 375 l 460 690 l 475 690 m 681 1133 l 566 1133 q 541 1089 566 1106 q 476 1072 516 1072 q 411 1089 436 1072 q 387 1133 387 1106 l 271 1133 q 297 1052 271 1087 q 369 996 323 1016 q 476 976 416 976 q 583 996 537 976 q 655 1052 629 1016 q 681 1133 681 1087 m 351 1220 q 388 1227 366 1227 q 417 1221 407 1227 q 428 1201 428 1214 q 422 1187 428 1194 q 411 1180 416 1180 l 473 1120 q 522 1156 502 1129 q 541 1213 541 1183 q 505 1281 541 1255 q 411 1307 469 1307 q 376 1305 393 1307 q 351 1299 359 1303 l 351 1220 z "},"Ặ":{"ha":952,"x_min":16,"x_max":936,"o":"m 298 0 l 339 175 l 592 175 l 632 0 l 936 0 l 658 926 l 297 926 l 16 0 l 298 0 m 475 690 l 547 375 l 386 375 l 460 690 l 475 690 m 231 1209 q 262 1088 231 1138 q 347 1012 292 1038 q 476 985 402 985 q 604 1012 550 985 q 688 1088 659 1038 q 718 1209 718 1139 l 577 1209 q 553 1142 577 1166 q 476 1118 528 1118 q 399 1142 424 1118 q 375 1209 375 1166 l 231 1209 m 374 -162 q 405 -234 374 -204 q 476 -264 435 -264 q 548 -234 518 -264 q 578 -162 578 -204 q 548 -90 578 -120 q 476 -60 518 -60 q 405 -90 435 -60 q 374 -162 374 -120 z "},"Ȃ":{"ha":952,"x_min":16,"x_max":936,"o":"m 298 0 l 339 175 l 592 175 l 632 0 l 936 0 l 658 926 l 297 926 l 16 0 l 298 0 m 475 690 l 547 375 l 386 375 l 460 690 l 475 690 m 231 991 l 375 991 q 402 1056 375 1034 q 476 1078 429 1078 q 550 1056 524 1078 q 577 991 577 1034 l 718 991 q 687 1111 718 1062 q 601 1186 656 1160 q 476 1211 547 1211 q 350 1186 406 1211 q 263 1111 295 1160 q 231 991 231 1062 z "},"Ǎ":{"ha":952,"x_min":16,"x_max":936,"o":"m 298 0 l 339 175 l 592 175 l 632 0 l 936 0 l 658 926 l 297 926 l 16 0 l 298 0 m 475 690 l 547 375 l 386 375 l 460 690 l 475 690 m 205 1177 l 379 1006 l 581 1006 l 746 1177 l 553 1177 l 486 1103 l 470 1103 l 397 1177 l 205 1177 z "},"Ȧ":{"ha":952,"x_min":16,"x_max":936,"o":"m 298 0 l 339 175 l 592 175 l 632 0 l 936 0 l 658 926 l 297 926 l 16 0 l 298 0 m 475 690 l 547 375 l 386 375 l 460 690 l 475 690 m 365 1122 q 397 1043 365 1076 q 476 1010 430 1010 q 555 1043 522 1010 q 587 1122 587 1076 q 555 1200 587 1168 q 476 1233 522 1233 q 397 1200 430 1233 q 365 1122 365 1168 z "},"Ạ":{"ha":952,"x_min":16,"x_max":936,"o":"m 298 0 l 339 175 l 592 175 l 632 0 l 936 0 l 658 926 l 297 926 l 16 0 l 298 0 m 475 690 l 547 375 l 386 375 l 460 690 l 475 690 m 374 -162 q 405 -234 374 -204 q 476 -264 435 -264 q 548 -234 518 -264 q 578 -162 578 -204 q 548 -90 578 -120 q 476 -60 518 -60 q 405 -90 435 -60 q 374 -162 374 -120 z "},"Ả":{"ha":952,"x_min":16,"x_max":936,"o":"m 298 0 l 339 175 l 592 175 l 632 0 l 936 0 l 658 926 l 297 926 l 16 0 l 298 0 m 475 690 l 547 375 l 386 375 l 460 690 l 475 690 m 351 1145 q 380 1151 363 1149 q 409 1153 397 1153 q 456 1143 437 1153 q 476 1109 476 1133 q 463 1076 476 1089 q 431 1056 450 1063 l 503 979 q 552 1011 529 993 q 589 1055 574 1029 q 604 1119 604 1081 q 561 1222 604 1185 q 437 1259 517 1259 q 386 1254 409 1259 q 351 1243 363 1249 l 351 1145 z "},"Ȁ":{"ha":952,"x_min":16,"x_max":936,"o":"m 298 0 l 339 175 l 592 175 l 632 0 l 936 0 l 658 926 l 297 926 l 16 0 l 298 0 m 475 690 l 547 375 l 386 375 l 460 690 l 475 690 m 423 1013 l 266 1228 l 50 1228 l 244 1013 l 423 1013 m 739 1013 l 582 1228 l 366 1228 l 560 1013 l 739 1013 z "},"Ā":{"ha":952,"x_min":16,"x_max":936,"o":"m 298 0 l 339 175 l 592 175 l 632 0 l 936 0 l 658 926 l 297 926 l 16 0 l 298 0 m 475 690 l 547 375 l 386 375 l 460 690 l 475 690 m 707 1006 l 707 1120 l 245 1120 l 245 1006 l 707 1006 z "},"Ą":{"ha":952,"x_min":16,"x_max":966,"o":"m 850 -267 q 916 -262 880 -267 q 966 -252 951 -258 l 966 -117 q 947 -120 962 -118 q 918 -121 931 -121 q 856 -102 876 -121 q 836 -60 836 -83 q 854 -7 836 -37 q 921 47 873 22 l 658 926 l 297 926 l 16 0 l 298 0 l 339 175 l 592 175 l 632 0 l 712 0 q 712 -6 712 -3 q 712 -12 712 -9 q 691 -38 703 -22 q 672 -76 680 -54 q 665 -127 665 -98 q 720 -233 665 -198 q 850 -267 774 -267 m 475 690 l 547 375 l 386 375 l 460 690 l 475 690 z "},"B":{"ha":926,"x_min":95,"x_max":881,"o":"m 95 0 l 560 0 q 718 31 645 0 q 836 120 791 61 q 881 264 881 179 q 846 390 881 342 q 762 461 812 438 q 667 486 713 484 l 667 498 q 750 527 710 504 q 816 593 790 551 q 842 699 842 636 q 759 866 842 807 q 542 926 675 926 l 95 926 l 95 0 m 376 736 l 463 736 q 539 712 513 736 q 566 650 566 688 q 556 607 566 627 q 523 575 545 587 q 465 562 500 562 l 376 562 l 376 736 m 376 394 l 472 394 q 540 381 513 394 q 580 346 567 368 q 593 294 593 323 q 565 221 593 252 q 473 190 536 190 l 376 190 l 376 394 z "},"Ḇ":{"ha":926,"x_min":95,"x_max":881,"o":"m 95 0 l 560 0 q 718 31 645 0 q 836 120 791 61 q 881 264 881 179 q 846 390 881 342 q 762 461 812 438 q 667 486 713 484 l 667 498 q 750 527 710 504 q 816 593 790 551 q 842 699 842 636 q 759 866 842 807 q 542 926 675 926 l 95 926 l 95 0 m 376 736 l 463 736 q 539 712 513 736 q 566 650 566 688 q 556 607 566 627 q 523 575 545 587 q 465 562 500 562 l 376 562 l 376 736 m 376 394 l 472 394 q 540 381 513 394 q 580 346 567 368 q 593 294 593 323 q 565 221 593 252 q 473 190 536 190 l 376 190 l 376 394 z "},"Ḅ":{"ha":926,"x_min":95,"x_max":881,"o":"m 95 0 l 560 0 q 718 31 645 0 q 836 120 791 61 q 881 264 881 179 q 846 390 881 342 q 762 461 812 438 q 667 486 713 484 l 667 498 q 750 527 710 504 q 816 593 790 551 q 842 699 842 636 q 759 866 842 807 q 542 926 675 926 l 95 926 l 95 0 m 376 736 l 463 736 q 539 712 513 736 q 566 650 566 688 q 556 607 566 627 q 523 575 545 587 q 465 562 500 562 l 376 562 l 376 736 m 376 394 l 472 394 q 540 381 513 394 q 580 346 567 368 q 593 294 593 323 q 565 221 593 252 q 473 190 536 190 l 376 190 l 376 394 m 361 -162 q 392 -234 361 -204 q 463 -264 422 -264 q 535 -234 505 -264 q 565 -162 565 -204 q 535 -90 565 -120 q 463 -60 505 -60 q 392 -90 422 -60 q 361 -162 361 -120 z "},"Ḃ":{"ha":926,"x_min":95,"x_max":881,"o":"m 95 0 l 560 0 q 718 31 645 0 q 836 120 791 61 q 881 264 881 179 q 846 390 881 342 q 762 461 812 438 q 667 486 713 484 l 667 498 q 750 527 710 504 q 816 593 790 551 q 842 699 842 636 q 759 866 842 807 q 542 926 675 926 l 95 926 l 95 0 m 376 736 l 463 736 q 539 712 513 736 q 566 650 566 688 q 556 607 566 627 q 523 575 545 587 q 465 562 500 562 l 376 562 l 376 736 m 376 394 l 472 394 q 540 381 513 394 q 580 346 567 368 q 593 294 593 323 q 565 221 593 252 q 473 190 536 190 l 376 190 l 376 394 m 352 1122 q 385 1043 352 1076 q 463 1010 417 1010 q 542 1043 509 1010 q 574 1122 574 1076 q 542 1200 574 1168 q 463 1233 509 1233 q 385 1200 417 1233 q 352 1122 352 1168 z "},"C":{"ha":935,"x_min":57,"x_max":880,"o":"m 349 505 q 365 618 349 572 q 411 687 380 663 q 484 710 441 710 q 554 690 526 710 q 597 634 583 669 q 611 555 611 599 l 880 555 q 880 575 880 565 q 880 595 880 585 q 851 738 880 674 q 768 847 821 802 q 642 917 715 892 q 481 941 568 941 q 249 887 344 941 q 106 735 155 833 q 57 505 57 637 l 57 421 q 106 191 57 289 q 249 39 155 93 q 481 -16 344 -16 q 688 27 597 -16 q 829 148 778 70 q 880 330 880 225 q 880 350 880 340 q 880 371 880 361 l 611 371 q 597 292 611 327 q 554 236 583 256 q 484 215 526 215 q 411 238 441 215 q 365 307 380 262 q 349 419 349 353 l 349 505 z "},"Ć":{"ha":935,"x_min":57,"x_max":880,"o":"m 349 505 q 365 618 349 572 q 411 687 380 663 q 484 710 441 710 q 554 690 526 710 q 597 634 583 669 q 611 555 611 599 l 880 555 q 880 575 880 565 q 880 595 880 585 q 851 738 880 674 q 768 847 821 802 q 642 917 715 892 q 481 941 568 941 q 249 887 344 941 q 106 735 155 833 q 57 505 57 637 l 57 421 q 106 191 57 289 q 249 39 155 93 q 481 -16 344 -16 q 688 27 597 -16 q 829 148 778 70 q 880 330 880 225 q 880 350 880 340 q 880 371 880 361 l 611 371 q 597 292 611 327 q 554 236 583 256 q 484 215 526 215 q 411 238 441 215 q 365 307 380 262 q 349 419 349 353 l 349 505 m 367 1013 l 549 1013 l 743 1228 l 525 1228 l 367 1013 z "},"Č":{"ha":935,"x_min":57,"x_max":880,"o":"m 349 505 q 365 618 349 572 q 411 687 380 663 q 484 710 441 710 q 554 690 526 710 q 597 634 583 669 q 611 555 611 599 l 880 555 q 880 575 880 565 q 880 595 880 585 q 851 738 880 674 q 768 847 821 802 q 642 917 715 892 q 481 941 568 941 q 249 887 344 941 q 106 735 155 833 q 57 505 57 637 l 57 421 q 106 191 57 289 q 249 39 155 93 q 481 -16 344 -16 q 688 27 597 -16 q 829 148 778 70 q 880 330 880 225 q 880 350 880 340 q 880 371 880 361 l 611 371 q 597 292 611 327 q 554 236 583 256 q 484 215 526 215 q 411 238 441 215 q 365 307 380 262 q 349 419 349 353 l 349 505 m 196 1177 l 370 1006 l 572 1006 l 737 1177 l 545 1177 l 477 1103 l 461 1103 l 388 1177 l 196 1177 z "},"Ĉ":{"ha":935,"x_min":57,"x_max":880,"o":"m 349 505 q 365 618 349 572 q 411 687 380 663 q 484 710 441 710 q 554 690 526 710 q 597 634 583 669 q 611 555 611 599 l 880 555 q 880 575 880 565 q 880 595 880 585 q 851 738 880 674 q 768 847 821 802 q 642 917 715 892 q 481 941 568 941 q 249 887 344 941 q 106 735 155 833 q 57 505 57 637 l 57 421 q 106 191 57 289 q 249 39 155 93 q 481 -16 344 -16 q 688 27 597 -16 q 829 148 778 70 q 880 330 880 225 q 880 350 880 340 q 880 371 880 361 l 611 371 q 597 292 611 327 q 554 236 583 256 q 484 215 526 215 q 411 238 441 215 q 365 307 380 262 q 349 419 349 353 l 349 505 m 563 1173 l 372 1173 l 195 1001 l 387 1001 l 463 1075 l 472 1075 l 543 1001 l 735 1001 l 563 1173 z "},"Ċ":{"ha":935,"x_min":57,"x_max":880,"o":"m 349 505 q 365 618 349 572 q 411 687 380 663 q 484 710 441 710 q 554 690 526 710 q 597 634 583 669 q 611 555 611 599 l 880 555 q 880 575 880 565 q 880 595 880 585 q 851 738 880 674 q 768 847 821 802 q 642 917 715 892 q 481 941 568 941 q 249 887 344 941 q 106 735 155 833 q 57 505 57 637 l 57 421 q 106 191 57 289 q 249 39 155 93 q 481 -16 344 -16 q 688 27 597 -16 q 829 148 778 70 q 880 330 880 225 q 880 350 880 340 q 880 371 880 361 l 611 371 q 597 292 611 327 q 554 236 583 256 q 484 215 526 215 q 411 238 441 215 q 365 307 380 262 q 349 419 349 353 l 349 505 m 356 1122 q 389 1043 356 1076 q 467 1010 421 1010 q 546 1043 513 1010 q 578 1122 578 1076 q 546 1200 578 1168 q 467 1233 513 1233 q 389 1200 421 1233 q 356 1122 356 1168 z "},"Ç":{"ha":935,"x_min":57,"x_max":880,"o":"m 459 -323 q 559 -309 517 -323 q 624 -263 602 -294 q 647 -184 647 -233 q 633 -122 647 -149 q 594 -79 620 -95 q 532 -64 568 -64 l 555 -11 q 725 47 652 2 q 839 164 798 92 q 880 330 880 237 q 880 350 880 340 q 880 371 880 361 l 611 371 q 597 292 611 327 q 554 236 583 256 q 484 215 526 215 q 411 238 441 215 q 365 307 380 262 q 349 419 349 353 l 349 505 q 365 618 349 572 q 411 687 380 663 q 484 710 441 710 q 554 690 526 710 q 597 634 583 669 q 611 555 611 599 l 880 555 q 880 575 880 565 q 880 595 880 585 q 851 738 880 674 q 768 847 821 802 q 642 917 715 892 q 481 941 568 941 q 249 887 344 941 q 106 735 155 833 q 57 505 57 637 l 57 421 q 98 208 57 300 q 218 59 139 115 q 413 -12 298 2 l 391 -70 l 391 -161 l 430 -161 q 491 -170 480 -161 q 502 -194 502 -180 q 481 -216 502 -212 q 435 -220 460 -220 q 396 -218 415 -220 q 363 -212 377 -216 l 363 -313 q 397 -320 374 -316 q 459 -323 420 -323 z "},"Ḉ":{"ha":935,"x_min":57,"x_max":880,"o":"m 459 -323 q 559 -309 517 -323 q 624 -263 602 -294 q 647 -184 647 -233 q 633 -122 647 -149 q 594 -79 620 -95 q 532 -64 568 -64 l 555 -11 q 725 47 652 2 q 839 164 798 92 q 880 330 880 237 q 880 350 880 340 q 880 371 880 361 l 611 371 q 597 292 611 327 q 554 236 583 256 q 484 215 526 215 q 411 238 441 215 q 365 307 380 262 q 349 419 349 353 l 349 505 q 365 618 349 572 q 411 687 380 663 q 484 710 441 710 q 554 690 526 710 q 597 634 583 669 q 611 555 611 599 l 880 555 q 880 575 880 565 q 880 595 880 585 q 851 738 880 674 q 768 847 821 802 q 642 917 715 892 q 481 941 568 941 q 249 887 344 941 q 106 735 155 833 q 57 505 57 637 l 57 421 q 98 208 57 300 q 218 59 139 115 q 413 -12 298 2 l 391 -70 l 391 -161 l 430 -161 q 491 -170 480 -161 q 502 -194 502 -180 q 481 -216 502 -212 q 435 -220 460 -220 q 396 -218 415 -220 q 363 -212 377 -216 l 363 -313 q 397 -320 374 -316 q 459 -323 420 -323 m 367 1013 l 549 1013 l 743 1228 l 525 1228 l 367 1013 z "},"D":{"ha":974,"x_min":95,"x_max":922,"o":"m 95 926 l 95 0 l 497 0 q 739 59 645 0 q 878 223 833 117 q 922 469 922 329 q 879 709 922 606 q 741 869 835 812 q 497 926 648 926 l 95 926 m 380 707 l 445 707 q 553 679 513 707 q 612 596 594 651 q 631 460 631 541 q 621 355 631 400 q 589 279 610 309 q 531 234 567 249 q 445 219 496 219 l 380 219 l 380 707 z "},"Ḋ":{"ha":974,"x_min":95,"x_max":922,"o":"m 95 926 l 95 0 l 497 0 q 739 59 645 0 q 878 223 833 117 q 922 469 922 329 q 879 709 922 606 q 741 869 835 812 q 497 926 648 926 l 95 926 m 380 707 l 445 707 q 553 679 513 707 q 612 596 594 651 q 631 460 631 541 q 621 355 631 400 q 589 279 610 309 q 531 234 567 249 q 445 219 496 219 l 380 219 l 380 707 m 332 1122 q 364 1043 332 1076 q 443 1010 397 1010 q 522 1043 489 1010 q 554 1122 554 1076 q 522 1200 554 1168 q 443 1233 489 1233 q 364 1200 397 1233 q 332 1122 332 1168 z "},"Ḓ":{"ha":974,"x_min":95,"x_max":922,"o":"m 95 926 l 95 0 l 497 0 q 739 59 645 0 q 878 223 833 117 q 922 469 922 329 q 879 709 922 606 q 741 869 835 812 q 497 926 648 926 l 95 926 m 380 707 l 445 707 q 553 679 513 707 q 612 596 594 651 q 631 460 631 541 q 621 355 631 400 q 589 279 610 309 q 531 234 567 249 q 445 219 496 219 l 380 219 l 380 707 m 172 -241 l 365 -241 l 437 -168 l 448 -168 l 521 -241 l 713 -241 l 539 -70 l 347 -70 l 172 -241 z "},"Ḑ":{"ha":974,"x_min":95,"x_max":922,"o":"m 95 926 l 95 0 l 497 0 q 739 59 645 0 q 878 223 833 117 q 922 469 922 329 q 879 709 922 606 q 741 869 835 812 q 497 926 648 926 l 95 926 m 380 707 l 445 707 q 553 679 513 707 q 612 596 594 651 q 631 460 631 541 q 621 355 631 400 q 589 279 610 309 q 531 234 567 249 q 445 219 496 219 l 380 219 l 380 707 m 475 -318 l 553 -91 l 365 -91 l 307 -318 l 475 -318 z "},"Ḏ":{"ha":974,"x_min":95,"x_max":922,"o":"m 95 926 l 95 0 l 497 0 q 739 59 645 0 q 878 223 833 117 q 922 469 922 329 q 879 709 922 606 q 741 869 835 812 q 497 926 648 926 l 95 926 m 380 707 l 445 707 q 553 679 513 707 q 612 596 594 651 q 631 460 631 541 q 621 355 631 400 q 589 279 610 309 q 531 234 567 249 q 445 219 496 219 l 380 219 l 380 707 z "},"Ď":{"ha":974,"x_min":95,"x_max":922,"o":"m 95 926 l 95 0 l 497 0 q 739 59 645 0 q 878 223 833 117 q 922 469 922 329 q 879 709 922 606 q 741 869 835 812 q 497 926 648 926 l 95 926 m 380 707 l 445 707 q 553 679 513 707 q 612 596 594 651 q 631 460 631 541 q 621 355 631 400 q 589 279 610 309 q 531 234 567 249 q 445 219 496 219 l 380 219 l 380 707 m 172 1177 l 346 1006 l 548 1006 l 713 1177 l 520 1177 l 452 1103 l 437 1103 l 363 1177 l 172 1177 z "},"Ḍ":{"ha":974,"x_min":95,"x_max":922,"o":"m 95 926 l 95 0 l 497 0 q 739 59 645 0 q 878 223 833 117 q 922 469 922 329 q 879 709 922 606 q 741 869 835 812 q 497 926 648 926 l 95 926 m 380 707 l 445 707 q 553 679 513 707 q 612 596 594 651 q 631 460 631 541 q 621 355 631 400 q 589 279 610 309 q 531 234 567 249 q 445 219 496 219 l 380 219 l 380 707 m 341 -162 q 371 -234 341 -204 q 443 -264 401 -264 q 515 -234 485 -264 q 545 -162 545 -204 q 515 -90 545 -120 q 443 -60 485 -60 q 371 -90 401 -60 q 341 -162 341 -120 z "},"Đ":{"ha":1044,"x_min":50,"x_max":993,"o":"m 568 0 q 809 59 715 0 q 948 223 903 117 q 993 469 993 329 q 949 709 993 606 q 812 869 905 812 q 568 926 718 926 l 165 926 l 165 587 l 50 587 l 50 342 l 165 342 l 165 0 l 568 0 m 450 227 l 450 342 l 553 342 l 553 587 l 450 587 l 450 715 l 513 715 q 620 691 578 715 q 680 614 661 668 q 699 468 699 560 q 688 352 699 399 q 655 278 677 306 q 597 239 632 251 q 513 227 562 227 l 450 227 z "},"E":{"ha":829,"x_min":95,"x_max":755,"o":"m 755 219 l 376 219 l 376 363 l 730 363 l 730 561 l 376 561 l 376 707 l 755 707 l 755 926 l 95 926 l 95 0 l 755 0 l 755 219 z "},"È":{"ha":829,"x_min":95,"x_max":755,"o":"m 755 219 l 376 219 l 376 363 l 730 363 l 730 561 l 376 561 l 376 707 l 755 707 l 755 926 l 95 926 l 95 0 l 755 0 l 755 219 m 515 1013 l 357 1228 l 140 1228 l 334 1013 l 515 1013 z "},"Ȅ":{"ha":829,"x_min":-11,"x_max":755,"o":"m 755 219 l 376 219 l 376 363 l 730 363 l 730 561 l 376 561 l 376 707 l 755 707 l 755 926 l 95 926 l 95 0 l 755 0 l 755 219 m 362 1013 l 205 1228 l -11 1228 l 183 1013 l 362 1013 m 678 1013 l 521 1228 l 305 1228 l 499 1013 l 678 1013 z "},"É":{"ha":829,"x_min":95,"x_max":755,"o":"m 755 219 l 376 219 l 376 363 l 730 363 l 730 561 l 376 561 l 376 707 l 755 707 l 755 926 l 95 926 l 95 0 l 755 0 l 755 219 m 315 1013 l 496 1013 l 690 1228 l 473 1228 l 315 1013 z "},"Ê":{"ha":829,"x_min":95,"x_max":755,"o":"m 755 219 l 376 219 l 376 363 l 730 363 l 730 561 l 376 561 l 376 707 l 755 707 l 755 926 l 95 926 l 95 0 l 755 0 l 755 219 m 511 1173 l 320 1173 l 142 1001 l 334 1001 l 411 1075 l 420 1075 l 491 1001 l 683 1001 l 511 1173 z "},"Ể":{"ha":829,"x_min":95,"x_max":757,"o":"m 755 219 l 376 219 l 376 363 l 730 363 l 730 561 l 376 561 l 376 707 l 755 707 l 755 926 l 95 926 l 95 0 l 755 0 l 755 219 m 144 1013 l 337 1013 l 410 1086 l 420 1086 l 493 1013 l 686 1013 l 511 1184 l 319 1184 l 144 1013 m 555 1238 q 570 1240 563 1239 q 593 1241 578 1241 q 631 1229 616 1241 q 646 1197 646 1217 q 640 1175 646 1184 q 620 1156 633 1166 l 678 1096 q 731 1141 705 1112 q 757 1211 757 1170 q 716 1296 757 1274 q 620 1319 675 1319 q 581 1317 599 1319 q 555 1312 562 1314 l 555 1238 z "},"Ề":{"ha":829,"x_min":95,"x_max":824,"o":"m 755 219 l 376 219 l 376 363 l 730 363 l 730 561 l 376 561 l 376 707 l 755 707 l 755 926 l 95 926 l 95 0 l 755 0 l 755 219 m 144 1013 l 337 1013 l 410 1086 l 420 1086 l 493 1013 l 686 1013 l 511 1184 l 319 1184 l 144 1013 m 824 1124 l 666 1297 l 498 1297 l 664 1124 l 824 1124 z "},"Ễ":{"ha":829,"x_min":95,"x_max":755,"o":"m 755 219 l 376 219 l 376 363 l 730 363 l 730 561 l 376 561 l 376 707 l 755 707 l 755 926 l 95 926 l 95 0 l 755 0 l 755 219 m 178 1013 l 351 1013 l 414 1076 l 416 1076 l 479 1013 l 652 1013 l 498 1141 l 332 1141 l 178 1013 m 327 1182 q 329 1197 327 1189 q 338 1212 332 1206 q 358 1219 345 1219 q 380 1211 369 1219 q 406 1192 391 1202 q 440 1173 420 1181 q 489 1164 460 1164 q 555 1182 526 1164 q 601 1233 585 1200 q 618 1308 618 1265 l 515 1308 q 507 1271 515 1280 q 480 1261 500 1261 q 454 1269 467 1261 q 425 1288 441 1277 q 389 1307 410 1299 q 341 1315 369 1315 q 256 1275 288 1315 q 224 1182 224 1235 l 327 1182 z "},"Ệ":{"ha":829,"x_min":95,"x_max":755,"o":"m 755 219 l 376 219 l 376 363 l 730 363 l 730 561 l 376 561 l 376 707 l 755 707 l 755 926 l 95 926 l 95 0 l 755 0 l 755 219 m 511 1173 l 320 1173 l 142 1001 l 334 1001 l 411 1075 l 420 1075 l 491 1001 l 683 1001 l 511 1173 m 313 -162 q 343 -234 313 -204 q 415 -264 374 -264 q 487 -234 457 -264 q 517 -162 517 -204 q 487 -90 517 -120 q 415 -60 457 -60 q 343 -90 374 -60 q 313 -162 313 -120 z "},"Ế":{"ha":829,"x_min":95,"x_max":943,"o":"m 755 219 l 376 219 l 376 363 l 730 363 l 730 561 l 376 561 l 376 707 l 755 707 l 755 926 l 95 926 l 95 0 l 755 0 l 755 219 m 144 1013 l 337 1013 l 410 1086 l 420 1086 l 493 1013 l 686 1013 l 511 1184 l 319 1184 l 144 1013 m 616 1124 l 777 1124 l 943 1297 l 774 1297 l 616 1124 z "},"Ë":{"ha":829,"x_min":95,"x_max":755,"o":"m 755 219 l 376 219 l 376 363 l 730 363 l 730 561 l 376 561 l 376 707 l 755 707 l 755 926 l 95 926 l 95 0 l 755 0 l 755 219 m 562 981 q 634 1006 608 981 q 661 1074 661 1032 q 634 1141 661 1115 q 562 1166 608 1166 q 489 1141 515 1166 q 463 1074 463 1115 q 489 1006 463 1032 q 562 981 515 981 m 269 981 q 341 1006 315 981 q 368 1074 368 1032 q 341 1141 368 1115 q 269 1166 315 1166 q 196 1141 222 1166 q 170 1074 170 1115 q 196 1006 170 1032 q 269 981 222 981 z "},"Ẹ":{"ha":829,"x_min":95,"x_max":755,"o":"m 755 219 l 376 219 l 376 363 l 730 363 l 730 561 l 376 561 l 376 707 l 755 707 l 755 926 l 95 926 l 95 0 l 755 0 l 755 219 m 313 -162 q 343 -234 313 -204 q 415 -264 374 -264 q 487 -234 457 -264 q 517 -162 517 -204 q 487 -90 517 -120 q 415 -60 457 -60 q 343 -90 374 -60 q 313 -162 313 -120 z "},"Ȇ":{"ha":829,"x_min":95,"x_max":755,"o":"m 755 219 l 376 219 l 376 363 l 730 363 l 730 561 l 376 561 l 376 707 l 755 707 l 755 926 l 95 926 l 95 0 l 755 0 l 755 219 m 170 991 l 314 991 q 341 1056 314 1034 q 415 1078 368 1078 q 489 1056 463 1078 q 516 991 516 1034 l 656 991 q 626 1111 656 1062 q 540 1186 595 1160 q 415 1211 486 1211 q 289 1186 345 1211 q 202 1111 234 1160 q 170 991 170 1062 z "},"Ẻ":{"ha":829,"x_min":95,"x_max":755,"o":"m 755 219 l 376 219 l 376 363 l 730 363 l 730 561 l 376 561 l 376 707 l 755 707 l 755 926 l 95 926 l 95 0 l 755 0 l 755 219 m 290 1145 q 319 1151 302 1149 q 348 1153 336 1153 q 395 1143 376 1153 q 415 1109 415 1133 q 402 1076 415 1089 q 370 1056 389 1063 l 442 979 q 491 1011 468 993 q 528 1055 513 1029 q 543 1119 543 1081 q 499 1222 543 1185 q 376 1259 456 1259 q 325 1254 348 1259 q 290 1243 302 1249 l 290 1145 z "},"Ě":{"ha":829,"x_min":95,"x_max":755,"o":"m 755 219 l 376 219 l 376 363 l 730 363 l 730 561 l 376 561 l 376 707 l 755 707 l 755 926 l 95 926 l 95 0 l 755 0 l 755 219 m 144 1177 l 318 1006 l 520 1006 l 685 1177 l 492 1177 l 425 1103 l 409 1103 l 336 1177 l 144 1177 z "},"Ē":{"ha":829,"x_min":95,"x_max":755,"o":"m 755 219 l 376 219 l 376 363 l 730 363 l 730 561 l 376 561 l 376 707 l 755 707 l 755 926 l 95 926 l 95 0 l 755 0 l 755 219 m 646 1006 l 646 1120 l 184 1120 l 184 1006 l 646 1006 z "},"Ḕ":{"ha":829,"x_min":95,"x_max":755,"o":"m 755 219 l 376 219 l 376 363 l 730 363 l 730 561 l 376 561 l 376 707 l 755 707 l 755 926 l 95 926 l 95 0 l 755 0 l 755 219 m 505 1191 l 387 1319 l 190 1319 l 343 1191 l 505 1191 m 646 1006 l 646 1120 l 184 1120 l 184 1006 l 646 1006 z "},"Ḗ":{"ha":829,"x_min":95,"x_max":755,"o":"m 755 219 l 376 219 l 376 363 l 730 363 l 730 561 l 376 561 l 376 707 l 755 707 l 755 926 l 95 926 l 95 0 l 755 0 l 755 219 m 326 1191 l 487 1191 l 640 1319 l 443 1319 l 326 1191 m 646 1006 l 646 1120 l 184 1120 l 184 1006 l 646 1006 z "},"Ẽ":{"ha":829,"x_min":95,"x_max":755,"o":"m 755 219 l 376 219 l 376 363 l 730 363 l 730 561 l 376 561 l 376 707 l 755 707 l 755 926 l 95 926 l 95 0 l 755 0 l 755 219 m 511 987 q 594 1008 558 987 q 649 1065 629 1028 q 669 1154 669 1103 l 553 1154 q 543 1112 553 1128 q 511 1096 533 1096 q 475 1106 492 1096 q 439 1130 458 1117 q 395 1154 420 1143 q 334 1164 370 1164 q 245 1139 279 1164 q 196 1075 212 1113 q 181 998 181 1036 l 298 998 q 311 1039 299 1022 q 345 1056 323 1056 q 378 1045 363 1056 q 411 1022 393 1035 q 452 998 428 1008 q 511 987 475 987 z "},"Ḙ":{"ha":829,"x_min":95,"x_max":755,"o":"m 755 219 l 376 219 l 376 363 l 730 363 l 730 561 l 376 561 l 376 707 l 755 707 l 755 926 l 95 926 l 95 0 l 755 0 l 755 219 m 144 -241 l 337 -241 l 410 -168 l 420 -168 l 493 -241 l 686 -241 l 511 -70 l 319 -70 l 144 -241 z "},"Ĕ":{"ha":829,"x_min":95,"x_max":755,"o":"m 755 219 l 376 219 l 376 363 l 730 363 l 730 561 l 376 561 l 376 707 l 755 707 l 755 926 l 95 926 l 95 0 l 755 0 l 755 219 m 170 1209 q 201 1088 170 1138 q 286 1012 231 1038 q 415 985 341 985 q 543 1012 489 985 q 627 1088 597 1038 q 656 1209 656 1139 l 516 1209 q 492 1142 516 1166 q 415 1118 467 1118 q 338 1142 363 1118 q 314 1209 314 1166 l 170 1209 z "},"Ḛ":{"ha":829,"x_min":95,"x_max":755,"o":"m 755 219 l 376 219 l 376 363 l 730 363 l 730 561 l 376 561 l 376 707 l 755 707 l 755 926 l 95 926 l 95 0 l 755 0 l 755 219 m 513 -280 q 602 -256 563 -280 q 664 -189 642 -231 q 687 -91 687 -146 l 550 -91 q 537 -140 550 -124 q 503 -155 525 -155 q 465 -144 483 -155 q 428 -118 447 -132 q 383 -92 408 -103 q 321 -80 357 -80 q 202 -134 245 -80 q 159 -261 159 -189 l 296 -261 q 305 -226 296 -247 q 339 -205 314 -205 q 372 -216 357 -205 q 407 -242 388 -228 q 451 -269 425 -257 q 513 -280 476 -280 z "},"Ė":{"ha":829,"x_min":95,"x_max":755,"o":"m 755 219 l 376 219 l 376 363 l 730 363 l 730 561 l 376 561 l 376 707 l 755 707 l 755 926 l 95 926 l 95 0 l 755 0 l 755 219 m 304 1122 q 336 1043 304 1076 q 415 1010 369 1010 q 494 1043 461 1010 q 526 1122 526 1076 q 494 1200 526 1168 q 415 1233 461 1233 q 336 1200 369 1233 q 304 1122 304 1168 z "},"Ȩ":{"ha":829,"x_min":95,"x_max":755,"o":"m 352 0 l 325 -70 l 325 -161 l 364 -161 q 413 -165 397 -161 q 432 -177 428 -170 q 436 -194 436 -184 q 415 -216 436 -212 q 369 -220 394 -220 q 330 -218 349 -220 q 298 -212 311 -216 l 298 -313 q 331 -320 308 -316 q 393 -323 355 -323 q 494 -309 452 -323 q 558 -263 536 -294 q 581 -184 581 -233 q 568 -122 581 -149 q 528 -79 554 -95 q 467 -64 503 -64 l 494 0 l 755 0 l 755 219 l 376 219 l 376 363 l 730 363 l 730 561 l 376 561 l 376 707 l 755 707 l 755 926 l 95 926 l 95 0 l 352 0 z "},"Ḝ":{"ha":829,"x_min":95,"x_max":755,"o":"m 352 0 l 325 -70 l 325 -161 l 364 -161 q 413 -165 397 -161 q 432 -177 428 -170 q 436 -194 436 -184 q 415 -216 436 -212 q 369 -220 394 -220 q 330 -218 349 -220 q 298 -212 311 -216 l 298 -313 q 331 -320 308 -316 q 393 -323 355 -323 q 494 -309 452 -323 q 558 -263 536 -294 q 581 -184 581 -233 q 568 -122 581 -149 q 528 -79 554 -95 q 467 -64 503 -64 l 494 0 l 755 0 l 755 219 l 376 219 l 376 363 l 730 363 l 730 561 l 376 561 l 376 707 l 755 707 l 755 926 l 95 926 l 95 0 l 352 0 m 170 1209 q 201 1088 170 1138 q 286 1012 231 1038 q 415 985 341 985 q 543 1012 489 985 q 627 1088 597 1038 q 656 1209 656 1139 l 516 1209 q 492 1142 516 1166 q 415 1118 467 1118 q 338 1142 363 1118 q 314 1209 314 1166 l 170 1209 z "},"Ę":{"ha":829,"x_min":95,"x_max":755,"o":"m 755 -252 l 755 -117 q 734 -120 747 -119 q 711 -121 722 -121 q 654 -105 677 -121 q 630 -60 630 -89 q 649 -8 630 -31 q 696 30 667 15 q 755 51 725 45 l 755 219 l 376 219 l 376 363 l 730 363 l 730 561 l 376 561 l 376 707 l 755 707 l 755 926 l 95 926 l 95 0 l 507 0 l 507 -13 q 468 -62 484 -33 q 453 -127 453 -92 q 479 -205 453 -174 q 547 -252 505 -237 q 638 -267 589 -267 q 702 -262 669 -267 q 755 -252 736 -257 z "},"F":{"ha":800,"x_min":95,"x_max":753,"o":"m 380 0 l 380 319 l 717 319 l 717 534 l 380 534 l 380 703 l 753 703 l 753 926 l 95 926 l 95 0 l 380 0 z "},"Ḟ":{"ha":800,"x_min":95,"x_max":753,"o":"m 380 0 l 380 319 l 717 319 l 717 534 l 380 534 l 380 703 l 753 703 l 753 926 l 95 926 l 95 0 l 380 0 m 289 1122 q 321 1043 289 1076 q 400 1010 354 1010 q 479 1043 446 1010 q 511 1122 511 1076 q 479 1200 511 1168 q 400 1233 446 1233 q 321 1200 354 1233 q 289 1122 289 1168 z "},"G":{"ha":951,"x_min":57,"x_max":895,"o":"m 895 606 q 870 727 895 667 q 797 834 846 786 q 671 912 747 883 q 491 941 595 941 q 252 885 349 941 q 106 734 155 830 q 57 517 57 639 l 57 415 q 81 253 57 330 q 156 115 104 175 q 289 19 207 54 q 488 -16 372 -16 q 676 16 599 -16 q 802 99 754 47 q 872 217 850 151 q 895 350 895 282 l 895 524 l 513 524 l 513 335 l 628 335 l 628 324 q 614 272 628 298 q 570 229 600 246 q 496 212 541 212 q 401 242 434 212 q 357 318 369 271 q 345 416 345 365 l 345 514 q 381 662 345 610 q 489 713 418 713 q 543 704 519 713 q 583 680 567 695 q 609 646 600 665 q 620 606 618 627 l 895 606 z "},"Ǵ":{"ha":951,"x_min":57,"x_max":895,"o":"m 895 606 q 870 727 895 667 q 797 834 846 786 q 671 912 747 883 q 491 941 595 941 q 252 885 349 941 q 106 734 155 830 q 57 517 57 639 l 57 415 q 81 253 57 330 q 156 115 104 175 q 289 19 207 54 q 488 -16 372 -16 q 676 16 599 -16 q 802 99 754 47 q 872 217 850 151 q 895 350 895 282 l 895 524 l 513 524 l 513 335 l 628 335 l 628 324 q 614 272 628 298 q 570 229 600 246 q 496 212 541 212 q 401 242 434 212 q 357 318 369 271 q 345 416 345 365 l 345 514 q 381 662 345 610 q 489 713 418 713 q 543 704 519 713 q 583 680 567 695 q 609 646 600 665 q 620 606 618 627 l 895 606 m 376 1013 l 557 1013 l 751 1228 l 534 1228 l 376 1013 z "},"Ǧ":{"ha":951,"x_min":57,"x_max":895,"o":"m 895 606 q 870 727 895 667 q 797 834 846 786 q 671 912 747 883 q 491 941 595 941 q 252 885 349 941 q 106 734 155 830 q 57 517 57 639 l 57 415 q 81 253 57 330 q 156 115 104 175 q 289 19 207 54 q 488 -16 372 -16 q 676 16 599 -16 q 802 99 754 47 q 872 217 850 151 q 895 350 895 282 l 895 524 l 513 524 l 513 335 l 628 335 l 628 324 q 614 272 628 298 q 570 229 600 246 q 496 212 541 212 q 401 242 434 212 q 357 318 369 271 q 345 416 345 365 l 345 514 q 381 662 345 610 q 489 713 418 713 q 543 704 519 713 q 583 680 567 695 q 609 646 600 665 q 620 606 618 627 l 895 606 m 205 1177 l 379 1006 l 581 1006 l 746 1177 l 553 1177 l 486 1103 l 470 1103 l 397 1177 l 205 1177 z "},"Ĝ":{"ha":951,"x_min":57,"x_max":895,"o":"m 895 606 q 870 727 895 667 q 797 834 846 786 q 671 912 747 883 q 491 941 595 941 q 252 885 349 941 q 106 734 155 830 q 57 517 57 639 l 57 415 q 81 253 57 330 q 156 115 104 175 q 289 19 207 54 q 488 -16 372 -16 q 676 16 599 -16 q 802 99 754 47 q 872 217 850 151 q 895 350 895 282 l 895 524 l 513 524 l 513 335 l 628 335 l 628 324 q 614 272 628 298 q 570 229 600 246 q 496 212 541 212 q 401 242 434 212 q 357 318 369 271 q 345 416 345 365 l 345 514 q 381 662 345 610 q 489 713 418 713 q 543 704 519 713 q 583 680 567 695 q 609 646 600 665 q 620 606 618 627 l 895 606 m 572 1173 l 381 1173 l 203 1001 l 395 1001 l 472 1075 l 481 1075 l 552 1001 l 744 1001 l 572 1173 z "},"Ğ":{"ha":951,"x_min":57,"x_max":895,"o":"m 895 606 q 870 727 895 667 q 797 834 846 786 q 671 912 747 883 q 491 941 595 941 q 252 885 349 941 q 106 734 155 830 q 57 517 57 639 l 57 415 q 81 253 57 330 q 156 115 104 175 q 289 19 207 54 q 488 -16 372 -16 q 676 16 599 -16 q 802 99 754 47 q 872 217 850 151 q 895 350 895 282 l 895 524 l 513 524 l 513 335 l 628 335 l 628 324 q 614 272 628 298 q 570 229 600 246 q 496 212 541 212 q 401 242 434 212 q 357 318 369 271 q 345 416 345 365 l 345 514 q 381 662 345 610 q 489 713 418 713 q 543 704 519 713 q 583 680 567 695 q 609 646 600 665 q 620 606 618 627 l 895 606 m 231 1209 q 262 1088 231 1138 q 347 1012 292 1038 q 476 985 402 985 q 604 1012 550 985 q 688 1088 659 1038 q 718 1209 718 1139 l 577 1209 q 553 1142 577 1166 q 476 1118 528 1118 q 399 1142 424 1118 q 375 1209 375 1166 l 231 1209 z "},"Ḡ":{"ha":951,"x_min":57,"x_max":895,"o":"m 895 606 q 870 727 895 667 q 797 834 846 786 q 671 912 747 883 q 491 941 595 941 q 252 885 349 941 q 106 734 155 830 q 57 517 57 639 l 57 415 q 81 253 57 330 q 156 115 104 175 q 289 19 207 54 q 488 -16 372 -16 q 676 16 599 -16 q 802 99 754 47 q 872 217 850 151 q 895 350 895 282 l 895 524 l 513 524 l 513 335 l 628 335 l 628 324 q 614 272 628 298 q 570 229 600 246 q 496 212 541 212 q 401 242 434 212 q 357 318 369 271 q 345 416 345 365 l 345 514 q 381 662 345 610 q 489 713 418 713 q 543 704 519 713 q 583 680 567 695 q 609 646 600 665 q 620 606 618 627 l 895 606 m 707 1006 l 707 1120 l 245 1120 l 245 1006 l 707 1006 z "},"Ġ":{"ha":951,"x_min":57,"x_max":895,"o":"m 895 606 q 870 727 895 667 q 797 834 846 786 q 671 912 747 883 q 491 941 595 941 q 252 885 349 941 q 106 734 155 830 q 57 517 57 639 l 57 415 q 81 253 57 330 q 156 115 104 175 q 289 19 207 54 q 488 -16 372 -16 q 676 16 599 -16 q 802 99 754 47 q 872 217 850 151 q 895 350 895 282 l 895 524 l 513 524 l 513 335 l 628 335 l 628 324 q 614 272 628 298 q 570 229 600 246 q 496 212 541 212 q 401 242 434 212 q 357 318 369 271 q 345 416 345 365 l 345 514 q 381 662 345 610 q 489 713 418 713 q 543 704 519 713 q 583 680 567 695 q 609 646 600 665 q 620 606 618 627 l 895 606 m 365 1122 q 397 1043 365 1076 q 476 1010 430 1010 q 555 1043 522 1010 q 587 1122 587 1076 q 555 1200 587 1168 q 476 1233 522 1233 q 397 1200 430 1233 q 365 1122 365 1168 z "},"Ģ":{"ha":951,"x_min":57,"x_max":895,"o":"m 895 606 q 870 727 895 667 q 797 834 846 786 q 671 912 747 883 q 491 941 595 941 q 252 885 349 941 q 106 734 155 830 q 57 517 57 639 l 57 415 q 81 253 57 330 q 156 115 104 175 q 289 19 207 54 q 488 -16 372 -16 q 676 16 599 -16 q 802 99 754 47 q 872 217 850 151 q 895 350 895 282 l 895 524 l 513 524 l 513 335 l 628 335 l 628 324 q 614 272 628 298 q 570 229 600 246 q 496 212 541 212 q 401 242 434 212 q 357 318 369 271 q 345 416 345 365 l 345 514 q 381 662 345 610 q 489 713 418 713 q 543 704 519 713 q 583 680 567 695 q 609 646 600 665 q 620 606 618 627 l 895 606 m 509 -318 l 586 -91 l 398 -91 l 340 -318 l 509 -318 z "},"H":{"ha":1027,"x_min":95,"x_max":932,"o":"m 932 0 l 932 926 l 648 926 l 648 576 l 380 576 l 380 926 l 95 926 l 95 0 l 380 0 l 380 351 l 648 351 l 648 0 l 932 0 z "},"Ḧ":{"ha":1027,"x_min":95,"x_max":932,"o":"m 932 0 l 932 926 l 648 926 l 648 576 l 380 576 l 380 926 l 95 926 l 95 0 l 380 0 l 380 351 l 648 351 l 648 0 l 932 0 m 661 981 q 733 1006 707 981 q 760 1074 760 1032 q 733 1141 760 1115 q 661 1166 707 1166 q 588 1141 614 1166 q 562 1074 562 1115 q 588 1006 562 1032 q 661 981 614 981 m 368 981 q 440 1006 414 981 q 467 1074 467 1032 q 440 1141 467 1115 q 368 1166 414 1166 q 295 1141 321 1166 q 269 1074 269 1115 q 295 1006 269 1032 q 368 981 321 981 z "},"Ȟ":{"ha":1027,"x_min":95,"x_max":932,"o":"m 932 0 l 932 926 l 648 926 l 648 576 l 380 576 l 380 926 l 95 926 l 95 0 l 380 0 l 380 351 l 648 351 l 648 0 l 932 0 m 243 1177 l 417 1006 l 619 1006 l 784 1177 l 591 1177 l 524 1103 l 508 1103 l 435 1177 l 243 1177 z "},"Ĥ":{"ha":1027,"x_min":95,"x_max":932,"o":"m 932 0 l 932 926 l 648 926 l 648 576 l 380 576 l 380 926 l 95 926 l 95 0 l 380 0 l 380 351 l 648 351 l 648 0 l 932 0 m 610 1173 l 419 1173 l 241 1001 l 433 1001 l 510 1075 l 519 1075 l 590 1001 l 782 1001 l 610 1173 z "},"Ḥ":{"ha":1027,"x_min":95,"x_max":932,"o":"m 932 0 l 932 926 l 648 926 l 648 576 l 380 576 l 380 926 l 95 926 l 95 0 l 380 0 l 380 351 l 648 351 l 648 0 l 932 0 m 412 -162 q 443 -234 412 -204 q 514 -264 473 -264 q 586 -234 556 -264 q 616 -162 616 -204 q 586 -90 616 -120 q 514 -60 556 -60 q 443 -90 473 -60 q 412 -162 412 -120 z "},"Ḣ":{"ha":1027,"x_min":95,"x_max":932,"o":"m 932 0 l 932 926 l 648 926 l 648 576 l 380 576 l 380 926 l 95 926 l 95 0 l 380 0 l 380 351 l 648 351 l 648 0 l 932 0 m 403 1122 q 435 1043 403 1076 q 514 1010 468 1010 q 593 1043 560 1010 q 625 1122 625 1076 q 593 1200 625 1168 q 514 1233 560 1233 q 435 1200 468 1233 q 403 1122 403 1168 z "},"Ḫ":{"ha":1027,"x_min":95,"x_max":932,"o":"m 932 0 l 932 926 l 648 926 l 648 576 l 380 576 l 380 926 l 95 926 l 95 0 l 380 0 l 380 351 l 648 351 l 648 0 l 932 0 m 755 -76 l 615 -76 q 591 -153 615 -119 q 514 -187 566 -187 q 437 -153 462 -187 q 413 -76 413 -119 l 269 -76 q 300 -202 269 -147 q 385 -289 330 -257 q 514 -320 440 -320 q 642 -289 588 -320 q 726 -202 696 -257 q 755 -76 755 -146 z "},"Ḩ":{"ha":1027,"x_min":95,"x_max":932,"o":"m 238 0 l 211 -70 l 211 -161 l 250 -161 q 311 -170 300 -161 q 322 -194 322 -180 q 301 -216 322 -212 q 255 -220 280 -220 q 216 -218 235 -220 q 184 -212 197 -216 l 184 -313 q 217 -320 194 -316 q 279 -323 241 -323 q 380 -309 338 -323 q 445 -263 422 -294 q 467 -184 467 -233 q 454 -122 467 -149 q 414 -79 440 -95 q 353 -64 389 -64 l 380 0 l 380 351 l 648 351 l 648 0 l 932 0 l 932 926 l 648 926 l 648 576 l 380 576 l 380 926 l 95 926 l 95 0 l 238 0 z "},"Ħ":{"ha":1027,"x_min":47,"x_max":980,"o":"m 380 576 l 380 670 l 648 670 l 648 576 l 380 576 m 380 351 l 648 351 l 648 0 l 932 0 l 932 670 l 980 670 l 980 825 l 932 825 l 932 926 l 648 926 l 648 825 l 380 825 l 380 926 l 95 926 l 95 825 l 47 825 l 47 670 l 95 670 l 95 0 l 380 0 l 380 351 z "},"I":{"ha":475,"x_min":95,"x_max":380,"o":"m 380 0 l 380 926 l 95 926 l 95 0 l 380 0 z "},"İ":{"ha":475,"x_min":95,"x_max":380,"o":"m 380 0 l 380 926 l 95 926 l 95 0 l 380 0 m 126 1122 q 159 1043 126 1076 q 237 1010 191 1010 q 316 1043 283 1010 q 349 1122 349 1076 q 316 1200 349 1168 q 237 1233 283 1233 q 159 1200 191 1233 q 126 1122 126 1168 z "},"Ì":{"ha":475,"x_min":-38,"x_max":380,"o":"m 380 0 l 380 926 l 95 926 l 95 0 l 380 0 m 338 1013 l 180 1228 l -38 1228 l 156 1013 l 338 1013 z "},"Ȉ":{"ha":475,"x_min":-189,"x_max":500,"o":"m 380 0 l 380 926 l 95 926 l 95 0 l 380 0 m 184 1013 l 27 1228 l -189 1228 l 5 1013 l 184 1013 m 500 1013 l 343 1228 l 127 1228 l 321 1013 l 500 1013 z "},"Í":{"ha":475,"x_min":95,"x_max":513,"o":"m 380 0 l 380 926 l 95 926 l 95 0 l 380 0 m 137 1013 l 319 1013 l 513 1228 l 295 1228 l 137 1013 z "},"Î":{"ha":475,"x_min":-35,"x_max":505,"o":"m 380 0 l 380 926 l 95 926 l 95 0 l 380 0 m 333 1173 l 142 1173 l -35 1001 l 157 1001 l 233 1075 l 242 1075 l 313 1001 l 505 1001 l 333 1173 z "},"Ǐ":{"ha":475,"x_min":-34,"x_max":507,"o":"m 380 0 l 380 926 l 95 926 l 95 0 l 380 0 m -34 1177 l 140 1006 l 342 1006 l 507 1177 l 315 1177 l 247 1103 l 231 1103 l 158 1177 l -34 1177 z "},"Ï":{"ha":475,"x_min":-8,"x_max":483,"o":"m 380 0 l 380 926 l 95 926 l 95 0 l 380 0 m 384 981 q 457 1006 431 981 q 483 1074 483 1032 q 457 1141 483 1115 q 384 1166 431 1166 q 311 1141 337 1166 q 285 1074 285 1115 q 311 1006 285 1032 q 384 981 337 981 m 91 981 q 164 1006 138 981 q 190 1074 190 1032 q 164 1141 190 1115 q 91 1166 138 1166 q 18 1141 44 1166 q -8 1074 -8 1115 q 18 1006 -8 1032 q 91 981 44 981 z "},"Ḯ":{"ha":475,"x_min":-8,"x_max":483,"o":"m 380 0 l 380 926 l 95 926 l 95 0 l 380 0 m 148 1191 l 309 1191 l 463 1319 l 265 1319 l 148 1191 m 384 981 q 457 1006 431 981 q 483 1074 483 1032 q 457 1141 483 1115 q 384 1166 431 1166 q 311 1141 337 1166 q 285 1074 285 1115 q 311 1006 285 1032 q 384 981 337 981 m 91 981 q 164 1006 138 981 q 190 1074 190 1032 q 164 1141 190 1115 q 91 1166 138 1166 q 18 1141 44 1166 q -8 1074 -8 1115 q 18 1006 -8 1032 q 91 981 44 981 z "},"Ĭ":{"ha":475,"x_min":-7,"x_max":479,"o":"m 380 0 l 380 926 l 95 926 l 95 0 l 380 0 m -7 1209 q 23 1088 -7 1138 q 109 1012 54 1038 q 237 985 163 985 q 366 1012 311 985 q 449 1088 420 1038 q 479 1209 479 1139 l 338 1209 q 314 1142 338 1166 q 237 1118 290 1118 q 161 1142 185 1118 q 136 1209 136 1166 l -7 1209 z "},"Ị":{"ha":475,"x_min":95,"x_max":380,"o":"m 380 0 l 380 926 l 95 926 l 95 0 l 380 0 m 136 -162 q 166 -234 136 -204 q 237 -264 196 -264 q 309 -234 279 -264 q 339 -162 339 -204 q 309 -90 339 -120 q 237 -60 279 -60 q 166 -90 196 -60 q 136 -162 136 -120 z "},"Ȋ":{"ha":475,"x_min":-7,"x_max":479,"o":"m 380 0 l 380 926 l 95 926 l 95 0 l 380 0 m -7 991 l 136 991 q 163 1056 136 1034 q 237 1078 190 1078 q 312 1056 285 1078 q 338 991 338 1034 l 479 991 q 448 1111 479 1062 q 362 1186 417 1160 q 237 1211 308 1211 q 112 1186 167 1211 q 24 1111 56 1160 q -7 991 -7 1062 z "},"Ī":{"ha":475,"x_min":7,"x_max":468,"o":"m 380 0 l 380 926 l 95 926 l 95 0 l 380 0 m 468 1006 l 468 1120 l 7 1120 l 7 1006 l 468 1006 z "},"Ḭ":{"ha":475,"x_min":-18,"x_max":509,"o":"m 380 0 l 380 926 l 95 926 l 95 0 l 380 0 m 335 -280 q 425 -256 385 -280 q 487 -189 464 -231 q 509 -91 509 -146 l 372 -91 q 360 -140 372 -124 q 326 -155 347 -155 q 287 -144 305 -155 q 250 -118 269 -132 q 205 -92 231 -103 q 143 -80 180 -80 q 24 -134 67 -80 q -18 -261 -18 -189 l 119 -261 q 127 -226 119 -247 q 161 -205 136 -205 q 195 -216 179 -205 q 229 -242 210 -228 q 273 -269 248 -257 q 335 -280 298 -280 z "},"Ỉ":{"ha":475,"x_min":95,"x_max":380,"o":"m 380 0 l 380 926 l 95 926 l 95 0 l 380 0 m 113 1145 q 141 1151 124 1149 q 170 1153 159 1153 q 218 1143 198 1153 q 237 1109 237 1133 q 224 1076 237 1089 q 192 1056 211 1063 l 264 979 q 313 1011 290 993 q 350 1055 336 1029 q 365 1119 365 1081 q 322 1222 365 1185 q 198 1259 279 1259 q 147 1254 170 1259 q 113 1243 124 1249 l 113 1145 z "},"Ĩ":{"ha":475,"x_min":3,"x_max":492,"o":"m 380 0 l 380 926 l 95 926 l 95 0 l 380 0 m 334 987 q 416 1008 380 987 q 472 1065 452 1028 q 492 1154 492 1103 l 375 1154 q 365 1112 375 1128 q 334 1096 355 1096 q 298 1106 315 1096 q 262 1130 281 1117 q 217 1154 243 1143 q 156 1164 192 1164 q 67 1139 101 1164 q 19 1075 34 1113 q 3 998 3 1036 l 120 998 q 134 1039 121 1022 q 168 1056 146 1056 q 201 1045 186 1056 q 233 1022 216 1035 q 274 998 250 1008 q 334 987 298 987 z "},"Į":{"ha":475,"x_min":90,"x_max":393,"o":"m 393 -248 l 393 -117 q 373 -121 389 -119 q 345 -123 358 -123 q 291 -108 313 -123 q 269 -63 269 -93 q 276 -29 269 -48 q 307 13 283 -9 q 380 57 330 35 l 380 926 l 95 926 l 95 0 q 122 0 109 0 q 149 0 136 0 q 149 -5 149 -3 q 149 -11 149 -8 q 109 -54 128 -26 q 90 -121 90 -81 q 133 -223 90 -178 q 273 -268 176 -268 q 347 -261 313 -268 q 393 -248 381 -254 z "},"J":{"ha":859,"x_min":35,"x_max":774,"o":"m 35 345 q 56 214 35 278 q 120 98 76 150 q 234 15 163 46 q 404 -16 304 -16 q 675 72 576 -16 q 774 336 774 159 l 774 926 l 489 926 l 489 341 q 470 262 489 290 q 401 233 450 233 q 350 247 371 233 q 318 285 329 260 q 307 345 307 310 l 35 345 z "},"Ĵ":{"ha":859,"x_min":35,"x_max":901,"o":"m 35 345 q 56 214 35 278 q 120 98 76 150 q 234 15 163 46 q 404 -16 304 -16 q 675 72 576 -16 q 774 336 774 159 l 774 926 l 489 926 l 489 341 q 470 262 489 290 q 401 233 450 233 q 350 247 371 233 q 318 285 329 260 q 307 345 307 310 l 35 345 m 729 1173 l 538 1173 l 361 1001 l 553 1001 l 629 1075 l 638 1075 l 709 1001 l 901 1001 l 729 1173 z "},"K":{"ha":964,"x_min":95,"x_max":967,"o":"m 959 926 l 662 926 l 393 563 l 380 563 l 380 926 l 95 926 l 95 0 l 380 0 l 380 253 l 444 334 l 637 0 l 967 0 l 652 520 l 959 926 z "},"Ḱ":{"ha":964,"x_min":95,"x_max":967,"o":"m 959 926 l 662 926 l 393 563 l 380 563 l 380 926 l 95 926 l 95 0 l 380 0 l 380 253 l 444 334 l 637 0 l 967 0 l 652 520 l 959 926 m 382 1013 l 564 1013 l 758 1228 l 540 1228 l 382 1013 z "},"Ǩ":{"ha":964,"x_min":95,"x_max":967,"o":"m 959 926 l 662 926 l 393 563 l 380 563 l 380 926 l 95 926 l 95 0 l 380 0 l 380 253 l 444 334 l 637 0 l 967 0 l 652 520 l 959 926 m 211 1177 l 385 1006 l 587 1006 l 752 1177 l 559 1177 l 492 1103 l 476 1103 l 403 1177 l 211 1177 z "},"Ḳ":{"ha":964,"x_min":95,"x_max":967,"o":"m 959 926 l 662 926 l 393 563 l 380 563 l 380 926 l 95 926 l 95 0 l 380 0 l 380 253 l 444 334 l 637 0 l 967 0 l 652 520 l 959 926 m 380 -162 q 411 -234 380 -204 q 482 -264 441 -264 q 554 -234 524 -264 q 584 -162 584 -204 q 554 -90 584 -120 q 482 -60 524 -60 q 411 -90 441 -60 q 380 -162 380 -120 z "},"Ḵ":{"ha":964,"x_min":95,"x_max":967,"o":"m 959 926 l 662 926 l 393 563 l 380 563 l 380 926 l 95 926 l 95 0 l 380 0 l 380 253 l 444 334 l 637 0 l 967 0 l 652 520 l 959 926 z "},"Ķ":{"ha":964,"x_min":95,"x_max":967,"o":"m 959 926 l 662 926 l 393 563 l 380 563 l 380 926 l 95 926 l 95 0 l 380 0 l 380 253 l 444 334 l 637 0 l 967 0 l 652 520 l 959 926 m 515 -318 l 592 -91 l 404 -91 l 347 -318 l 515 -318 z "},"L":{"ha":756,"x_min":95,"x_max":720,"o":"m 720 233 l 380 233 l 380 926 l 95 926 l 95 0 l 720 0 l 720 233 z "},"Ĺ":{"ha":756,"x_min":95,"x_max":720,"o":"m 720 233 l 380 233 l 380 926 l 95 926 l 95 0 l 720 0 l 720 233 m 137 1013 l 319 1013 l 513 1228 l 295 1228 l 137 1013 z "},"Ḽ":{"ha":756,"x_min":95,"x_max":720,"o":"m 720 233 l 380 233 l 380 926 l 95 926 l 95 0 l 720 0 l 720 233 m 111 -241 l 304 -241 l 376 -168 l 387 -168 l 460 -241 l 652 -241 l 478 -70 l 286 -70 l 111 -241 z "},"Ḷ":{"ha":756,"x_min":95,"x_max":720,"o":"m 720 233 l 380 233 l 380 926 l 95 926 l 95 0 l 720 0 l 720 233 m 280 -162 q 310 -234 280 -204 q 382 -264 340 -264 q 454 -234 424 -264 q 484 -162 484 -204 q 454 -90 484 -120 q 382 -60 424 -60 q 310 -90 340 -60 q 280 -162 280 -120 z "},"Ḹ":{"ha":756,"x_min":7,"x_max":720,"o":"m 720 233 l 380 233 l 380 926 l 95 926 l 95 0 l 720 0 l 720 233 m 280 -162 q 310 -234 280 -204 q 382 -264 340 -264 q 454 -234 424 -264 q 484 -162 484 -204 q 454 -90 484 -120 q 382 -60 424 -60 q 310 -90 340 -60 q 280 -162 280 -120 m 468 1006 l 468 1120 l 7 1120 l 7 1006 l 468 1006 z "},"Ḻ":{"ha":756,"x_min":95,"x_max":720,"o":"m 720 233 l 380 233 l 380 926 l 95 926 l 95 0 l 720 0 l 720 233 z "},"Ļ":{"ha":756,"x_min":95,"x_max":720,"o":"m 720 233 l 380 233 l 380 926 l 95 926 l 95 0 l 720 0 l 720 233 m 414 -318 l 492 -91 l 304 -91 l 246 -318 l 414 -318 z "},"Ľ":{"ha":756,"x_min":95,"x_max":720,"o":"m 495 973 l 495 642 l 666 642 l 700 973 l 495 973 m 720 233 l 380 233 l 380 926 l 95 926 l 95 0 l 720 0 l 720 233 z "},"Ł":{"ha":787,"x_min":53,"x_max":750,"o":"m 750 0 l 750 233 l 410 233 l 410 479 l 566 566 l 566 788 l 410 701 l 410 926 l 125 926 l 125 544 l 53 504 l 53 283 l 125 323 l 125 0 l 750 0 z "},"M":{"ha":1189,"x_min":95,"x_max":1094,"o":"m 347 0 l 347 516 l 360 516 l 519 176 l 668 176 l 825 516 l 838 516 l 838 0 l 1094 0 l 1094 926 l 799 926 l 600 513 l 591 513 l 393 926 l 95 926 l 95 0 l 347 0 z "},"Ḿ":{"ha":1189,"x_min":95,"x_max":1094,"o":"m 347 0 l 347 516 l 360 516 l 519 176 l 668 176 l 825 516 l 838 516 l 838 0 l 1094 0 l 1094 926 l 799 926 l 600 513 l 591 513 l 393 926 l 95 926 l 95 0 l 347 0 m 494 1013 l 676 1013 l 870 1228 l 652 1228 l 494 1013 z "},"Ṁ":{"ha":1189,"x_min":95,"x_max":1094,"o":"m 347 0 l 347 516 l 360 516 l 519 176 l 668 176 l 825 516 l 838 516 l 838 0 l 1094 0 l 1094 926 l 799 926 l 600 513 l 591 513 l 393 926 l 95 926 l 95 0 l 347 0 m 484 1122 q 516 1043 484 1076 q 595 1010 549 1010 q 673 1043 641 1010 q 706 1122 706 1076 q 673 1200 706 1168 q 595 1233 641 1233 q 516 1200 549 1233 q 484 1122 484 1168 z "},"Ṃ":{"ha":1189,"x_min":95,"x_max":1094,"o":"m 347 0 l 347 516 l 360 516 l 519 176 l 668 176 l 825 516 l 838 516 l 838 0 l 1094 0 l 1094 926 l 799 926 l 600 513 l 591 513 l 393 926 l 95 926 l 95 0 l 347 0 m 493 -162 q 523 -234 493 -204 q 595 -264 553 -264 q 667 -234 637 -264 q 696 -162 696 -204 q 667 -90 696 -120 q 595 -60 637 -60 q 523 -90 553 -60 q 493 -162 493 -120 z "},"N":{"ha":991,"x_min":95,"x_max":896,"o":"m 356 0 l 356 456 l 367 456 l 684 0 l 896 0 l 896 926 l 635 926 l 635 478 l 624 478 l 309 926 l 95 926 l 95 0 l 356 0 z "},"Ǹ":{"ha":991,"x_min":95,"x_max":896,"o":"m 356 0 l 356 456 l 367 456 l 684 0 l 896 0 l 896 926 l 635 926 l 635 478 l 624 478 l 309 926 l 95 926 l 95 0 l 356 0 m 596 1013 l 438 1228 l 220 1228 l 414 1013 l 596 1013 z "},"Ń":{"ha":991,"x_min":95,"x_max":896,"o":"m 356 0 l 356 456 l 367 456 l 684 0 l 896 0 l 896 926 l 635 926 l 635 478 l 624 478 l 309 926 l 95 926 l 95 0 l 356 0 m 395 1013 l 577 1013 l 771 1228 l 553 1228 l 395 1013 z "},"Ñ":{"ha":991,"x_min":95,"x_max":896,"o":"m 356 0 l 356 456 l 367 456 l 684 0 l 896 0 l 896 926 l 635 926 l 635 478 l 624 478 l 309 926 l 95 926 l 95 0 l 356 0 m 592 987 q 674 1008 639 987 q 730 1065 710 1028 q 750 1154 750 1103 l 633 1154 q 624 1112 633 1128 q 592 1096 614 1096 q 556 1106 573 1096 q 520 1130 539 1117 q 476 1154 501 1143 q 414 1164 450 1164 q 326 1139 359 1164 q 277 1075 292 1113 q 262 998 262 1036 l 378 998 q 392 1039 380 1022 q 426 1056 404 1056 q 459 1045 444 1056 q 491 1022 474 1035 q 532 998 509 1008 q 592 987 556 987 z "},"Ṇ":{"ha":991,"x_min":95,"x_max":896,"o":"m 356 0 l 356 456 l 367 456 l 684 0 l 896 0 l 896 926 l 635 926 l 635 478 l 624 478 l 309 926 l 95 926 l 95 0 l 356 0 m 394 -162 q 424 -234 394 -204 q 496 -264 454 -264 q 568 -234 538 -264 q 597 -162 597 -204 q 568 -90 597 -120 q 496 -60 538 -60 q 424 -90 454 -60 q 394 -162 394 -120 z "},"Ṅ":{"ha":991,"x_min":95,"x_max":896,"o":"m 356 0 l 356 456 l 367 456 l 684 0 l 896 0 l 896 926 l 635 926 l 635 478 l 624 478 l 309 926 l 95 926 l 95 0 l 356 0 m 385 1122 q 417 1043 385 1076 q 496 1010 450 1010 q 574 1043 542 1010 q 607 1122 607 1076 q 574 1200 607 1168 q 496 1233 542 1233 q 417 1200 450 1233 q 385 1122 385 1168 z "},"Ň":{"ha":991,"x_min":95,"x_max":896,"o":"m 356 0 l 356 456 l 367 456 l 684 0 l 896 0 l 896 926 l 635 926 l 635 478 l 624 478 l 309 926 l 95 926 l 95 0 l 356 0 m 224 1177 l 399 1006 l 601 1006 l 766 1177 l 573 1177 l 505 1103 l 490 1103 l 416 1177 l 224 1177 z "},"Ṋ":{"ha":991,"x_min":95,"x_max":896,"o":"m 356 0 l 356 456 l 367 456 l 684 0 l 896 0 l 896 926 l 635 926 l 635 478 l 624 478 l 309 926 l 95 926 l 95 0 l 356 0 m 225 -241 l 418 -241 l 490 -168 l 501 -168 l 574 -241 l 766 -241 l 592 -70 l 399 -70 l 225 -241 z "},"Ṉ":{"ha":991,"x_min":95,"x_max":896,"o":"m 356 0 l 356 456 l 367 456 l 684 0 l 896 0 l 896 926 l 635 926 l 635 478 l 624 478 l 309 926 l 95 926 l 95 0 l 356 0 z "},"Ņ":{"ha":991,"x_min":95,"x_max":896,"o":"m 356 0 l 356 456 l 367 456 l 684 0 l 896 0 l 896 926 l 635 926 l 635 478 l 624 478 l 309 926 l 95 926 l 95 0 l 356 0 m 528 -318 l 606 -91 l 418 -91 l 360 -318 l 528 -318 z "},"O":{"ha":988,"x_min":57,"x_max":931,"o":"m 640 511 l 640 414 q 622 302 640 348 q 572 233 604 256 q 494 210 540 210 q 416 233 449 210 q 366 302 384 256 q 349 414 349 348 l 349 511 q 366 623 349 577 q 416 691 384 668 q 494 715 449 715 q 572 691 540 715 q 622 623 604 668 q 640 511 640 577 m 931 416 l 931 507 q 881 735 931 637 q 733 886 831 832 q 494 941 636 941 q 256 887 353 941 q 107 736 158 833 q 57 507 57 638 l 57 416 q 107 189 57 286 q 256 38 158 92 q 494 -16 353 -16 q 733 38 636 -16 q 881 189 831 92 q 931 416 931 286 z "},"Ö":{"ha":988,"x_min":57,"x_max":931,"o":"m 640 511 l 640 414 q 622 302 640 348 q 572 233 604 256 q 494 210 540 210 q 416 233 449 210 q 366 302 384 256 q 349 414 349 348 l 349 511 q 366 623 349 577 q 416 691 384 668 q 494 715 449 715 q 572 691 540 715 q 622 623 604 668 q 640 511 640 577 m 931 416 l 931 507 q 881 735 931 637 q 733 886 831 832 q 494 941 636 941 q 256 887 353 941 q 107 736 158 833 q 57 507 57 638 l 57 416 q 107 189 57 286 q 256 38 158 92 q 494 -16 353 -16 q 733 38 636 -16 q 881 189 831 92 q 931 416 931 286 m 641 981 q 714 1006 688 981 q 740 1074 740 1032 q 714 1141 740 1115 q 641 1166 688 1166 q 568 1141 594 1166 q 542 1074 542 1115 q 568 1006 542 1032 q 641 981 594 981 m 348 981 q 421 1006 395 981 q 447 1074 447 1032 q 421 1141 447 1115 q 348 1166 395 1166 q 275 1141 301 1166 q 249 1074 249 1115 q 275 1006 249 1032 q 348 981 301 981 z "},"Ø":{"ha":988,"x_min":57,"x_max":931,"o":"m 494 -16 q 733 38 636 -16 q 881 189 831 92 q 931 416 931 286 l 931 507 q 848 787 931 677 l 908 861 l 798 943 l 746 879 q 633 925 696 909 q 494 941 570 941 q 256 887 353 941 q 107 736 158 833 q 57 507 57 638 l 57 416 q 78 263 57 333 q 139 138 98 193 l 70 54 l 177 -33 l 242 46 q 355 0 292 16 q 494 -16 418 -16 m 339 410 l 339 511 q 357 627 339 580 q 410 698 376 674 q 493 722 445 722 q 546 714 522 722 q 589 688 570 705 l 340 382 q 339 396 339 387 q 339 410 339 406 m 493 199 q 439 208 464 199 q 396 235 415 217 l 647 542 q 648 527 648 536 q 648 511 648 517 l 648 410 q 629 294 648 341 q 576 223 610 248 q 493 199 541 199 z "},"Õ":{"ha":988,"x_min":57,"x_max":931,"o":"m 640 511 l 640 414 q 622 302 640 348 q 572 233 604 256 q 494 210 540 210 q 416 233 449 210 q 366 302 384 256 q 349 414 349 348 l 349 511 q 366 623 349 577 q 416 691 384 668 q 494 715 449 715 q 572 691 540 715 q 622 623 604 668 q 640 511 640 577 m 931 416 l 931 507 q 881 735 931 637 q 733 886 831 832 q 494 941 636 941 q 256 887 353 941 q 107 736 158 833 q 57 507 57 638 l 57 416 q 107 189 57 286 q 256 38 158 92 q 494 -16 353 -16 q 733 38 636 -16 q 881 189 831 92 q 931 416 931 286 m 591 987 q 673 1008 637 987 q 729 1065 709 1028 q 749 1154 749 1103 l 632 1154 q 622 1112 632 1128 q 591 1096 612 1096 q 555 1106 572 1096 q 519 1130 538 1117 q 474 1154 500 1143 q 413 1164 449 1164 q 325 1139 358 1164 q 276 1075 291 1113 q 260 998 260 1036 l 377 998 q 391 1039 378 1022 q 425 1056 403 1056 q 458 1045 443 1056 q 490 1022 473 1035 q 531 998 507 1008 q 591 987 555 987 z "},"Ó":{"ha":988,"x_min":57,"x_max":931,"o":"m 640 511 l 640 414 q 622 302 640 348 q 572 233 604 256 q 494 210 540 210 q 416 233 449 210 q 366 302 384 256 q 349 414 349 348 l 349 511 q 366 623 349 577 q 416 691 384 668 q 494 715 449 715 q 572 691 540 715 q 622 623 604 668 q 640 511 640 577 m 931 416 l 931 507 q 881 735 931 637 q 733 886 831 832 q 494 941 636 941 q 256 887 353 941 q 107 736 158 833 q 57 507 57 638 l 57 416 q 107 189 57 286 q 256 38 158 92 q 494 -16 353 -16 q 733 38 636 -16 q 881 189 831 92 q 931 416 931 286 m 394 1013 l 576 1013 l 770 1228 l 552 1228 l 394 1013 z "},"Ô":{"ha":988,"x_min":57,"x_max":931,"o":"m 640 511 l 640 414 q 622 302 640 348 q 572 233 604 256 q 494 210 540 210 q 416 233 449 210 q 366 302 384 256 q 349 414 349 348 l 349 511 q 366 623 349 577 q 416 691 384 668 q 494 715 449 715 q 572 691 540 715 q 622 623 604 668 q 640 511 640 577 m 931 416 l 931 507 q 881 735 931 637 q 733 886 831 832 q 494 941 636 941 q 256 887 353 941 q 107 736 158 833 q 57 507 57 638 l 57 416 q 107 189 57 286 q 256 38 158 92 q 494 -16 353 -16 q 733 38 636 -16 q 881 189 831 92 q 931 416 931 286 m 590 1173 l 399 1173 l 222 1001 l 414 1001 l 490 1075 l 499 1075 l 570 1001 l 762 1001 l 590 1173 z "},"Ò":{"ha":988,"x_min":57,"x_max":931,"o":"m 640 511 l 640 414 q 622 302 640 348 q 572 233 604 256 q 494 210 540 210 q 416 233 449 210 q 366 302 384 256 q 349 414 349 348 l 349 511 q 366 623 349 577 q 416 691 384 668 q 494 715 449 715 q 572 691 540 715 q 622 623 604 668 q 640 511 640 577 m 931 416 l 931 507 q 881 735 931 637 q 733 886 831 832 q 494 941 636 941 q 256 887 353 941 q 107 736 158 833 q 57 507 57 638 l 57 416 q 107 189 57 286 q 256 38 158 92 q 494 -16 353 -16 q 733 38 636 -16 q 881 189 831 92 q 931 416 931 286 m 595 1013 l 437 1228 l 219 1228 l 413 1013 l 595 1013 z "},"Ổ":{"ha":988,"x_min":57,"x_max":931,"o":"m 640 511 l 640 414 q 622 302 640 348 q 572 233 604 256 q 494 210 540 210 q 416 233 449 210 q 366 302 384 256 q 349 414 349 348 l 349 511 q 366 623 349 577 q 416 691 384 668 q 494 715 449 715 q 572 691 540 715 q 622 623 604 668 q 640 511 640 577 m 931 416 l 931 507 q 881 735 931 637 q 733 886 831 832 q 494 941 636 941 q 256 887 353 941 q 107 736 158 833 q 57 507 57 638 l 57 416 q 107 189 57 286 q 256 38 158 92 q 494 -16 353 -16 q 733 38 636 -16 q 881 189 831 92 q 931 416 931 286 m 224 1013 l 416 1013 l 489 1086 l 500 1086 l 572 1013 l 765 1013 l 591 1184 l 398 1184 l 224 1013 m 635 1238 q 650 1240 642 1239 q 672 1241 657 1241 q 710 1229 696 1241 q 725 1197 725 1217 q 719 1175 725 1184 q 699 1156 713 1166 l 758 1096 q 810 1141 785 1112 q 836 1211 836 1170 q 795 1296 836 1274 q 699 1319 755 1319 q 660 1317 678 1319 q 635 1312 642 1314 l 635 1238 z "},"Ồ":{"ha":988,"x_min":57,"x_max":931,"o":"m 640 511 l 640 414 q 622 302 640 348 q 572 233 604 256 q 494 210 540 210 q 416 233 449 210 q 366 302 384 256 q 349 414 349 348 l 349 511 q 366 623 349 577 q 416 691 384 668 q 494 715 449 715 q 572 691 540 715 q 622 623 604 668 q 640 511 640 577 m 931 416 l 931 507 q 881 735 931 637 q 733 886 831 832 q 494 941 636 941 q 256 887 353 941 q 107 736 158 833 q 57 507 57 638 l 57 416 q 107 189 57 286 q 256 38 158 92 q 494 -16 353 -16 q 733 38 636 -16 q 881 189 831 92 q 931 416 931 286 m 224 1013 l 416 1013 l 489 1086 l 500 1086 l 572 1013 l 765 1013 l 591 1184 l 398 1184 l 224 1013 m 903 1124 l 745 1297 l 577 1297 l 743 1124 l 903 1124 z "},"Ọ":{"ha":988,"x_min":57,"x_max":931,"o":"m 640 511 l 640 414 q 622 302 640 348 q 572 233 604 256 q 494 210 540 210 q 416 233 449 210 q 366 302 384 256 q 349 414 349 348 l 349 511 q 366 623 349 577 q 416 691 384 668 q 494 715 449 715 q 572 691 540 715 q 622 623 604 668 q 640 511 640 577 m 931 416 l 931 507 q 881 735 931 637 q 733 886 831 832 q 494 941 636 941 q 256 887 353 941 q 107 736 158 833 q 57 507 57 638 l 57 416 q 107 189 57 286 q 256 38 158 92 q 494 -16 353 -16 q 733 38 636 -16 q 881 189 831 92 q 931 416 931 286 m 393 -162 q 423 -234 393 -204 q 494 -264 453 -264 q 566 -234 536 -264 q 596 -162 596 -204 q 566 -90 596 -120 q 494 -60 536 -60 q 423 -90 453 -60 q 393 -162 393 -120 z "},"Ȍ":{"ha":988,"x_min":57,"x_max":931,"o":"m 640 511 l 640 414 q 622 302 640 348 q 572 233 604 256 q 494 210 540 210 q 416 233 449 210 q 366 302 384 256 q 349 414 349 348 l 349 511 q 366 623 349 577 q 416 691 384 668 q 494 715 449 715 q 572 691 540 715 q 622 623 604 668 q 640 511 640 577 m 931 416 l 931 507 q 881 735 931 637 q 733 886 831 832 q 494 941 636 941 q 256 887 353 941 q 107 736 158 833 q 57 507 57 638 l 57 416 q 107 189 57 286 q 256 38 158 92 q 494 -16 353 -16 q 733 38 636 -16 q 881 189 831 92 q 931 416 931 286 m 441 1013 l 284 1228 l 68 1228 l 262 1013 l 441 1013 m 758 1013 l 600 1228 l 385 1228 l 578 1013 l 758 1013 z "},"Ṍ":{"ha":988,"x_min":57,"x_max":931,"o":"m 640 511 l 640 414 q 622 302 640 348 q 572 233 604 256 q 494 210 540 210 q 416 233 449 210 q 366 302 384 256 q 349 414 349 348 l 349 511 q 366 623 349 577 q 416 691 384 668 q 494 715 449 715 q 572 691 540 715 q 622 623 604 668 q 640 511 640 577 m 931 416 l 931 507 q 881 735 931 637 q 733 886 831 832 q 494 941 636 941 q 256 887 353 941 q 107 736 158 833 q 57 507 57 638 l 57 416 q 107 189 57 286 q 256 38 158 92 q 494 -16 353 -16 q 733 38 636 -16 q 881 189 831 92 q 931 416 931 286 m 418 1191 l 566 1191 l 720 1319 l 536 1319 l 418 1191 m 591 987 q 673 1008 637 987 q 729 1065 709 1028 q 749 1154 749 1103 l 632 1154 q 622 1112 632 1128 q 591 1096 612 1096 q 555 1106 572 1096 q 519 1130 538 1117 q 474 1154 500 1143 q 413 1164 449 1164 q 325 1139 358 1164 q 276 1075 291 1113 q 260 998 260 1036 l 377 998 q 391 1039 378 1022 q 425 1056 403 1056 q 458 1045 443 1056 q 490 1022 473 1035 q 531 998 507 1008 q 591 987 555 987 z "},"Ṓ":{"ha":988,"x_min":57,"x_max":931,"o":"m 640 511 l 640 414 q 622 302 640 348 q 572 233 604 256 q 494 210 540 210 q 416 233 449 210 q 366 302 384 256 q 349 414 349 348 l 349 511 q 366 623 349 577 q 416 691 384 668 q 494 715 449 715 q 572 691 540 715 q 622 623 604 668 q 640 511 640 577 m 931 416 l 931 507 q 881 735 931 637 q 733 886 831 832 q 494 941 636 941 q 256 887 353 941 q 107 736 158 833 q 57 507 57 638 l 57 416 q 107 189 57 286 q 256 38 158 92 q 494 -16 353 -16 q 733 38 636 -16 q 881 189 831 92 q 931 416 931 286 m 405 1191 l 566 1191 l 720 1319 l 522 1319 l 405 1191 m 725 1006 l 725 1120 l 264 1120 l 264 1006 l 725 1006 z "},"Ỗ":{"ha":988,"x_min":57,"x_max":931,"o":"m 640 511 l 640 414 q 622 302 640 348 q 572 233 604 256 q 494 210 540 210 q 416 233 449 210 q 366 302 384 256 q 349 414 349 348 l 349 511 q 366 623 349 577 q 416 691 384 668 q 494 715 449 715 q 572 691 540 715 q 622 623 604 668 q 640 511 640 577 m 931 416 l 931 507 q 881 735 931 637 q 733 886 831 832 q 494 941 636 941 q 256 887 353 941 q 107 736 158 833 q 57 507 57 638 l 57 416 q 107 189 57 286 q 256 38 158 92 q 494 -16 353 -16 q 733 38 636 -16 q 881 189 831 92 q 931 416 931 286 m 257 1013 l 430 1013 l 493 1076 l 496 1076 l 559 1013 l 732 1013 l 577 1141 l 412 1141 l 257 1013 m 406 1182 q 409 1197 406 1189 q 418 1212 411 1206 q 437 1219 425 1219 q 459 1211 448 1219 q 485 1192 471 1202 q 520 1173 500 1181 q 568 1164 540 1164 q 635 1182 606 1164 q 681 1233 664 1200 q 697 1308 697 1265 l 594 1308 q 587 1271 594 1280 q 559 1261 579 1261 q 533 1269 546 1261 q 505 1288 520 1277 q 469 1307 489 1299 q 420 1315 448 1315 q 335 1275 367 1315 q 304 1182 304 1235 l 406 1182 z "},"Ȱ":{"ha":988,"x_min":57,"x_max":931,"o":"m 640 511 l 640 414 q 622 302 640 348 q 572 233 604 256 q 494 210 540 210 q 416 233 449 210 q 366 302 384 256 q 349 414 349 348 l 349 511 q 366 623 349 577 q 416 691 384 668 q 494 715 449 715 q 572 691 540 715 q 622 623 604 668 q 640 511 640 577 m 931 416 l 931 507 q 881 735 931 637 q 733 886 831 832 q 494 941 636 941 q 256 887 353 941 q 107 736 158 833 q 57 507 57 638 l 57 416 q 107 189 57 286 q 256 38 158 92 q 494 -16 353 -16 q 733 38 636 -16 q 881 189 831 92 q 931 416 931 286 m 393 1057 q 422 988 393 1015 q 494 960 452 960 q 567 988 537 960 q 596 1057 596 1015 q 567 1128 596 1099 q 494 1156 537 1156 q 422 1128 452 1156 q 393 1057 393 1099 m 725 1198 l 725 1312 l 264 1312 l 264 1198 l 725 1198 z "},"Ṑ":{"ha":988,"x_min":57,"x_max":931,"o":"m 640 511 l 640 414 q 622 302 640 348 q 572 233 604 256 q 494 210 540 210 q 416 233 449 210 q 366 302 384 256 q 349 414 349 348 l 349 511 q 366 623 349 577 q 416 691 384 668 q 494 715 449 715 q 572 691 540 715 q 622 623 604 668 q 640 511 640 577 m 931 416 l 931 507 q 881 735 931 637 q 733 886 831 832 q 494 941 636 941 q 256 887 353 941 q 107 736 158 833 q 57 507 57 638 l 57 416 q 107 189 57 286 q 256 38 158 92 q 494 -16 353 -16 q 733 38 636 -16 q 881 189 831 92 q 931 416 931 286 m 584 1191 l 467 1319 l 269 1319 l 422 1191 l 584 1191 m 725 1006 l 725 1120 l 264 1120 l 264 1006 l 725 1006 z "},"Ǒ":{"ha":988,"x_min":57,"x_max":931,"o":"m 640 511 l 640 414 q 622 302 640 348 q 572 233 604 256 q 494 210 540 210 q 416 233 449 210 q 366 302 384 256 q 349 414 349 348 l 349 511 q 366 623 349 577 q 416 691 384 668 q 494 715 449 715 q 572 691 540 715 q 622 623 604 668 q 640 511 640 577 m 931 416 l 931 507 q 881 735 931 637 q 733 886 831 832 q 494 941 636 941 q 256 887 353 941 q 107 736 158 833 q 57 507 57 638 l 57 416 q 107 189 57 286 q 256 38 158 92 q 494 -16 353 -16 q 733 38 636 -16 q 881 189 831 92 q 931 416 931 286 m 223 1177 l 397 1006 l 600 1006 l 764 1177 l 572 1177 l 504 1103 l 488 1103 l 415 1177 l 223 1177 z "},"Ǿ":{"ha":988,"x_min":57,"x_max":931,"o":"m 494 -16 q 733 38 636 -16 q 881 189 831 92 q 931 416 931 286 l 931 507 q 848 787 931 677 l 908 861 l 798 943 l 746 879 q 633 925 696 909 q 494 941 570 941 q 256 887 353 941 q 107 736 158 833 q 57 507 57 638 l 57 416 q 78 263 57 333 q 139 138 98 193 l 70 54 l 177 -33 l 242 46 q 355 0 292 16 q 494 -16 418 -16 m 339 410 l 339 511 q 357 627 339 580 q 410 698 376 674 q 493 722 445 722 q 546 714 522 722 q 589 688 570 705 l 340 382 q 339 396 339 387 q 339 410 339 406 m 493 199 q 439 208 464 199 q 396 235 415 217 l 647 542 q 648 527 648 536 q 648 511 648 517 l 648 410 q 629 294 648 341 q 576 223 610 248 q 493 199 541 199 m 394 1013 l 576 1013 l 770 1228 l 552 1228 l 394 1013 z "},"Ő":{"ha":988,"x_min":57,"x_max":931,"o":"m 640 511 l 640 414 q 622 302 640 348 q 572 233 604 256 q 494 210 540 210 q 416 233 449 210 q 366 302 384 256 q 349 414 349 348 l 349 511 q 366 623 349 577 q 416 691 384 668 q 494 715 449 715 q 572 691 540 715 q 622 623 604 668 q 640 511 640 577 m 931 416 l 931 507 q 881 735 931 637 q 733 886 831 832 q 494 941 636 941 q 256 887 353 941 q 107 736 158 833 q 57 507 57 638 l 57 416 q 107 189 57 286 q 256 38 158 92 q 494 -16 353 -16 q 733 38 636 -16 q 881 189 831 92 q 931 416 931 286 m 234 1013 l 413 1013 l 607 1228 l 391 1228 l 234 1013 m 550 1013 l 729 1013 l 923 1228 l 707 1228 l 550 1013 z "},"Ŏ":{"ha":988,"x_min":57,"x_max":931,"o":"m 640 511 l 640 414 q 622 302 640 348 q 572 233 604 256 q 494 210 540 210 q 416 233 449 210 q 366 302 384 256 q 349 414 349 348 l 349 511 q 366 623 349 577 q 416 691 384 668 q 494 715 449 715 q 572 691 540 715 q 622 623 604 668 q 640 511 640 577 m 931 416 l 931 507 q 881 735 931 637 q 733 886 831 832 q 494 941 636 941 q 256 887 353 941 q 107 736 158 833 q 57 507 57 638 l 57 416 q 107 189 57 286 q 256 38 158 92 q 494 -16 353 -16 q 733 38 636 -16 q 881 189 831 92 q 931 416 931 286 m 250 1209 q 280 1088 250 1138 q 366 1012 311 1038 q 494 985 420 985 q 623 1012 568 985 q 706 1088 677 1038 q 736 1209 736 1139 l 595 1209 q 571 1142 595 1166 q 494 1118 547 1118 q 418 1142 442 1118 q 393 1209 393 1166 l 250 1209 z "},"Ȏ":{"ha":988,"x_min":57,"x_max":931,"o":"m 640 511 l 640 414 q 622 302 640 348 q 572 233 604 256 q 494 210 540 210 q 416 233 449 210 q 366 302 384 256 q 349 414 349 348 l 349 511 q 366 623 349 577 q 416 691 384 668 q 494 715 449 715 q 572 691 540 715 q 622 623 604 668 q 640 511 640 577 m 931 416 l 931 507 q 881 735 931 637 q 733 886 831 832 q 494 941 636 941 q 256 887 353 941 q 107 736 158 833 q 57 507 57 638 l 57 416 q 107 189 57 286 q 256 38 158 92 q 494 -16 353 -16 q 733 38 636 -16 q 881 189 831 92 q 931 416 931 286 m 250 991 l 393 991 q 420 1056 393 1034 q 494 1078 447 1078 q 569 1056 542 1078 q 595 991 595 1034 l 736 991 q 705 1111 736 1062 q 620 1186 674 1160 q 494 1211 565 1211 q 369 1186 424 1211 q 281 1111 313 1160 q 250 991 250 1062 z "},"Ỏ":{"ha":988,"x_min":57,"x_max":931,"o":"m 640 511 l 640 414 q 622 302 640 348 q 572 233 604 256 q 494 210 540 210 q 416 233 449 210 q 366 302 384 256 q 349 414 349 348 l 349 511 q 366 623 349 577 q 416 691 384 668 q 494 715 449 715 q 572 691 540 715 q 622 623 604 668 q 640 511 640 577 m 931 416 l 931 507 q 881 735 931 637 q 733 886 831 832 q 494 941 636 941 q 256 887 353 941 q 107 736 158 833 q 57 507 57 638 l 57 416 q 107 189 57 286 q 256 38 158 92 q 494 -16 353 -16 q 733 38 636 -16 q 881 189 831 92 q 931 416 931 286 m 370 1145 q 398 1151 381 1149 q 427 1153 416 1153 q 475 1143 455 1153 q 494 1109 494 1133 q 481 1076 494 1089 q 449 1056 468 1063 l 522 979 q 570 1011 547 993 q 607 1055 593 1029 q 622 1119 622 1081 q 579 1222 622 1185 q 455 1259 536 1259 q 404 1254 427 1259 q 370 1243 381 1249 l 370 1145 z "},"Ȫ":{"ha":988,"x_min":57,"x_max":931,"o":"m 640 511 l 640 414 q 622 302 640 348 q 572 233 604 256 q 494 210 540 210 q 416 233 449 210 q 366 302 384 256 q 349 414 349 348 l 349 511 q 366 623 349 577 q 416 691 384 668 q 494 715 449 715 q 572 691 540 715 q 622 623 604 668 q 640 511 640 577 m 931 416 l 931 507 q 881 735 931 637 q 733 886 831 832 q 494 941 636 941 q 256 887 353 941 q 107 736 158 833 q 57 507 57 638 l 57 416 q 107 189 57 286 q 256 38 158 92 q 494 -16 353 -16 q 733 38 636 -16 q 881 189 831 92 q 931 416 931 286 z "},"Ȭ":{"ha":988,"x_min":57,"x_max":931,"o":"m 640 511 l 640 414 q 622 302 640 348 q 572 233 604 256 q 494 210 540 210 q 416 233 449 210 q 366 302 384 256 q 349 414 349 348 l 349 511 q 366 623 349 577 q 416 691 384 668 q 494 715 449 715 q 572 691 540 715 q 622 623 604 668 q 640 511 640 577 m 931 416 l 931 507 q 881 735 931 637 q 733 886 831 832 q 494 941 636 941 q 256 887 353 941 q 107 736 158 833 q 57 507 57 638 l 57 416 q 107 189 57 286 q 256 38 158 92 q 494 -16 353 -16 q 733 38 636 -16 q 881 189 831 92 q 931 416 931 286 m 725 1198 l 725 1312 l 264 1312 l 264 1198 l 725 1198 m 591 987 q 673 1008 637 987 q 729 1065 709 1028 q 749 1154 749 1103 l 632 1154 q 622 1112 632 1128 q 591 1096 612 1096 q 555 1106 572 1096 q 519 1130 538 1117 q 474 1154 500 1143 q 413 1164 449 1164 q 325 1139 358 1164 q 276 1075 291 1113 q 260 998 260 1036 l 377 998 q 391 1039 378 1022 q 425 1056 403 1056 q 458 1045 443 1056 q 490 1022 473 1035 q 531 998 507 1008 q 591 987 555 987 z "},"Ȯ":{"ha":988,"x_min":57,"x_max":931,"o":"m 640 511 l 640 414 q 622 302 640 348 q 572 233 604 256 q 494 210 540 210 q 416 233 449 210 q 366 302 384 256 q 349 414 349 348 l 349 511 q 366 623 349 577 q 416 691 384 668 q 494 715 449 715 q 572 691 540 715 q 622 623 604 668 q 640 511 640 577 m 931 416 l 931 507 q 881 735 931 637 q 733 886 831 832 q 494 941 636 941 q 256 887 353 941 q 107 736 158 833 q 57 507 57 638 l 57 416 q 107 189 57 286 q 256 38 158 92 q 494 -16 353 -16 q 733 38 636 -16 q 881 189 831 92 q 931 416 931 286 m 383 1122 q 416 1043 383 1076 q 494 1010 448 1010 q 573 1043 541 1010 q 606 1122 606 1076 q 573 1200 606 1168 q 494 1233 541 1233 q 416 1200 448 1233 q 383 1122 383 1168 z "},"Ộ":{"ha":988,"x_min":57,"x_max":931,"o":"m 640 511 l 640 414 q 622 302 640 348 q 572 233 604 256 q 494 210 540 210 q 416 233 449 210 q 366 302 384 256 q 349 414 349 348 l 349 511 q 366 623 349 577 q 416 691 384 668 q 494 715 449 715 q 572 691 540 715 q 622 623 604 668 q 640 511 640 577 m 931 416 l 931 507 q 881 735 931 637 q 733 886 831 832 q 494 941 636 941 q 256 887 353 941 q 107 736 158 833 q 57 507 57 638 l 57 416 q 107 189 57 286 q 256 38 158 92 q 494 -16 353 -16 q 733 38 636 -16 q 881 189 831 92 q 931 416 931 286 m 590 1173 l 399 1173 l 222 1001 l 414 1001 l 490 1075 l 499 1075 l 570 1001 l 762 1001 l 590 1173 m 393 -162 q 423 -234 393 -204 q 494 -264 453 -264 q 566 -234 536 -264 q 596 -162 596 -204 q 566 -90 596 -120 q 494 -60 536 -60 q 423 -90 453 -60 q 393 -162 393 -120 z "},"Ố":{"ha":988,"x_min":57,"x_max":1022,"o":"m 640 511 l 640 414 q 622 302 640 348 q 572 233 604 256 q 494 210 540 210 q 416 233 449 210 q 366 302 384 256 q 349 414 349 348 l 349 511 q 366 623 349 577 q 416 691 384 668 q 494 715 449 715 q 572 691 540 715 q 622 623 604 668 q 640 511 640 577 m 931 416 l 931 507 q 881 735 931 637 q 733 886 831 832 q 494 941 636 941 q 256 887 353 941 q 107 736 158 833 q 57 507 57 638 l 57 416 q 107 189 57 286 q 256 38 158 92 q 494 -16 353 -16 q 733 38 636 -16 q 881 189 831 92 q 931 416 931 286 m 224 1013 l 416 1013 l 489 1086 l 500 1086 l 572 1013 l 765 1013 l 591 1184 l 398 1184 l 224 1013 m 696 1124 l 856 1124 l 1022 1297 l 854 1297 l 696 1124 z "},"Ṏ":{"ha":988,"x_min":57,"x_max":931,"o":"m 640 511 l 640 414 q 622 302 640 348 q 572 233 604 256 q 494 210 540 210 q 416 233 449 210 q 366 302 384 256 q 349 414 349 348 l 349 511 q 366 623 349 577 q 416 691 384 668 q 494 715 449 715 q 572 691 540 715 q 622 623 604 668 q 640 511 640 577 m 931 416 l 931 507 q 881 735 931 637 q 733 886 831 832 q 494 941 636 941 q 256 887 353 941 q 107 736 158 833 q 57 507 57 638 l 57 416 q 107 189 57 286 q 256 38 158 92 q 494 -16 353 -16 q 733 38 636 -16 q 881 189 831 92 q 931 416 931 286 z "},"Ō":{"ha":988,"x_min":57,"x_max":931,"o":"m 640 511 l 640 414 q 622 302 640 348 q 572 233 604 256 q 494 210 540 210 q 416 233 449 210 q 366 302 384 256 q 349 414 349 348 l 349 511 q 366 623 349 577 q 416 691 384 668 q 494 715 449 715 q 572 691 540 715 q 622 623 604 668 q 640 511 640 577 m 931 416 l 931 507 q 881 735 931 637 q 733 886 831 832 q 494 941 636 941 q 256 887 353 941 q 107 736 158 833 q 57 507 57 638 l 57 416 q 107 189 57 286 q 256 38 158 92 q 494 -16 353 -16 q 733 38 636 -16 q 881 189 831 92 q 931 416 931 286 m 725 1006 l 725 1120 l 264 1120 l 264 1006 l 725 1006 z "},"Ǫ":{"ha":988,"x_min":57,"x_max":931,"o":"m 699 -267 q 768 -263 738 -268 q 821 -252 798 -258 l 821 -112 q 798 -116 813 -115 q 771 -117 783 -117 q 714 -103 739 -117 q 689 -53 689 -89 q 702 -6 689 -26 q 736 35 715 15 q 781 79 758 56 q 849 155 814 112 q 907 260 884 197 q 931 416 931 323 l 931 507 q 881 735 931 637 q 733 886 831 832 q 494 941 636 941 q 256 887 353 941 q 107 736 158 833 q 57 507 57 638 l 57 416 q 109 197 57 293 q 251 45 160 100 q 458 -11 341 -11 q 505 -7 469 -11 q 564 7 541 -4 q 564 -1 564 3 q 564 -8 564 -5 q 526 -64 539 -36 q 513 -127 512 -92 q 559 -226 514 -186 q 699 -267 605 -266 m 640 511 l 640 414 q 622 302 640 348 q 572 233 604 256 q 494 210 540 210 q 416 233 449 210 q 366 302 384 256 q 349 414 349 348 l 349 511 q 366 623 349 577 q 416 691 384 668 q 494 715 449 715 q 572 691 540 715 q 622 623 604 668 q 640 511 640 577 z "},"Ǭ":{"ha":988,"x_min":57,"x_max":931,"o":"m 699 -267 q 768 -263 738 -268 q 821 -252 798 -258 l 821 -112 q 798 -116 813 -115 q 771 -117 783 -117 q 714 -103 739 -117 q 689 -53 689 -89 q 702 -6 689 -26 q 736 35 715 15 q 781 79 758 56 q 849 155 814 112 q 907 260 884 197 q 931 416 931 323 l 931 507 q 881 735 931 637 q 733 886 831 832 q 494 941 636 941 q 256 887 353 941 q 107 736 158 833 q 57 507 57 638 l 57 416 q 109 197 57 293 q 251 45 160 100 q 458 -11 341 -11 q 505 -7 469 -11 q 564 7 541 -4 q 564 -1 564 3 q 564 -8 564 -5 q 526 -64 539 -36 q 513 -127 512 -92 q 559 -226 514 -186 q 699 -267 605 -266 m 640 511 l 640 414 q 622 302 640 348 q 572 233 604 256 q 494 210 540 210 q 416 233 449 210 q 366 302 384 256 q 349 414 349 348 l 349 511 q 366 623 349 577 q 416 691 384 668 q 494 715 449 715 q 572 691 540 715 q 622 623 604 668 q 640 511 640 577 m 725 1006 l 725 1120 l 264 1120 l 264 1006 l 725 1006 z "},"Ơ":{"ha":1058,"x_min":57,"x_max":1075,"o":"m 931 416 l 931 507 q 925 591 931 551 q 908 668 920 631 q 880 736 897 705 l 882 736 q 985 764 942 736 q 1052 839 1029 792 q 1075 941 1075 885 l 1075 1093 l 869 1093 l 869 985 q 864 947 869 964 q 841 919 859 930 q 781 908 822 908 q 691 916 735 908 q 600 932 648 924 q 494 941 552 941 q 256 887 353 941 q 107 736 158 833 q 57 507 57 638 l 57 416 q 107 189 57 286 q 256 38 158 92 q 494 -16 353 -16 q 733 38 636 -16 q 881 189 831 92 q 931 416 931 286 m 349 511 q 366 623 349 577 q 416 691 384 668 q 494 715 449 715 q 572 691 540 715 q 623 623 605 668 q 641 511 641 577 l 641 412 q 623 300 641 346 q 572 231 605 254 q 494 208 540 208 q 416 231 449 208 q 366 300 384 254 q 349 412 349 346 l 349 511 z "},"Ợ":{"ha":1058,"x_min":57,"x_max":1075,"o":"m 931 416 l 931 507 q 925 591 931 551 q 908 668 920 631 q 880 736 897 705 l 882 736 q 985 764 942 736 q 1052 839 1029 792 q 1075 941 1075 885 l 1075 1093 l 869 1093 l 869 985 q 864 947 869 964 q 841 919 859 930 q 781 908 822 908 q 691 916 735 908 q 600 932 648 924 q 494 941 552 941 q 256 887 353 941 q 107 736 158 833 q 57 507 57 638 l 57 416 q 107 189 57 286 q 256 38 158 92 q 494 -16 353 -16 q 733 38 636 -16 q 881 189 831 92 q 931 416 931 286 m 349 511 q 366 623 349 577 q 416 691 384 668 q 494 715 449 715 q 572 691 540 715 q 623 623 605 668 q 641 511 641 577 l 641 412 q 623 300 641 346 q 572 231 605 254 q 494 208 540 208 q 416 231 449 208 q 366 300 384 254 q 349 412 349 346 l 349 511 m 393 -162 q 423 -234 393 -204 q 494 -264 453 -264 q 566 -234 536 -264 q 596 -162 596 -204 q 566 -90 596 -120 q 494 -60 536 -60 q 423 -90 453 -60 q 393 -162 393 -120 z "},"Ở":{"ha":1058,"x_min":57,"x_max":1075,"o":"m 931 416 l 931 507 q 925 591 931 551 q 908 668 920 631 q 880 736 897 705 l 882 736 q 985 764 942 736 q 1052 839 1029 792 q 1075 941 1075 885 l 1075 1093 l 869 1093 l 869 985 q 864 947 869 964 q 841 919 859 930 q 781 908 822 908 q 691 916 735 908 q 600 932 648 924 q 494 941 552 941 q 256 887 353 941 q 107 736 158 833 q 57 507 57 638 l 57 416 q 107 189 57 286 q 256 38 158 92 q 494 -16 353 -16 q 733 38 636 -16 q 881 189 831 92 q 931 416 931 286 m 349 511 q 366 623 349 577 q 416 691 384 668 q 494 715 449 715 q 572 691 540 715 q 623 623 605 668 q 641 511 641 577 l 641 412 q 623 300 641 346 q 572 231 605 254 q 494 208 540 208 q 416 231 449 208 q 366 300 384 254 q 349 412 349 346 l 349 511 m 370 1145 q 398 1151 381 1149 q 427 1153 416 1153 q 475 1143 455 1153 q 494 1109 494 1133 q 481 1076 494 1089 q 449 1056 468 1063 l 522 979 q 570 1011 547 993 q 607 1055 593 1029 q 622 1119 622 1081 q 579 1222 622 1185 q 455 1259 536 1259 q 404 1254 427 1259 q 370 1243 381 1249 l 370 1145 z "},"Ỡ":{"ha":1058,"x_min":57,"x_max":1075,"o":"m 931 416 l 931 507 q 925 591 931 551 q 908 668 920 631 q 880 736 897 705 l 882 736 q 985 764 942 736 q 1052 839 1029 792 q 1075 941 1075 885 l 1075 1093 l 869 1093 l 869 985 q 864 947 869 964 q 841 919 859 930 q 781 908 822 908 q 691 916 735 908 q 600 932 648 924 q 494 941 552 941 q 256 887 353 941 q 107 736 158 833 q 57 507 57 638 l 57 416 q 107 189 57 286 q 256 38 158 92 q 494 -16 353 -16 q 733 38 636 -16 q 881 189 831 92 q 931 416 931 286 m 349 511 q 366 623 349 577 q 416 691 384 668 q 494 715 449 715 q 572 691 540 715 q 623 623 605 668 q 641 511 641 577 l 641 412 q 623 300 641 346 q 572 231 605 254 q 494 208 540 208 q 416 231 449 208 q 366 300 384 254 q 349 412 349 346 l 349 511 m 591 987 q 673 1008 637 987 q 729 1065 709 1028 q 749 1154 749 1103 l 632 1154 q 622 1112 632 1128 q 591 1096 612 1096 q 555 1106 572 1096 q 519 1130 538 1117 q 474 1154 500 1143 q 413 1164 449 1164 q 325 1139 358 1164 q 276 1075 291 1113 q 260 998 260 1036 l 377 998 q 391 1039 378 1022 q 425 1056 403 1056 q 458 1045 443 1056 q 490 1022 473 1035 q 531 998 507 1008 q 591 987 555 987 z "},"Ờ":{"ha":1058,"x_min":57,"x_max":1075,"o":"m 931 416 l 931 507 q 925 591 931 551 q 908 668 920 631 q 880 736 897 705 l 882 736 q 985 764 942 736 q 1052 839 1029 792 q 1075 941 1075 885 l 1075 1093 l 869 1093 l 869 985 q 864 947 869 964 q 841 919 859 930 q 781 908 822 908 q 691 916 735 908 q 600 932 648 924 q 494 941 552 941 q 256 887 353 941 q 107 736 158 833 q 57 507 57 638 l 57 416 q 107 189 57 286 q 256 38 158 92 q 494 -16 353 -16 q 733 38 636 -16 q 881 189 831 92 q 931 416 931 286 m 349 511 q 366 623 349 577 q 416 691 384 668 q 494 715 449 715 q 572 691 540 715 q 623 623 605 668 q 641 511 641 577 l 641 412 q 623 300 641 346 q 572 231 605 254 q 494 208 540 208 q 416 231 449 208 q 366 300 384 254 q 349 412 349 346 l 349 511 m 595 1013 l 437 1228 l 219 1228 l 413 1013 l 595 1013 z "},"Ớ":{"ha":1058,"x_min":57,"x_max":1075,"o":"m 931 416 l 931 507 q 925 591 931 551 q 908 668 920 631 q 880 736 897 705 l 882 736 q 985 764 942 736 q 1052 839 1029 792 q 1075 941 1075 885 l 1075 1093 l 869 1093 l 869 985 q 864 947 869 964 q 841 919 859 930 q 781 908 822 908 q 691 916 735 908 q 600 932 648 924 q 494 941 552 941 q 256 887 353 941 q 107 736 158 833 q 57 507 57 638 l 57 416 q 107 189 57 286 q 256 38 158 92 q 494 -16 353 -16 q 733 38 636 -16 q 881 189 831 92 q 931 416 931 286 m 349 511 q 366 623 349 577 q 416 691 384 668 q 494 715 449 715 q 572 691 540 715 q 623 623 605 668 q 641 511 641 577 l 641 412 q 623 300 641 346 q 572 231 605 254 q 494 208 540 208 q 416 231 449 208 q 366 300 384 254 q 349 412 349 346 l 349 511 m 394 1013 l 576 1013 l 770 1228 l 552 1228 l 394 1013 z "},"P":{"ha":897,"x_min":95,"x_max":859,"o":"m 517 926 l 95 926 l 95 0 l 379 0 l 379 250 l 513 250 q 707 296 631 250 q 821 419 784 342 q 859 585 859 495 q 822 752 859 674 q 710 878 785 829 q 517 926 635 926 m 571 585 q 555 515 571 544 q 509 470 538 486 q 440 455 479 455 l 378 455 l 378 715 l 440 715 q 535 683 499 715 q 571 585 571 650 z "},"Ṗ":{"ha":897,"x_min":95,"x_max":859,"o":"m 517 926 l 95 926 l 95 0 l 379 0 l 379 250 l 513 250 q 707 296 631 250 q 821 419 784 342 q 859 585 859 495 q 822 752 859 674 q 710 878 785 829 q 517 926 635 926 m 571 585 q 555 515 571 544 q 509 470 538 486 q 440 455 479 455 l 378 455 l 378 715 l 440 715 q 535 683 499 715 q 571 585 571 650 m 338 1122 q 370 1043 338 1076 q 449 1010 403 1010 q 528 1043 495 1010 q 560 1122 560 1076 q 528 1200 560 1168 q 449 1233 495 1233 q 370 1200 403 1233 q 338 1122 338 1168 z "},"Ṕ":{"ha":897,"x_min":95,"x_max":859,"o":"m 517 926 l 95 926 l 95 0 l 379 0 l 379 250 l 513 250 q 707 296 631 250 q 821 419 784 342 q 859 585 859 495 q 822 752 859 674 q 710 878 785 829 q 517 926 635 926 m 571 585 q 555 515 571 544 q 509 470 538 486 q 440 455 479 455 l 378 455 l 378 715 l 440 715 q 535 683 499 715 q 571 585 571 650 m 349 1013 l 530 1013 l 724 1228 l 507 1228 l 349 1013 z "},"Q":{"ha":993,"x_min":61,"x_max":935,"o":"m 903 -73 l 802 90 q 901 231 866 148 q 935 418 935 315 l 935 504 q 882 732 935 633 q 732 885 829 830 q 498 941 634 941 q 266 886 363 941 q 114 732 168 831 q 61 504 61 634 l 61 418 q 114 192 61 290 q 266 39 168 94 q 498 -16 363 -16 q 552 -13 526 -16 q 603 -5 578 -10 l 644 -73 l 903 -73 m 338 411 l 338 507 q 359 623 338 576 q 415 693 379 669 q 498 717 451 717 q 582 693 546 717 q 637 623 617 669 q 658 507 658 576 l 658 411 q 654 352 658 379 q 644 301 650 324 q 644 301 644 301 q 644 301 644 301 l 417 301 l 488 185 q 488 185 488 185 q 488 185 488 185 q 409 214 443 188 q 357 289 376 239 q 338 411 338 338 z "},"R":{"ha":939,"x_min":95,"x_max":906,"o":"m 519 926 l 95 926 l 95 0 l 374 0 l 374 309 l 445 309 l 593 0 l 906 0 l 724 345 q 789 389 751 357 q 857 476 827 422 q 886 607 886 530 q 845 774 886 703 q 722 886 804 846 q 519 926 641 926 m 374 498 l 374 722 l 476 722 q 557 693 521 722 q 593 608 593 665 q 558 525 593 552 q 476 498 523 498 l 374 498 z "},"Ř":{"ha":939,"x_min":95,"x_max":906,"o":"m 519 926 l 95 926 l 95 0 l 374 0 l 374 309 l 445 309 l 593 0 l 906 0 l 724 345 q 789 389 751 357 q 857 476 827 422 q 886 607 886 530 q 845 774 886 703 q 722 886 804 846 q 519 926 641 926 m 374 498 l 374 722 l 476 722 q 557 693 521 722 q 593 608 593 665 q 558 525 593 552 q 476 498 523 498 l 374 498 m 198 1177 l 372 1006 l 574 1006 l 739 1177 l 547 1177 l 479 1103 l 463 1103 l 390 1177 l 198 1177 z "},"Ṟ":{"ha":939,"x_min":95,"x_max":906,"o":"m 519 926 l 95 926 l 95 0 l 374 0 l 374 309 l 445 309 l 593 0 l 906 0 l 724 345 q 789 389 751 357 q 857 476 827 422 q 886 607 886 530 q 845 774 886 703 q 722 886 804 846 q 519 926 641 926 m 374 498 l 374 722 l 476 722 q 557 693 521 722 q 593 608 593 665 q 558 525 593 552 q 476 498 523 498 l 374 498 z "},"Ṝ":{"ha":939,"x_min":95,"x_max":906,"o":"m 519 926 l 95 926 l 95 0 l 374 0 l 374 309 l 445 309 l 593 0 l 906 0 l 724 345 q 789 389 751 357 q 857 476 827 422 q 886 607 886 530 q 845 774 886 703 q 722 886 804 846 q 519 926 641 926 m 374 498 l 374 722 l 476 722 q 557 693 521 722 q 593 608 593 665 q 558 525 593 552 q 476 498 523 498 l 374 498 m 368 -162 q 398 -234 368 -204 q 469 -264 428 -264 q 541 -234 511 -264 q 571 -162 571 -204 q 541 -90 571 -120 q 469 -60 511 -60 q 398 -90 428 -60 q 368 -162 368 -120 m 700 1006 l 700 1120 l 239 1120 l 239 1006 l 700 1006 z "},"Ȑ":{"ha":939,"x_min":43,"x_max":906,"o":"m 519 926 l 95 926 l 95 0 l 374 0 l 374 309 l 445 309 l 593 0 l 906 0 l 724 345 q 789 389 751 357 q 857 476 827 422 q 886 607 886 530 q 845 774 886 703 q 722 886 804 846 q 519 926 641 926 m 374 498 l 374 722 l 476 722 q 557 693 521 722 q 593 608 593 665 q 558 525 593 552 q 476 498 523 498 l 374 498 m 416 1013 l 259 1228 l 43 1228 l 237 1013 l 416 1013 m 732 1013 l 575 1228 l 359 1228 l 553 1013 l 732 1013 z "},"Ȓ":{"ha":939,"x_min":95,"x_max":906,"o":"m 519 926 l 95 926 l 95 0 l 374 0 l 374 309 l 445 309 l 593 0 l 906 0 l 724 345 q 789 389 751 357 q 857 476 827 422 q 886 607 886 530 q 845 774 886 703 q 722 886 804 846 q 519 926 641 926 m 374 498 l 374 722 l 476 722 q 557 693 521 722 q 593 608 593 665 q 558 525 593 552 q 476 498 523 498 l 374 498 m 224 991 l 368 991 q 395 1056 368 1034 q 469 1078 422 1078 q 544 1056 517 1078 q 570 991 570 1034 l 711 991 q 680 1111 711 1062 q 594 1186 649 1160 q 469 1211 540 1211 q 343 1186 399 1211 q 256 1111 288 1160 q 224 991 224 1062 z "},"Ŕ":{"ha":939,"x_min":95,"x_max":906,"o":"m 519 926 l 95 926 l 95 0 l 374 0 l 374 309 l 445 309 l 593 0 l 906 0 l 724 345 q 789 389 751 357 q 857 476 827 422 q 886 607 886 530 q 845 774 886 703 q 722 886 804 846 q 519 926 641 926 m 374 498 l 374 722 l 476 722 q 557 693 521 722 q 593 608 593 665 q 558 525 593 552 q 476 498 523 498 l 374 498 m 369 1013 l 551 1013 l 745 1228 l 527 1228 l 369 1013 z "},"Ṛ":{"ha":939,"x_min":95,"x_max":906,"o":"m 519 926 l 95 926 l 95 0 l 374 0 l 374 309 l 445 309 l 593 0 l 906 0 l 724 345 q 789 389 751 357 q 857 476 827 422 q 886 607 886 530 q 845 774 886 703 q 722 886 804 846 q 519 926 641 926 m 374 498 l 374 722 l 476 722 q 557 693 521 722 q 593 608 593 665 q 558 525 593 552 q 476 498 523 498 l 374 498 m 368 -162 q 398 -234 368 -204 q 469 -264 428 -264 q 541 -234 511 -264 q 571 -162 571 -204 q 541 -90 571 -120 q 469 -60 511 -60 q 398 -90 428 -60 q 368 -162 368 -120 z "},"Ṙ":{"ha":939,"x_min":95,"x_max":906,"o":"m 519 926 l 95 926 l 95 0 l 374 0 l 374 309 l 445 309 l 593 0 l 906 0 l 724 345 q 789 389 751 357 q 857 476 827 422 q 886 607 886 530 q 845 774 886 703 q 722 886 804 846 q 519 926 641 926 m 374 498 l 374 722 l 476 722 q 557 693 521 722 q 593 608 593 665 q 558 525 593 552 q 476 498 523 498 l 374 498 m 358 1122 q 391 1043 358 1076 q 469 1010 423 1010 q 548 1043 515 1010 q 581 1122 581 1076 q 548 1200 581 1168 q 469 1233 515 1233 q 391 1200 423 1233 q 358 1122 358 1168 z "},"Ŗ":{"ha":939,"x_min":95,"x_max":906,"o":"m 519 926 l 95 926 l 95 0 l 374 0 l 374 309 l 445 309 l 593 0 l 906 0 l 724 345 q 789 389 751 357 q 857 476 827 422 q 886 607 886 530 q 845 774 886 703 q 722 886 804 846 q 519 926 641 926 m 374 498 l 374 722 l 476 722 q 557 693 521 722 q 593 608 593 665 q 558 525 593 552 q 476 498 523 498 l 374 498 m 502 -318 l 579 -91 l 391 -91 l 334 -318 l 502 -318 z "},"S":{"ha":907,"x_min":56,"x_max":853,"o":"m 56 283 q 75 177 56 230 q 140 80 95 124 q 262 11 186 37 q 452 -16 338 -16 q 677 25 588 -16 q 809 136 766 65 q 853 296 853 206 q 814 449 853 392 q 716 534 776 506 q 592 572 656 563 l 473 591 q 385 616 417 600 q 353 663 353 633 q 377 714 353 692 q 456 735 401 735 q 524 721 497 735 q 563 687 550 707 q 576 648 576 667 l 834 648 q 794 787 834 720 q 670 898 753 854 q 455 941 586 941 q 253 905 340 941 q 119 803 167 870 q 71 640 71 735 q 104 498 71 554 q 198 410 138 441 q 334 364 258 378 l 446 345 q 542 318 508 334 q 575 266 575 302 q 564 230 575 247 q 527 203 553 214 q 458 193 502 193 q 400 201 425 193 q 358 222 375 209 q 332 251 341 235 q 323 283 323 267 l 56 283 z "},"Š":{"ha":907,"x_min":56,"x_max":853,"o":"m 56 283 q 75 177 56 230 q 140 80 95 124 q 262 11 186 37 q 452 -16 338 -16 q 677 25 588 -16 q 809 136 766 65 q 853 296 853 206 q 814 449 853 392 q 716 534 776 506 q 592 572 656 563 l 473 591 q 385 616 417 600 q 353 663 353 633 q 377 714 353 692 q 456 735 401 735 q 524 721 497 735 q 563 687 550 707 q 576 648 576 667 l 834 648 q 794 787 834 720 q 670 898 753 854 q 455 941 586 941 q 253 905 340 941 q 119 803 167 870 q 71 640 71 735 q 104 498 71 554 q 198 410 138 441 q 334 364 258 378 l 446 345 q 542 318 508 334 q 575 266 575 302 q 564 230 575 247 q 527 203 553 214 q 458 193 502 193 q 400 201 425 193 q 358 222 375 209 q 332 251 341 235 q 323 283 323 267 l 56 283 m 182 1177 l 357 1006 l 559 1006 l 724 1177 l 531 1177 l 463 1103 l 448 1103 l 374 1177 l 182 1177 z "},"Ş":{"ha":907,"x_min":56,"x_max":853,"o":"m 452 -323 q 553 -309 511 -323 q 617 -263 595 -294 q 640 -184 640 -233 q 627 -122 640 -149 q 587 -79 613 -95 q 526 -64 562 -64 l 549 -9 q 719 47 652 5 q 820 154 787 90 q 853 296 853 218 q 814 449 853 392 q 716 534 776 506 q 592 572 656 563 l 473 591 q 385 616 417 600 q 353 663 353 633 q 377 714 353 692 q 456 735 401 735 q 524 721 497 735 q 563 687 550 707 q 576 648 576 667 l 834 648 q 794 787 834 720 q 670 898 753 854 q 455 941 586 941 q 253 905 340 941 q 119 803 167 870 q 71 640 71 735 q 104 498 71 554 q 198 410 138 441 q 334 364 258 378 l 446 345 q 542 318 508 334 q 575 266 575 302 q 564 230 575 247 q 527 203 553 214 q 458 193 502 193 q 400 201 425 193 q 358 222 375 209 q 332 251 341 235 q 323 283 323 267 l 56 283 q 73 182 56 233 q 131 90 91 132 q 238 20 171 47 q 406 -14 306 -8 l 384 -70 l 384 -161 l 423 -161 q 484 -170 473 -161 q 495 -194 495 -180 q 474 -216 495 -212 q 428 -220 453 -220 q 389 -218 408 -220 q 357 -212 370 -216 l 357 -313 q 390 -320 367 -316 q 452 -323 414 -323 z "},"Ṡ":{"ha":907,"x_min":56,"x_max":853,"o":"m 56 283 q 75 177 56 230 q 140 80 95 124 q 262 11 186 37 q 452 -16 338 -16 q 677 25 588 -16 q 809 136 766 65 q 853 296 853 206 q 814 449 853 392 q 716 534 776 506 q 592 572 656 563 l 473 591 q 385 616 417 600 q 353 663 353 633 q 377 714 353 692 q 456 735 401 735 q 524 721 497 735 q 563 687 550 707 q 576 648 576 667 l 834 648 q 794 787 834 720 q 670 898 753 854 q 455 941 586 941 q 253 905 340 941 q 119 803 167 870 q 71 640 71 735 q 104 498 71 554 q 198 410 138 441 q 334 364 258 378 l 446 345 q 542 318 508 334 q 575 266 575 302 q 564 230 575 247 q 527 203 553 214 q 458 193 502 193 q 400 201 425 193 q 358 222 375 209 q 332 251 341 235 q 323 283 323 267 l 56 283 m 342 1122 q 375 1043 342 1076 q 454 1010 408 1010 q 532 1043 500 1010 q 565 1122 565 1076 q 532 1200 565 1168 q 454 1233 500 1233 q 375 1200 408 1233 q 342 1122 342 1168 z "},"Ṣ":{"ha":907,"x_min":56,"x_max":853,"o":"m 56 283 q 75 177 56 230 q 140 80 95 124 q 262 11 186 37 q 452 -16 338 -16 q 677 25 588 -16 q 809 136 766 65 q 853 296 853 206 q 814 449 853 392 q 716 534 776 506 q 592 572 656 563 l 473 591 q 385 616 417 600 q 353 663 353 633 q 377 714 353 692 q 456 735 401 735 q 524 721 497 735 q 563 687 550 707 q 576 648 576 667 l 834 648 q 794 787 834 720 q 670 898 753 854 q 455 941 586 941 q 253 905 340 941 q 119 803 167 870 q 71 640 71 735 q 104 498 71 554 q 198 410 138 441 q 334 364 258 378 l 446 345 q 542 318 508 334 q 575 266 575 302 q 564 230 575 247 q 527 203 553 214 q 458 193 502 193 q 400 201 425 193 q 358 222 375 209 q 332 251 341 235 q 323 283 323 267 l 56 283 m 352 -162 q 382 -234 352 -204 q 454 -264 412 -264 q 526 -234 496 -264 q 555 -162 555 -204 q 526 -90 555 -120 q 454 -60 496 -60 q 382 -90 412 -60 q 352 -162 352 -120 z "},"Ș":{"ha":907,"x_min":56,"x_max":853,"o":"m 56 283 q 75 177 56 230 q 140 80 95 124 q 262 11 186 37 q 452 -16 338 -16 q 677 25 588 -16 q 809 136 766 65 q 853 296 853 206 q 814 449 853 392 q 716 534 776 506 q 592 572 656 563 l 473 591 q 385 616 417 600 q 353 663 353 633 q 377 714 353 692 q 456 735 401 735 q 524 721 497 735 q 563 687 550 707 q 576 648 576 667 l 834 648 q 794 787 834 720 q 670 898 753 854 q 455 941 586 941 q 253 905 340 941 q 119 803 167 870 q 71 640 71 735 q 104 498 71 554 q 198 410 138 441 q 334 364 258 378 l 446 345 q 542 318 508 334 q 575 266 575 302 q 564 230 575 247 q 527 203 553 214 q 458 193 502 193 q 400 201 425 193 q 358 222 375 209 q 332 251 341 235 q 323 283 323 267 l 56 283 m 486 -318 l 564 -91 l 376 -91 l 318 -318 l 486 -318 z "},"Ṩ":{"ha":907,"x_min":56,"x_max":853,"o":"m 56 283 q 75 177 56 230 q 140 80 95 124 q 262 11 186 37 q 452 -16 338 -16 q 677 25 588 -16 q 809 136 766 65 q 853 296 853 206 q 814 449 853 392 q 716 534 776 506 q 592 572 656 563 l 473 591 q 385 616 417 600 q 353 663 353 633 q 377 714 353 692 q 456 735 401 735 q 524 721 497 735 q 563 687 550 707 q 576 648 576 667 l 834 648 q 794 787 834 720 q 670 898 753 854 q 455 941 586 941 q 253 905 340 941 q 119 803 167 870 q 71 640 71 735 q 104 498 71 554 q 198 410 138 441 q 334 364 258 378 l 446 345 q 542 318 508 334 q 575 266 575 302 q 564 230 575 247 q 527 203 553 214 q 458 193 502 193 q 400 201 425 193 q 358 222 375 209 q 332 251 341 235 q 323 283 323 267 l 56 283 m 352 -162 q 382 -234 352 -204 q 454 -264 412 -264 q 526 -234 496 -264 q 555 -162 555 -204 q 526 -90 555 -120 q 454 -60 496 -60 q 382 -90 412 -60 q 352 -162 352 -120 m 342 1122 q 375 1043 342 1076 q 454 1010 408 1010 q 532 1043 500 1010 q 565 1122 565 1076 q 532 1200 565 1168 q 454 1233 500 1233 q 375 1200 408 1233 q 342 1122 342 1168 z "},"Ṧ":{"ha":907,"x_min":56,"x_max":853,"o":"m 56 283 q 75 177 56 230 q 140 80 95 124 q 262 11 186 37 q 452 -16 338 -16 q 677 25 588 -16 q 809 136 766 65 q 853 296 853 206 q 814 449 853 392 q 716 534 776 506 q 592 572 656 563 l 473 591 q 385 616 417 600 q 353 663 353 633 q 377 714 353 692 q 456 735 401 735 q 524 721 497 735 q 563 687 550 707 q 576 648 576 667 l 834 648 q 794 787 834 720 q 670 898 753 854 q 455 941 586 941 q 253 905 340 941 q 119 803 167 870 q 71 640 71 735 q 104 498 71 554 q 198 410 138 441 q 334 364 258 378 l 446 345 q 542 318 508 334 q 575 266 575 302 q 564 230 575 247 q 527 203 553 214 q 458 193 502 193 q 400 201 425 193 q 358 222 375 209 q 332 251 341 235 q 323 283 323 267 l 56 283 m 188 1144 l 369 1011 l 538 1011 l 720 1144 l 523 1144 l 454 1082 l 453 1082 l 385 1144 l 188 1144 m 382 1249 q 404 1198 382 1219 q 454 1177 425 1177 q 504 1198 484 1177 q 525 1249 525 1219 q 504 1298 525 1278 q 454 1319 484 1319 q 404 1298 425 1319 q 382 1249 382 1278 z "},"Ŝ":{"ha":907,"x_min":56,"x_max":853,"o":"m 56 283 q 75 177 56 230 q 140 80 95 124 q 262 11 186 37 q 452 -16 338 -16 q 677 25 588 -16 q 809 136 766 65 q 853 296 853 206 q 814 449 853 392 q 716 534 776 506 q 592 572 656 563 l 473 591 q 385 616 417 600 q 353 663 353 633 q 377 714 353 692 q 456 735 401 735 q 524 721 497 735 q 563 687 550 707 q 576 648 576 667 l 834 648 q 794 787 834 720 q 670 898 753 854 q 455 941 586 941 q 253 905 340 941 q 119 803 167 870 q 71 640 71 735 q 104 498 71 554 q 198 410 138 441 q 334 364 258 378 l 446 345 q 542 318 508 334 q 575 266 575 302 q 564 230 575 247 q 527 203 553 214 q 458 193 502 193 q 400 201 425 193 q 358 222 375 209 q 332 251 341 235 q 323 283 323 267 l 56 283 m 549 1173 l 359 1173 l 181 1001 l 373 1001 l 450 1075 l 458 1075 l 530 1001 l 722 1001 l 549 1173 z "},"Ṥ":{"ha":907,"x_min":56,"x_max":853,"o":"m 56 283 q 75 177 56 230 q 140 80 95 124 q 262 11 186 37 q 452 -16 338 -16 q 677 25 588 -16 q 809 136 766 65 q 853 296 853 206 q 814 449 853 392 q 716 534 776 506 q 592 572 656 563 l 473 591 q 385 616 417 600 q 353 663 353 633 q 377 714 353 692 q 456 735 401 735 q 524 721 497 735 q 563 687 550 707 q 576 648 576 667 l 834 648 q 794 787 834 720 q 670 898 753 854 q 455 941 586 941 q 253 905 340 941 q 119 803 167 870 q 71 640 71 735 q 104 498 71 554 q 198 410 138 441 q 334 364 258 378 l 446 345 q 542 318 508 334 q 575 266 575 302 q 564 230 575 247 q 527 203 553 214 q 458 193 502 193 q 400 201 425 193 q 358 222 375 209 q 332 251 341 235 q 323 283 323 267 l 56 283 z "},"Ś":{"ha":907,"x_min":56,"x_max":853,"o":"m 56 283 q 75 177 56 230 q 140 80 95 124 q 262 11 186 37 q 452 -16 338 -16 q 677 25 588 -16 q 809 136 766 65 q 853 296 853 206 q 814 449 853 392 q 716 534 776 506 q 592 572 656 563 l 473 591 q 385 616 417 600 q 353 663 353 633 q 377 714 353 692 q 456 735 401 735 q 524 721 497 735 q 563 687 550 707 q 576 648 576 667 l 834 648 q 794 787 834 720 q 670 898 753 854 q 455 941 586 941 q 253 905 340 941 q 119 803 167 870 q 71 640 71 735 q 104 498 71 554 q 198 410 138 441 q 334 364 258 378 l 446 345 q 542 318 508 334 q 575 266 575 302 q 564 230 575 247 q 527 203 553 214 q 458 193 502 193 q 400 201 425 193 q 358 222 375 209 q 332 251 341 235 q 323 283 323 267 l 56 283 m 353 1013 l 535 1013 l 729 1228 l 511 1228 l 353 1013 z "},"ẞ":{"ha":1024,"x_min":95,"x_max":970,"o":"m 658 -16 q 819 20 749 -16 q 930 122 890 57 q 970 269 970 186 l 970 271 q 904 450 970 382 q 704 545 838 518 l 623 560 l 747 469 l 926 697 l 926 871 q 799 908 866 892 q 666 932 731 924 q 545 941 600 941 q 300 896 401 941 q 147 763 199 850 q 95 551 95 676 l 95 0 l 380 0 l 380 517 q 403 623 380 580 q 470 689 426 667 q 574 710 513 711 q 782 651 666 708 l 708 787 l 518 546 l 518 380 l 596 364 q 659 336 638 355 q 680 288 680 317 l 680 287 q 659 234 680 254 q 602 215 639 215 q 529 225 566 215 q 441 260 492 236 l 441 20 q 658 -16 530 -16 z "},"T":{"ha":799,"x_min":22,"x_max":777,"o":"m 542 0 l 542 698 l 777 698 l 777 926 l 22 926 l 22 698 l 257 698 l 257 0 l 542 0 z "},"Ṱ":{"ha":799,"x_min":22,"x_max":777,"o":"m 542 0 l 542 698 l 777 698 l 777 926 l 22 926 l 22 698 l 257 698 l 257 0 l 542 0 m 129 -241 l 321 -241 l 394 -168 l 405 -168 l 477 -241 l 670 -241 l 496 -70 l 303 -70 l 129 -241 z "},"Ṭ":{"ha":799,"x_min":22,"x_max":777,"o":"m 542 0 l 542 698 l 777 698 l 777 926 l 22 926 l 22 698 l 257 698 l 257 0 l 542 0 m 298 -162 q 328 -234 298 -204 q 399 -264 358 -264 q 471 -234 441 -264 q 501 -162 501 -204 q 471 -90 501 -120 q 399 -60 441 -60 q 328 -90 358 -60 q 298 -162 298 -120 z "},"Ț":{"ha":799,"x_min":22,"x_max":777,"o":"m 542 0 l 542 698 l 777 698 l 777 926 l 22 926 l 22 698 l 257 698 l 257 0 l 542 0 m 432 -318 l 509 -91 l 321 -91 l 264 -318 l 432 -318 z "},"Ṫ":{"ha":799,"x_min":22,"x_max":777,"o":"m 542 0 l 542 698 l 777 698 l 777 926 l 22 926 l 22 698 l 257 698 l 257 0 l 542 0 m 288 1122 q 321 1043 288 1076 q 399 1010 353 1010 q 478 1043 446 1010 q 511 1122 511 1076 q 478 1200 511 1168 q 399 1233 446 1233 q 321 1200 353 1233 q 288 1122 288 1168 z "},"Ţ":{"ha":799,"x_min":22,"x_max":777,"o":"m 330 0 l 303 -70 l 303 -161 l 342 -161 q 391 -165 376 -161 q 410 -177 406 -170 q 414 -194 414 -184 q 393 -216 414 -212 q 347 -220 372 -220 q 309 -218 328 -220 q 276 -212 290 -216 l 276 -313 q 310 -320 286 -316 q 372 -323 333 -323 q 472 -309 430 -323 q 537 -263 514 -294 q 559 -184 559 -233 q 546 -122 559 -149 q 507 -79 532 -95 q 445 -64 481 -64 l 472 0 l 542 0 l 542 698 l 777 698 l 777 926 l 22 926 l 22 698 l 257 698 l 257 0 l 330 0 z "},"Ṯ":{"ha":799,"x_min":22,"x_max":777,"o":"m 542 0 l 542 698 l 777 698 l 777 926 l 22 926 l 22 698 l 257 698 l 257 0 l 542 0 z "},"Ť":{"ha":799,"x_min":22,"x_max":777,"o":"m 542 0 l 542 698 l 777 698 l 777 926 l 22 926 l 22 698 l 257 698 l 257 0 l 542 0 m 128 1177 l 302 1006 l 505 1006 l 669 1177 l 477 1177 l 409 1103 l 393 1103 l 320 1177 l 128 1177 z "},"Ŧ":{"ha":799,"x_min":22,"x_max":777,"o":"m 694 355 l 694 510 l 542 510 l 542 698 l 777 698 l 777 926 l 22 926 l 22 698 l 257 698 l 257 510 l 105 510 l 105 355 l 257 355 l 257 0 l 542 0 l 542 355 l 694 355 z "},"U":{"ha":989,"x_min":85,"x_max":904,"o":"m 494 218 q 405 251 441 218 q 370 360 370 283 l 370 926 l 85 926 l 85 320 q 134 143 85 218 q 276 26 184 67 q 494 -16 368 -16 q 713 26 621 -16 q 854 143 805 67 q 904 320 904 218 l 904 926 l 619 926 l 619 360 q 584 251 619 285 q 494 218 548 218 z "},"Ù":{"ha":989,"x_min":85,"x_max":904,"o":"m 494 218 q 405 251 441 218 q 370 360 370 283 l 370 926 l 85 926 l 85 320 q 134 143 85 218 q 276 26 184 67 q 494 -16 368 -16 q 713 26 621 -16 q 854 143 805 67 q 904 320 904 218 l 904 926 l 619 926 l 619 360 q 584 251 619 285 q 494 218 548 218 m 595 1013 l 437 1228 l 219 1228 l 413 1013 l 595 1013 z "},"Ȕ":{"ha":989,"x_min":68,"x_max":904,"o":"m 494 218 q 405 251 441 218 q 370 360 370 283 l 370 926 l 85 926 l 85 320 q 134 143 85 218 q 276 26 184 67 q 494 -16 368 -16 q 713 26 621 -16 q 854 143 805 67 q 904 320 904 218 l 904 926 l 619 926 l 619 360 q 584 251 619 285 q 494 218 548 218 m 441 1013 l 284 1228 l 68 1228 l 262 1013 l 441 1013 m 758 1013 l 600 1228 l 385 1228 l 578 1013 l 758 1013 z "},"Ú":{"ha":989,"x_min":85,"x_max":904,"o":"m 494 218 q 405 251 441 218 q 370 360 370 283 l 370 926 l 85 926 l 85 320 q 134 143 85 218 q 276 26 184 67 q 494 -16 368 -16 q 713 26 621 -16 q 854 143 805 67 q 904 320 904 218 l 904 926 l 619 926 l 619 360 q 584 251 619 285 q 494 218 548 218 m 394 1013 l 576 1013 l 770 1228 l 552 1228 l 394 1013 z "},"Ű":{"ha":989,"x_min":85,"x_max":923,"o":"m 494 218 q 405 251 441 218 q 370 360 370 283 l 370 926 l 85 926 l 85 320 q 134 143 85 218 q 276 26 184 67 q 494 -16 368 -16 q 713 26 621 -16 q 854 143 805 67 q 904 320 904 218 l 904 926 l 619 926 l 619 360 q 584 251 619 285 q 494 218 548 218 m 234 1013 l 413 1013 l 607 1228 l 391 1228 l 234 1013 m 550 1013 l 729 1013 l 923 1228 l 707 1228 l 550 1013 z "},"Û":{"ha":989,"x_min":85,"x_max":904,"o":"m 494 218 q 405 251 441 218 q 370 360 370 283 l 370 926 l 85 926 l 85 320 q 134 143 85 218 q 276 26 184 67 q 494 -16 368 -16 q 713 26 621 -16 q 854 143 805 67 q 904 320 904 218 l 904 926 l 619 926 l 619 360 q 584 251 619 285 q 494 218 548 218 m 590 1173 l 399 1173 l 222 1001 l 414 1001 l 490 1075 l 499 1075 l 570 1001 l 762 1001 l 590 1173 z "},"Ǔ":{"ha":989,"x_min":85,"x_max":904,"o":"m 494 218 q 405 251 441 218 q 370 360 370 283 l 370 926 l 85 926 l 85 320 q 134 143 85 218 q 276 26 184 67 q 494 -16 368 -16 q 713 26 621 -16 q 854 143 805 67 q 904 320 904 218 l 904 926 l 619 926 l 619 360 q 584 251 619 285 q 494 218 548 218 m 223 1177 l 397 1006 l 600 1006 l 764 1177 l 572 1177 l 504 1103 l 488 1103 l 415 1177 l 223 1177 z "},"Ṷ":{"ha":989,"x_min":85,"x_max":904,"o":"m 494 218 q 405 251 441 218 q 370 360 370 283 l 370 926 l 85 926 l 85 320 q 134 143 85 218 q 276 26 184 67 q 494 -16 368 -16 q 713 26 621 -16 q 854 143 805 67 q 904 320 904 218 l 904 926 l 619 926 l 619 360 q 584 251 619 285 q 494 218 548 218 m 224 -241 l 416 -241 l 489 -168 l 500 -168 l 572 -241 l 765 -241 l 591 -70 l 398 -70 l 224 -241 z "},"Ü":{"ha":989,"x_min":85,"x_max":904,"o":"m 494 218 q 405 251 441 218 q 370 360 370 283 l 370 926 l 85 926 l 85 320 q 134 143 85 218 q 276 26 184 67 q 494 -16 368 -16 q 713 26 621 -16 q 854 143 805 67 q 904 320 904 218 l 904 926 l 619 926 l 619 360 q 584 251 619 285 q 494 218 548 218 m 641 981 q 714 1006 688 981 q 740 1074 740 1032 q 714 1141 740 1115 q 641 1166 688 1166 q 568 1141 594 1166 q 542 1074 542 1115 q 568 1006 542 1032 q 641 981 594 981 m 348 981 q 421 1006 395 981 q 447 1074 447 1032 q 421 1141 447 1115 q 348 1166 395 1166 q 275 1141 301 1166 q 249 1074 249 1115 q 275 1006 249 1032 q 348 981 301 981 z "},"Ǜ":{"ha":989,"x_min":85,"x_max":904,"o":"m 494 218 q 405 251 441 218 q 370 360 370 283 l 370 926 l 85 926 l 85 320 q 134 143 85 218 q 276 26 184 67 q 494 -16 368 -16 q 713 26 621 -16 q 854 143 805 67 q 904 320 904 218 l 904 926 l 619 926 l 619 360 q 584 251 619 285 q 494 218 548 218 m 584 1191 l 467 1319 l 269 1319 l 422 1191 l 584 1191 m 641 981 q 714 1006 688 981 q 740 1074 740 1032 q 714 1141 740 1115 q 641 1166 688 1166 q 568 1141 594 1166 q 542 1074 542 1115 q 568 1006 542 1032 q 641 981 594 981 m 348 981 q 421 1006 395 981 q 447 1074 447 1032 q 421 1141 447 1115 q 348 1166 395 1166 q 275 1141 301 1166 q 249 1074 249 1115 q 275 1006 249 1032 q 348 981 301 981 z "},"Ǘ":{"ha":989,"x_min":85,"x_max":904,"o":"m 494 218 q 405 251 441 218 q 370 360 370 283 l 370 926 l 85 926 l 85 320 q 134 143 85 218 q 276 26 184 67 q 494 -16 368 -16 q 713 26 621 -16 q 854 143 805 67 q 904 320 904 218 l 904 926 l 619 926 l 619 360 q 584 251 619 285 q 494 218 548 218 m 405 1191 l 566 1191 l 720 1319 l 522 1319 l 405 1191 m 641 981 q 714 1006 688 981 q 740 1074 740 1032 q 714 1141 740 1115 q 641 1166 688 1166 q 568 1141 594 1166 q 542 1074 542 1115 q 568 1006 542 1032 q 641 981 594 981 m 348 981 q 421 1006 395 981 q 447 1074 447 1032 q 421 1141 447 1115 q 348 1166 395 1166 q 275 1141 301 1166 q 249 1074 249 1115 q 275 1006 249 1032 q 348 981 301 981 z "},"Ǖ":{"ha":989,"x_min":85,"x_max":904,"o":"m 494 218 q 405 251 441 218 q 370 360 370 283 l 370 926 l 85 926 l 85 320 q 134 143 85 218 q 276 26 184 67 q 494 -16 368 -16 q 713 26 621 -16 q 854 143 805 67 q 904 320 904 218 l 904 926 l 619 926 l 619 360 q 584 251 619 285 q 494 218 548 218 z "},"Ǚ":{"ha":989,"x_min":85,"x_max":904,"o":"m 494 218 q 405 251 441 218 q 370 360 370 283 l 370 926 l 85 926 l 85 320 q 134 143 85 218 q 276 26 184 67 q 494 -16 368 -16 q 713 26 621 -16 q 854 143 805 67 q 904 320 904 218 l 904 926 l 619 926 l 619 360 q 584 251 619 285 q 494 218 548 218 m 355 982 q 421 1008 393 982 q 448 1072 448 1034 q 421 1136 448 1109 q 355 1163 393 1163 q 292 1136 317 1163 q 267 1072 267 1109 q 292 1008 267 1034 q 355 982 317 982 m 629 982 q 695 1008 668 982 q 722 1072 722 1034 q 695 1136 722 1109 q 629 1163 668 1163 q 566 1136 592 1163 q 541 1072 541 1109 q 566 1008 541 1034 q 629 982 592 982 m 229 1319 l 410 1186 l 579 1186 l 760 1319 l 564 1319 l 495 1257 l 494 1257 l 425 1319 l 229 1319 z "},"Ṳ":{"ha":989,"x_min":85,"x_max":904,"o":"m 494 218 q 405 251 441 218 q 370 360 370 283 l 370 926 l 85 926 l 85 320 q 134 143 85 218 q 276 26 184 67 q 494 -16 368 -16 q 713 26 621 -16 q 854 143 805 67 q 904 320 904 218 l 904 926 l 619 926 l 619 360 q 584 251 619 285 q 494 218 548 218 z "},"Ṵ":{"ha":989,"x_min":85,"x_max":904,"o":"m 494 218 q 405 251 441 218 q 370 360 370 283 l 370 926 l 85 926 l 85 320 q 134 143 85 218 q 276 26 184 67 q 494 -16 368 -16 q 713 26 621 -16 q 854 143 805 67 q 904 320 904 218 l 904 926 l 619 926 l 619 360 q 584 251 619 285 q 494 218 548 218 m 592 -280 q 682 -256 642 -280 q 744 -189 721 -231 q 766 -91 766 -146 l 629 -91 q 617 -140 629 -124 q 583 -155 604 -155 q 544 -144 562 -155 q 507 -118 526 -132 q 462 -92 488 -103 q 400 -80 437 -80 q 281 -134 324 -80 q 239 -261 239 -189 l 376 -261 q 385 -226 376 -247 q 418 -205 393 -205 q 452 -216 436 -205 q 486 -242 467 -228 q 530 -269 505 -257 q 592 -280 555 -280 z "},"Ủ":{"ha":989,"x_min":85,"x_max":904,"o":"m 494 218 q 405 251 441 218 q 370 360 370 283 l 370 926 l 85 926 l 85 320 q 134 143 85 218 q 276 26 184 67 q 494 -16 368 -16 q 713 26 621 -16 q 854 143 805 67 q 904 320 904 218 l 904 926 l 619 926 l 619 360 q 584 251 619 285 q 494 218 548 218 m 370 1145 q 398 1151 381 1149 q 427 1153 416 1153 q 475 1143 455 1153 q 494 1109 494 1133 q 481 1076 494 1089 q 449 1056 468 1063 l 522 979 q 570 1011 547 993 q 607 1055 593 1029 q 622 1119 622 1081 q 579 1222 622 1185 q 455 1259 536 1259 q 404 1254 427 1259 q 370 1243 381 1249 l 370 1145 z "},"Ŭ":{"ha":989,"x_min":85,"x_max":904,"o":"m 494 218 q 405 251 441 218 q 370 360 370 283 l 370 926 l 85 926 l 85 320 q 134 143 85 218 q 276 26 184 67 q 494 -16 368 -16 q 713 26 621 -16 q 854 143 805 67 q 904 320 904 218 l 904 926 l 619 926 l 619 360 q 584 251 619 285 q 494 218 548 218 m 250 1209 q 280 1088 250 1138 q 366 1012 311 1038 q 494 985 420 985 q 623 1012 568 985 q 706 1088 677 1038 q 736 1209 736 1139 l 595 1209 q 571 1142 595 1166 q 494 1118 547 1118 q 418 1142 442 1118 q 393 1209 393 1166 l 250 1209 z "},"Ȗ":{"ha":989,"x_min":85,"x_max":904,"o":"m 494 218 q 405 251 441 218 q 370 360 370 283 l 370 926 l 85 926 l 85 320 q 134 143 85 218 q 276 26 184 67 q 494 -16 368 -16 q 713 26 621 -16 q 854 143 805 67 q 904 320 904 218 l 904 926 l 619 926 l 619 360 q 584 251 619 285 q 494 218 548 218 m 250 991 l 393 991 q 420 1056 393 1034 q 494 1078 447 1078 q 569 1056 542 1078 q 595 991 595 1034 l 736 991 q 705 1111 736 1062 q 620 1186 674 1160 q 494 1211 565 1211 q 369 1186 424 1211 q 281 1111 313 1160 q 250 991 250 1062 z "},"Ṹ":{"ha":989,"x_min":85,"x_max":904,"o":"m 494 218 q 405 251 441 218 q 370 360 370 283 l 370 926 l 85 926 l 85 320 q 134 143 85 218 q 276 26 184 67 q 494 -16 368 -16 q 713 26 621 -16 q 854 143 805 67 q 904 320 904 218 l 904 926 l 619 926 l 619 360 q 584 251 619 285 q 494 218 548 218 m 418 1191 l 566 1191 l 720 1319 l 536 1319 l 418 1191 m 591 987 q 673 1008 637 987 q 729 1065 709 1028 q 749 1154 749 1103 l 632 1154 q 622 1112 632 1128 q 591 1096 612 1096 q 555 1106 572 1096 q 519 1130 538 1117 q 474 1154 500 1143 q 413 1164 449 1164 q 325 1139 358 1164 q 276 1075 291 1113 q 260 998 260 1036 l 377 998 q 391 1039 378 1022 q 425 1056 403 1056 q 458 1045 443 1056 q 490 1022 473 1035 q 531 998 507 1008 q 591 987 555 987 z "},"Ụ":{"ha":989,"x_min":85,"x_max":904,"o":"m 494 218 q 405 251 441 218 q 370 360 370 283 l 370 926 l 85 926 l 85 320 q 134 143 85 218 q 276 26 184 67 q 494 -16 368 -16 q 713 26 621 -16 q 854 143 805 67 q 904 320 904 218 l 904 926 l 619 926 l 619 360 q 584 251 619 285 q 494 218 548 218 m 393 -162 q 423 -234 393 -204 q 494 -264 453 -264 q 566 -234 536 -264 q 596 -162 596 -204 q 566 -90 596 -120 q 494 -60 536 -60 q 423 -90 453 -60 q 393 -162 393 -120 z "},"Ũ":{"ha":989,"x_min":85,"x_max":904,"o":"m 494 218 q 405 251 441 218 q 370 360 370 283 l 370 926 l 85 926 l 85 320 q 134 143 85 218 q 276 26 184 67 q 494 -16 368 -16 q 713 26 621 -16 q 854 143 805 67 q 904 320 904 218 l 904 926 l 619 926 l 619 360 q 584 251 619 285 q 494 218 548 218 m 591 987 q 673 1008 637 987 q 729 1065 709 1028 q 749 1154 749 1103 l 632 1154 q 622 1112 632 1128 q 591 1096 612 1096 q 555 1106 572 1096 q 519 1130 538 1117 q 474 1154 500 1143 q 413 1164 449 1164 q 325 1139 358 1164 q 276 1075 291 1113 q 260 998 260 1036 l 377 998 q 391 1039 378 1022 q 425 1056 403 1056 q 458 1045 443 1056 q 490 1022 473 1035 q 531 998 507 1008 q 591 987 555 987 z "},"Ū":{"ha":989,"x_min":85,"x_max":904,"o":"m 494 218 q 405 251 441 218 q 370 360 370 283 l 370 926 l 85 926 l 85 320 q 134 143 85 218 q 276 26 184 67 q 494 -16 368 -16 q 713 26 621 -16 q 854 143 805 67 q 904 320 904 218 l 904 926 l 619 926 l 619 360 q 584 251 619 285 q 494 218 548 218 m 725 1006 l 725 1120 l 264 1120 l 264 1006 l 725 1006 z "},"Ṻ":{"ha":989,"x_min":85,"x_max":904,"o":"m 494 218 q 405 251 441 218 q 370 360 370 283 l 370 926 l 85 926 l 85 320 q 134 143 85 218 q 276 26 184 67 q 494 -16 368 -16 q 713 26 621 -16 q 854 143 805 67 q 904 320 904 218 l 904 926 l 619 926 l 619 360 q 584 251 619 285 q 494 218 548 218 z "},"Ů":{"ha":989,"x_min":85,"x_max":904,"o":"m 494 218 q 405 251 441 218 q 370 360 370 283 l 370 926 l 85 926 l 85 320 q 134 143 85 218 q 276 26 184 67 q 494 -16 368 -16 q 713 26 621 -16 q 854 143 805 67 q 904 320 904 218 l 904 926 l 619 926 l 619 360 q 584 251 619 285 q 494 218 548 218 z "},"Ų":{"ha":989,"x_min":85,"x_max":904,"o":"m 708 -268 q 778 -261 746 -268 q 828 -248 809 -255 l 828 -115 q 802 -121 815 -119 q 777 -123 789 -123 q 720 -107 744 -123 q 695 -57 695 -91 q 713 -2 695 -25 q 755 41 730 21 q 803 83 781 61 q 878 187 852 127 q 904 320 904 247 l 904 926 l 619 926 l 619 360 q 584 251 619 285 q 494 218 548 218 q 405 251 441 218 q 370 360 370 283 l 370 926 l 85 926 l 85 320 q 134 143 85 218 q 276 26 184 67 q 494 -16 368 -16 q 526 -15 510 -16 q 556 -13 541 -14 q 556 -13 556 -13 q 556 -13 556 -13 q 532 -65 540 -38 q 524 -123 524 -92 q 543 -194 524 -161 q 602 -248 562 -227 q 708 -268 642 -268 z "},"Ư":{"ha":1131,"x_min":85,"x_max":1165,"o":"m 494 -14 q 713 28 621 -14 q 854 145 805 69 q 904 322 904 220 l 904 734 l 972 734 q 1076 762 1032 734 q 1142 837 1119 790 q 1165 939 1165 883 l 1165 1090 l 960 1090 l 960 983 q 947 939 960 952 q 905 926 935 926 l 619 926 l 619 362 q 584 253 619 287 q 494 220 548 220 q 405 253 441 220 q 370 362 370 286 l 370 926 l 85 926 l 85 322 q 134 145 85 220 q 276 28 184 69 q 494 -14 368 -14 z "},"Ừ":{"ha":1131,"x_min":85,"x_max":1165,"o":"m 494 -14 q 713 28 621 -14 q 854 145 805 69 q 904 322 904 220 l 904 734 l 972 734 q 1076 762 1032 734 q 1142 837 1119 790 q 1165 939 1165 883 l 1165 1090 l 960 1090 l 960 983 q 947 939 960 952 q 905 926 935 926 l 619 926 l 619 362 q 584 253 619 287 q 494 220 548 220 q 405 253 441 220 q 370 362 370 286 l 370 926 l 85 926 l 85 322 q 134 145 85 220 q 276 28 184 69 q 494 -14 368 -14 m 595 1013 l 437 1228 l 219 1228 l 413 1013 l 595 1013 z "},"Ứ":{"ha":1131,"x_min":85,"x_max":1165,"o":"m 494 -14 q 713 28 621 -14 q 854 145 805 69 q 904 322 904 220 l 904 734 l 972 734 q 1076 762 1032 734 q 1142 837 1119 790 q 1165 939 1165 883 l 1165 1090 l 960 1090 l 960 983 q 947 939 960 952 q 905 926 935 926 l 619 926 l 619 362 q 584 253 619 287 q 494 220 548 220 q 405 253 441 220 q 370 362 370 286 l 370 926 l 85 926 l 85 322 q 134 145 85 220 q 276 28 184 69 q 494 -14 368 -14 m 394 1013 l 576 1013 l 770 1228 l 552 1228 l 394 1013 z "},"Ự":{"ha":1131,"x_min":85,"x_max":1165,"o":"m 494 -14 q 713 28 621 -14 q 854 145 805 69 q 904 322 904 220 l 904 734 l 972 734 q 1076 762 1032 734 q 1142 837 1119 790 q 1165 939 1165 883 l 1165 1090 l 960 1090 l 960 983 q 947 939 960 952 q 905 926 935 926 l 619 926 l 619 362 q 584 253 619 287 q 494 220 548 220 q 405 253 441 220 q 370 362 370 286 l 370 926 l 85 926 l 85 322 q 134 145 85 220 q 276 28 184 69 q 494 -14 368 -14 m 393 -162 q 423 -234 393 -204 q 494 -264 453 -264 q 566 -234 536 -264 q 596 -162 596 -204 q 566 -90 596 -120 q 494 -60 536 -60 q 423 -90 453 -60 q 393 -162 393 -120 z "},"Ử":{"ha":1131,"x_min":85,"x_max":1165,"o":"m 494 -14 q 713 28 621 -14 q 854 145 805 69 q 904 322 904 220 l 904 734 l 972 734 q 1076 762 1032 734 q 1142 837 1119 790 q 1165 939 1165 883 l 1165 1090 l 960 1090 l 960 983 q 947 939 960 952 q 905 926 935 926 l 619 926 l 619 362 q 584 253 619 287 q 494 220 548 220 q 405 253 441 220 q 370 362 370 286 l 370 926 l 85 926 l 85 322 q 134 145 85 220 q 276 28 184 69 q 494 -14 368 -14 m 370 1145 q 398 1151 381 1149 q 427 1153 416 1153 q 475 1143 455 1153 q 494 1109 494 1133 q 481 1076 494 1089 q 449 1056 468 1063 l 522 979 q 570 1011 547 993 q 607 1055 593 1029 q 622 1119 622 1081 q 579 1222 622 1185 q 455 1259 536 1259 q 404 1254 427 1259 q 370 1243 381 1249 l 370 1145 z "},"Ữ":{"ha":1131,"x_min":85,"x_max":1165,"o":"m 494 -14 q 713 28 621 -14 q 854 145 805 69 q 904 322 904 220 l 904 734 l 972 734 q 1076 762 1032 734 q 1142 837 1119 790 q 1165 939 1165 883 l 1165 1090 l 960 1090 l 960 983 q 947 939 960 952 q 905 926 935 926 l 619 926 l 619 362 q 584 253 619 287 q 494 220 548 220 q 405 253 441 220 q 370 362 370 286 l 370 926 l 85 926 l 85 322 q 134 145 85 220 q 276 28 184 69 q 494 -14 368 -14 m 591 987 q 673 1008 637 987 q 729 1065 709 1028 q 749 1154 749 1103 l 632 1154 q 622 1112 632 1128 q 591 1096 612 1096 q 555 1106 572 1096 q 519 1130 538 1117 q 474 1154 500 1143 q 413 1164 449 1164 q 325 1139 358 1164 q 276 1075 291 1113 q 260 998 260 1036 l 377 998 q 391 1039 378 1022 q 425 1056 403 1056 q 458 1045 443 1056 q 490 1022 473 1035 q 531 998 507 1008 q 591 987 555 987 z "},"V":{"ha":939,"x_min":14,"x_max":925,"o":"m 286 0 l 659 0 l 925 926 l 614 926 l 488 292 l 475 292 l 346 926 l 14 926 l 286 0 z "},"Ṽ":{"ha":939,"x_min":14,"x_max":925,"o":"m 286 0 l 659 0 l 925 926 l 614 926 l 488 292 l 475 292 l 346 926 l 14 926 l 286 0 m 566 987 q 648 1008 612 987 q 704 1065 684 1028 q 724 1154 724 1103 l 607 1154 q 597 1112 607 1128 q 566 1096 587 1096 q 530 1106 547 1096 q 494 1130 513 1117 q 449 1154 475 1143 q 388 1164 424 1164 q 299 1139 333 1164 q 251 1075 266 1113 q 235 998 235 1036 l 352 998 q 366 1039 353 1022 q 399 1056 378 1056 q 433 1045 418 1056 q 465 1022 448 1035 q 506 998 482 1008 q 566 987 530 987 z "},"Ṿ":{"ha":939,"x_min":14,"x_max":925,"o":"m 286 0 l 659 0 l 925 926 l 614 926 l 488 292 l 475 292 l 346 926 l 14 926 l 286 0 m 368 -162 q 398 -234 368 -204 q 469 -264 428 -264 q 541 -234 511 -264 q 571 -162 571 -204 q 541 -90 571 -120 q 469 -60 511 -60 q 398 -90 428 -60 q 368 -162 368 -120 z "},"W":{"ha":1299,"x_min":14,"x_max":1285,"o":"m 509 0 l 645 509 l 655 509 l 790 0 l 1058 0 l 1285 926 l 991 926 l 906 364 l 892 364 l 760 926 l 541 926 l 408 364 l 395 364 l 307 926 l 14 926 l 241 0 l 509 0 z "},"Ẁ":{"ha":1299,"x_min":14,"x_max":1285,"o":"m 509 0 l 645 509 l 655 509 l 790 0 l 1058 0 l 1285 926 l 991 926 l 906 364 l 892 364 l 760 926 l 541 926 l 408 364 l 395 364 l 307 926 l 14 926 l 241 0 l 509 0 m 750 1013 l 592 1228 l 374 1228 l 568 1013 l 750 1013 z "},"Ẃ":{"ha":1299,"x_min":14,"x_max":1285,"o":"m 509 0 l 645 509 l 655 509 l 790 0 l 1058 0 l 1285 926 l 991 926 l 906 364 l 892 364 l 760 926 l 541 926 l 408 364 l 395 364 l 307 926 l 14 926 l 241 0 l 509 0 m 549 1013 l 731 1013 l 925 1228 l 707 1228 l 549 1013 z "},"Ẇ":{"ha":1299,"x_min":14,"x_max":1285,"o":"m 509 0 l 645 509 l 655 509 l 790 0 l 1058 0 l 1285 926 l 991 926 l 906 364 l 892 364 l 760 926 l 541 926 l 408 364 l 395 364 l 307 926 l 14 926 l 241 0 l 509 0 m 538 1122 q 571 1043 538 1076 q 650 1010 604 1010 q 728 1043 696 1010 q 761 1122 761 1076 q 728 1200 761 1168 q 650 1233 696 1233 q 571 1200 604 1233 q 538 1122 538 1168 z "},"Ẉ":{"ha":1299,"x_min":14,"x_max":1285,"o":"m 509 0 l 645 509 l 655 509 l 790 0 l 1058 0 l 1285 926 l 991 926 l 906 364 l 892 364 l 760 926 l 541 926 l 408 364 l 395 364 l 307 926 l 14 926 l 241 0 l 509 0 m 548 -162 q 578 -234 548 -204 q 650 -264 608 -264 q 722 -234 692 -264 q 751 -162 751 -204 q 722 -90 751 -120 q 650 -60 692 -60 q 578 -90 608 -60 q 548 -162 548 -120 z "},"Ẅ":{"ha":1299,"x_min":14,"x_max":1285,"o":"m 509 0 l 645 509 l 655 509 l 790 0 l 1058 0 l 1285 926 l 991 926 l 906 364 l 892 364 l 760 926 l 541 926 l 408 364 l 395 364 l 307 926 l 14 926 l 241 0 l 509 0 m 796 981 q 869 1006 843 981 q 895 1074 895 1032 q 869 1141 895 1115 q 796 1166 843 1166 q 723 1141 749 1166 q 697 1074 697 1115 q 723 1006 697 1032 q 796 981 749 981 m 503 981 q 576 1006 550 981 q 602 1074 602 1032 q 576 1141 602 1115 q 503 1166 550 1166 q 430 1141 456 1166 q 404 1074 404 1115 q 430 1006 404 1032 q 503 981 456 981 z "},"Ŵ":{"ha":1299,"x_min":14,"x_max":1285,"o":"m 509 0 l 645 509 l 655 509 l 790 0 l 1058 0 l 1285 926 l 991 926 l 906 364 l 892 364 l 760 926 l 541 926 l 408 364 l 395 364 l 307 926 l 14 926 l 241 0 l 509 0 m 745 1173 l 555 1173 l 377 1001 l 569 1001 l 646 1075 l 654 1075 l 726 1001 l 918 1001 l 745 1173 z "},"X":{"ha":903,"x_min":0,"x_max":915,"o":"m 915 926 l 598 926 l 471 646 l 459 646 l 332 926 l 0 926 l 263 466 l 1 0 l 302 0 l 444 268 l 454 268 l 597 0 l 914 0 l 640 466 l 915 926 z "},"Ẋ":{"ha":903,"x_min":0,"x_max":915,"o":"m 915 926 l 598 926 l 471 646 l 459 646 l 332 926 l 0 926 l 263 466 l 1 0 l 302 0 l 444 268 l 454 268 l 597 0 l 914 0 l 640 466 l 915 926 m 340 1122 q 373 1043 340 1076 q 452 1010 406 1010 q 530 1043 498 1010 q 563 1122 563 1076 q 530 1200 563 1168 q 452 1233 498 1233 q 373 1200 406 1233 q 340 1122 340 1168 z "},"Ẍ":{"ha":903,"x_min":0,"x_max":915,"o":"m 915 926 l 598 926 l 471 646 l 459 646 l 332 926 l 0 926 l 263 466 l 1 0 l 302 0 l 444 268 l 454 268 l 597 0 l 914 0 l 640 466 l 915 926 m 598 981 q 671 1006 645 981 q 697 1074 697 1032 q 671 1141 697 1115 q 598 1166 645 1166 q 525 1141 551 1166 q 499 1074 499 1115 q 525 1006 499 1032 q 598 981 551 981 m 305 981 q 378 1006 352 981 q 404 1074 404 1032 q 378 1141 404 1115 q 305 1166 352 1166 q 232 1141 258 1166 q 206 1074 206 1115 q 232 1006 206 1032 q 305 981 258 981 z "},"Y":{"ha":884,"x_min":-11,"x_max":895,"o":"m 585 0 l 585 288 l 895 926 l 598 926 l 452 562 l 442 562 l 298 926 l -11 926 l 300 279 l 300 0 l 585 0 z "},"Ỳ":{"ha":884,"x_min":-11,"x_max":895,"o":"m 585 0 l 585 288 l 895 926 l 598 926 l 452 562 l 442 562 l 298 926 l -11 926 l 300 279 l 300 0 l 585 0 m 542 1013 l 384 1228 l 166 1228 l 360 1013 l 542 1013 z "},"Ý":{"ha":884,"x_min":-11,"x_max":895,"o":"m 585 0 l 585 288 l 895 926 l 598 926 l 452 562 l 442 562 l 298 926 l -11 926 l 300 279 l 300 0 l 585 0 m 341 1013 l 523 1013 l 717 1228 l 499 1228 l 341 1013 z "},"Ẏ":{"ha":884,"x_min":-11,"x_max":895,"o":"m 585 0 l 585 288 l 895 926 l 598 926 l 452 562 l 442 562 l 298 926 l -11 926 l 300 279 l 300 0 l 585 0 m 330 1122 q 363 1043 330 1076 q 441 1010 395 1010 q 520 1043 488 1010 q 553 1122 553 1076 q 520 1200 553 1168 q 441 1233 488 1233 q 363 1200 395 1233 q 330 1122 330 1168 z "},"Ỵ":{"ha":884,"x_min":-11,"x_max":895,"o":"m 585 0 l 585 288 l 895 926 l 598 926 l 452 562 l 442 562 l 298 926 l -11 926 l 300 279 l 300 0 l 585 0 m 340 -162 q 370 -234 340 -204 q 441 -264 400 -264 q 513 -234 484 -264 q 543 -162 543 -204 q 513 -90 543 -120 q 441 -60 484 -60 q 370 -90 400 -60 q 340 -162 340 -120 z "},"Ÿ":{"ha":884,"x_min":-11,"x_max":895,"o":"m 585 0 l 585 288 l 895 926 l 598 926 l 452 562 l 442 562 l 298 926 l -11 926 l 300 279 l 300 0 l 585 0 m 588 981 q 661 1006 635 981 q 687 1074 687 1032 q 661 1141 687 1115 q 588 1166 635 1166 q 515 1141 541 1166 q 489 1074 489 1115 q 515 1006 489 1032 q 588 981 541 981 m 295 981 q 368 1006 342 981 q 394 1074 394 1032 q 368 1141 394 1115 q 295 1166 342 1166 q 222 1141 248 1166 q 196 1074 196 1115 q 222 1006 196 1032 q 295 981 248 981 z "},"Ỹ":{"ha":884,"x_min":-11,"x_max":895,"o":"m 585 0 l 585 288 l 895 926 l 598 926 l 452 562 l 442 562 l 298 926 l -11 926 l 300 279 l 300 0 l 585 0 m 538 987 q 620 1008 585 987 q 676 1065 656 1028 q 696 1154 696 1103 l 579 1154 q 569 1112 579 1128 q 538 1096 559 1096 q 502 1106 519 1096 q 466 1130 485 1117 q 421 1154 447 1143 q 360 1164 396 1164 q 272 1139 305 1164 q 223 1075 238 1113 q 208 998 208 1036 l 324 998 q 338 1039 326 1022 q 372 1056 350 1056 q 405 1045 390 1056 q 437 1022 420 1035 q 478 998 454 1008 q 538 987 502 987 z "},"Ŷ":{"ha":884,"x_min":-11,"x_max":895,"o":"m 585 0 l 585 288 l 895 926 l 598 926 l 452 562 l 442 562 l 298 926 l -11 926 l 300 279 l 300 0 l 585 0 m 537 1173 l 347 1173 l 169 1001 l 361 1001 l 437 1075 l 446 1075 l 517 1001 l 709 1001 l 537 1173 z "},"Ȳ":{"ha":884,"x_min":-11,"x_max":895,"o":"m 585 0 l 585 288 l 895 926 l 598 926 l 452 562 l 442 562 l 298 926 l -11 926 l 300 279 l 300 0 l 585 0 m 672 1006 l 672 1120 l 211 1120 l 211 1006 l 672 1006 z "},"Ỷ":{"ha":884,"x_min":-11,"x_max":895,"o":"m 585 0 l 585 288 l 895 926 l 598 926 l 452 562 l 442 562 l 298 926 l -11 926 l 300 279 l 300 0 l 585 0 m 317 1145 q 346 1151 328 1149 q 374 1153 363 1153 q 422 1143 402 1153 q 441 1109 441 1133 q 428 1076 441 1089 q 396 1056 415 1063 l 469 979 q 517 1011 494 993 q 554 1055 540 1029 q 569 1119 569 1081 q 526 1222 569 1185 q 402 1259 483 1259 q 351 1254 374 1259 q 317 1243 328 1249 l 317 1145 z "},"Z":{"ha":864,"x_min":75,"x_max":803,"o":"m 75 0 l 803 0 l 803 221 l 414 221 l 414 235 l 787 748 l 787 926 l 78 926 l 78 705 l 448 705 l 448 692 l 75 178 l 75 0 z "},"Ź":{"ha":864,"x_min":75,"x_max":803,"o":"m 75 0 l 803 0 l 803 221 l 414 221 l 414 235 l 787 748 l 787 926 l 78 926 l 78 705 l 448 705 l 448 692 l 75 178 l 75 0 m 332 1013 l 513 1013 l 707 1228 l 490 1228 l 332 1013 z "},"Ž":{"ha":864,"x_min":75,"x_max":803,"o":"m 75 0 l 803 0 l 803 221 l 414 221 l 414 235 l 787 748 l 787 926 l 78 926 l 78 705 l 448 705 l 448 692 l 75 178 l 75 0 m 161 1177 l 335 1006 l 537 1006 l 702 1177 l 509 1177 l 441 1103 l 426 1103 l 353 1177 l 161 1177 z "},"Ẑ":{"ha":864,"x_min":75,"x_max":803,"o":"m 75 0 l 803 0 l 803 221 l 414 221 l 414 235 l 787 748 l 787 926 l 78 926 l 78 705 l 448 705 l 448 692 l 75 178 l 75 0 m 528 1173 l 337 1173 l 159 1001 l 351 1001 l 428 1075 l 437 1075 l 508 1001 l 700 1001 l 528 1173 z "},"Ẕ":{"ha":864,"x_min":75,"x_max":803,"o":"m 75 0 l 803 0 l 803 221 l 414 221 l 414 235 l 787 748 l 787 926 l 78 926 l 78 705 l 448 705 l 448 692 l 75 178 l 75 0 z "},"Ẓ":{"ha":864,"x_min":75,"x_max":803,"o":"m 75 0 l 803 0 l 803 221 l 414 221 l 414 235 l 787 748 l 787 926 l 78 926 l 78 705 l 448 705 l 448 692 l 75 178 l 75 0 m 330 -162 q 360 -234 330 -204 q 432 -264 391 -264 q 504 -234 474 -264 q 534 -162 534 -204 q 504 -90 534 -120 q 432 -60 474 -60 q 360 -90 391 -60 q 330 -162 330 -120 z "},"Ż":{"ha":864,"x_min":75,"x_max":803,"o":"m 75 0 l 803 0 l 803 221 l 414 221 l 414 235 l 787 748 l 787 926 l 78 926 l 78 705 l 448 705 l 448 692 l 75 178 l 75 0 m 321 1122 q 353 1043 321 1076 q 432 1010 386 1010 q 511 1043 478 1010 q 543 1122 543 1076 q 511 1200 543 1168 q 432 1233 478 1233 q 353 1200 386 1233 q 321 1122 321 1168 z "},"Æ":{"ha":1361,"x_min":16,"x_max":1286,"o":"m 583 707 l 625 707 l 625 370 l 465 369 l 583 707 m 625 159 l 625 0 l 1286 0 l 1286 219 l 905 219 l 905 363 l 1261 363 l 1261 561 l 905 561 l 905 707 l 1286 707 l 1286 926 l 396 926 l 16 0 l 324 0 l 385 159 l 625 159 z "},"Ǣ":{"ha":1361,"x_min":16,"x_max":1286,"o":"m 583 707 l 625 707 l 625 370 l 465 369 l 583 707 m 625 159 l 625 0 l 1286 0 l 1286 219 l 905 219 l 905 363 l 1261 363 l 1261 561 l 905 561 l 905 707 l 1286 707 l 1286 926 l 396 926 l 16 0 l 324 0 l 385 159 l 625 159 m 1171 1006 l 1171 1120 l 709 1120 l 709 1006 l 1171 1006 z "},"Ǽ":{"ha":1361,"x_min":16,"x_max":1286,"o":"m 583 707 l 625 707 l 625 370 l 465 369 l 583 707 m 625 159 l 625 0 l 1286 0 l 1286 219 l 905 219 l 905 363 l 1261 363 l 1261 561 l 905 561 l 905 707 l 1286 707 l 1286 926 l 396 926 l 16 0 l 324 0 l 385 159 l 625 159 m 840 1013 l 1021 1013 l 1215 1228 l 998 1228 l 840 1013 z "},"Œ":{"ha":1376,"x_min":57,"x_max":1301,"o":"m 362 511 q 380 623 362 577 q 431 691 398 668 q 509 715 464 715 q 587 691 555 715 q 637 623 620 668 q 655 511 655 577 l 655 412 q 637 300 655 346 q 587 231 620 254 q 509 208 555 208 q 431 231 464 208 q 380 300 398 254 q 362 412 362 346 l 362 511 m 437 -16 q 591 17 532 -16 q 681 98 651 50 l 696 98 l 696 0 l 1301 0 l 1301 219 l 923 219 l 923 363 l 1276 363 l 1276 561 l 923 561 l 923 707 l 1301 707 l 1301 926 l 696 926 l 696 827 l 681 827 q 586 911 648 882 q 437 941 524 941 q 242 892 328 941 q 106 746 156 843 q 57 505 57 649 l 57 418 q 102 193 57 291 q 232 40 147 96 q 437 -16 317 -16 z "},"Ð":{"ha":1044,"x_min":50,"x_max":993,"o":"m 568 0 q 809 59 715 0 q 948 223 903 117 q 993 469 993 329 q 949 709 993 606 q 812 869 905 812 q 568 926 718 926 l 165 926 l 165 587 l 50 587 l 50 342 l 165 342 l 165 0 l 568 0 m 450 227 l 450 342 l 553 342 l 553 587 l 450 587 l 450 715 l 513 715 q 620 691 578 715 q 680 614 661 668 q 699 468 699 560 q 688 352 699 399 q 655 278 677 306 q 597 239 632 251 q 513 227 562 227 l 450 227 z "},"Þ":{"ha":897,"x_min":95,"x_max":859,"o":"m 571 463 q 555 392 571 421 q 509 348 538 363 q 440 332 479 332 l 378 332 l 378 593 l 440 593 q 535 560 499 593 q 571 463 571 527 m 859 463 q 822 629 859 551 q 710 755 785 707 q 517 803 635 803 l 378 803 l 378 926 l 95 926 l 95 0 l 379 0 l 379 127 l 513 127 q 707 174 631 127 q 821 296 784 220 q 859 463 859 372 z "},"Α":{"ha":952,"x_min":16,"x_max":936,"o":"m 298 0 l 339 175 l 592 175 l 632 0 l 936 0 l 658 926 l 297 926 l 16 0 l 298 0 m 475 690 l 547 375 l 386 375 l 460 690 l 475 690 z "},"Β":{"ha":926,"x_min":95,"x_max":881,"o":"m 95 0 l 560 0 q 718 31 645 0 q 836 120 791 61 q 881 264 881 179 q 846 390 881 342 q 762 461 812 438 q 667 486 713 484 l 667 498 q 750 527 710 504 q 816 593 790 551 q 842 699 842 636 q 759 866 842 807 q 542 926 675 926 l 95 926 l 95 0 m 376 736 l 463 736 q 539 712 513 736 q 566 650 566 688 q 556 607 566 627 q 523 575 545 587 q 465 562 500 562 l 376 562 l 376 736 m 376 394 l 472 394 q 540 381 513 394 q 580 346 567 368 q 593 294 593 323 q 565 221 593 252 q 473 190 536 190 l 376 190 l 376 394 z "},"Γ":{"ha":787,"x_min":95,"x_max":739,"o":"m 380 0 l 380 703 l 739 703 l 739 926 l 95 926 l 95 0 l 380 0 z "},"Δ":{"ha":954,"x_min":43,"x_max":910,"o":"m 910 131 l 658 926 l 297 926 l 43 131 l 43 0 l 910 0 l 910 131 m 475 684 l 604 200 l 331 200 l 460 684 l 475 684 z "},"Ε":{"ha":829,"x_min":95,"x_max":755,"o":"m 755 219 l 376 219 l 376 363 l 730 363 l 730 561 l 376 561 l 376 707 l 755 707 l 755 926 l 95 926 l 95 0 l 755 0 l 755 219 z "},"Ζ":{"ha":864,"x_min":75,"x_max":803,"o":"m 75 0 l 803 0 l 803 221 l 414 221 l 414 235 l 787 748 l 787 926 l 78 926 l 78 705 l 448 705 l 448 692 l 75 178 l 75 0 z "},"Η":{"ha":1027,"x_min":95,"x_max":932,"o":"m 932 0 l 932 926 l 648 926 l 648 576 l 380 576 l 380 926 l 95 926 l 95 0 l 380 0 l 380 351 l 648 351 l 648 0 l 932 0 z "},"Θ":{"ha":1056,"x_min":57,"x_max":999,"o":"m 342 517 q 366 622 342 580 q 431 686 389 665 q 528 708 473 708 q 623 687 581 708 q 690 623 665 665 q 714 517 714 581 l 714 408 q 689 302 714 345 q 623 238 665 260 q 528 217 581 217 q 434 239 477 217 q 367 303 392 261 q 342 408 342 346 l 342 517 m 57 416 q 116 183 57 279 q 281 35 175 86 q 528 -16 387 -16 q 776 35 670 -16 q 940 183 882 86 q 999 416 999 279 l 999 507 q 940 741 999 644 q 776 889 882 838 q 528 941 670 941 q 281 890 387 941 q 116 742 175 839 q 57 507 57 645 l 57 416 m 653 356 l 653 568 l 403 568 l 403 356 l 653 356 z "},"Ι":{"ha":475,"x_min":95,"x_max":380,"o":"m 380 0 l 380 926 l 95 926 l 95 0 l 380 0 z "},"Κ":{"ha":964,"x_min":95,"x_max":967,"o":"m 959 926 l 662 926 l 393 563 l 380 563 l 380 926 l 95 926 l 95 0 l 380 0 l 380 253 l 444 334 l 637 0 l 967 0 l 652 520 l 959 926 z "},"Λ":{"ha":939,"x_min":16,"x_max":922,"o":"m 618 0 l 922 0 l 651 926 l 290 926 l 16 0 l 298 0 l 454 650 l 468 650 l 618 0 z "},"Μ":{"ha":1189,"x_min":95,"x_max":1094,"o":"m 347 0 l 347 516 l 360 516 l 519 176 l 668 176 l 825 516 l 838 516 l 838 0 l 1094 0 l 1094 926 l 799 926 l 600 513 l 591 513 l 393 926 l 95 926 l 95 0 l 347 0 z "},"Ν":{"ha":991,"x_min":95,"x_max":896,"o":"m 356 0 l 356 456 l 367 456 l 684 0 l 896 0 l 896 926 l 635 926 l 635 478 l 624 478 l 309 926 l 95 926 l 95 0 l 356 0 z "},"Ξ":{"ha":851,"x_min":75,"x_max":777,"o":"m 75 700 l 777 700 l 777 926 l 75 926 l 75 700 m 134 359 l 718 359 l 718 564 l 134 564 l 134 359 m 75 0 l 777 0 l 777 226 l 75 226 l 75 0 z "},"Ο":{"ha":988,"x_min":57,"x_max":931,"o":"m 640 511 l 640 414 q 622 302 640 348 q 572 233 604 256 q 494 210 540 210 q 416 233 449 210 q 366 302 384 256 q 349 414 349 348 l 349 511 q 366 623 349 577 q 416 691 384 668 q 494 715 449 715 q 572 691 540 715 q 622 623 604 668 q 640 511 640 577 m 931 416 l 931 507 q 881 735 931 637 q 733 886 831 832 q 494 941 636 941 q 256 887 353 941 q 107 736 158 833 q 57 507 57 638 l 57 416 q 107 189 57 286 q 256 38 158 92 q 494 -16 353 -16 q 733 38 636 -16 q 881 189 831 92 q 931 416 931 286 z "},"Π":{"ha":1014,"x_min":95,"x_max":919,"o":"m 380 701 l 634 701 l 634 0 l 919 0 l 919 926 l 95 926 l 95 0 l 380 0 l 380 701 z "},"Ρ":{"ha":897,"x_min":95,"x_max":859,"o":"m 517 926 l 95 926 l 95 0 l 379 0 l 379 250 l 513 250 q 707 296 631 250 q 821 419 784 342 q 859 585 859 495 q 822 752 859 674 q 710 878 785 829 q 517 926 635 926 m 571 585 q 555 515 571 544 q 509 470 538 486 q 440 455 479 455 l 378 455 l 378 715 l 440 715 q 535 683 499 715 q 571 585 571 650 z "},"Σ":{"ha":864,"x_min":75,"x_max":803,"o":"m 803 0 l 803 221 l 438 221 l 438 235 l 595 458 l 595 484 l 442 692 l 442 705 l 794 705 l 794 926 l 77 926 l 77 748 l 291 467 l 75 151 l 75 0 l 803 0 z "},"Τ":{"ha":799,"x_min":22,"x_max":777,"o":"m 542 0 l 542 698 l 777 698 l 777 926 l 22 926 l 22 698 l 257 698 l 257 0 l 542 0 z "},"Υ":{"ha":884,"x_min":-11,"x_max":895,"o":"m 585 0 l 585 288 l 895 926 l 598 926 l 452 562 l 442 562 l 298 926 l -11 926 l 300 279 l 300 0 l 585 0 z "},"Φ":{"ha":1214,"x_min":50,"x_max":1164,"o":"m 732 -75 l 732 14 q 972 75 877 18 q 1116 230 1068 131 q 1164 459 1164 328 q 1164 459 1164 459 q 1164 459 1164 459 q 1115 691 1164 593 q 971 845 1067 789 q 732 904 875 900 l 732 1000 l 481 1000 l 481 904 q 243 845 339 900 q 99 691 147 789 q 50 459 50 593 q 50 459 50 459 q 50 459 50 459 q 98 230 50 328 q 242 75 146 131 q 481 14 338 18 l 481 -75 l 732 -75 m 488 217 q 377 277 418 222 q 335 433 335 332 l 335 483 q 375 639 335 580 q 488 701 414 698 l 488 217 m 726 217 l 726 701 q 840 639 800 698 q 879 483 879 580 l 879 433 q 838 277 879 332 q 726 217 796 222 z "},"Χ":{"ha":915,"x_min":0,"x_max":915,"o":"m 915 926 l 598 926 l 471 646 l 459 646 l 332 926 l 0 926 l 263 466 l 1 0 l 302 0 l 444 268 l 454 268 l 597 0 l 914 0 l 640 466 l 915 926 z "},"Ψ":{"ha":1159,"x_min":85,"x_max":1074,"o":"m 448 0 l 711 0 l 711 173 q 980 263 886 180 q 1074 522 1074 346 l 1074 926 l 810 926 l 810 514 q 787 423 810 453 q 711 387 764 393 l 711 926 l 448 926 l 448 387 q 372 422 395 393 q 349 514 349 452 l 349 926 l 85 926 l 85 522 q 179 263 85 346 q 448 173 273 180 l 448 0 z "},"Ω":{"ha":1050,"x_min":57,"x_max":994,"o":"m 578 0 l 994 0 l 994 233 l 831 233 l 831 248 q 898 307 868 269 q 945 395 928 345 q 963 504 963 446 l 963 541 q 912 754 963 665 q 764 892 862 844 q 525 941 667 941 q 286 892 384 941 q 138 754 189 844 q 87 541 87 665 l 87 504 q 105 395 87 446 q 153 307 123 345 q 220 248 183 269 l 220 233 l 57 233 l 57 0 l 472 0 l 472 291 q 425 330 446 301 q 391 402 404 358 q 379 500 379 446 l 379 531 q 397 629 379 587 q 447 692 414 670 q 525 715 480 715 q 603 692 570 715 q 654 629 636 670 q 671 531 671 587 l 671 500 q 659 402 671 446 q 626 330 647 358 q 578 291 606 301 l 578 0 z "},"Ά":{"ha":1107,"x_min":47,"x_max":1090,"o":"m 452 0 l 494 175 l 747 175 l 787 0 l 1090 0 l 812 926 l 452 926 l 171 0 l 452 0 m 629 690 l 701 375 l 541 375 l 615 690 l 629 690 z "},"Έ":{"ha":1135,"x_min":47,"x_max":1060,"o":"m 1060 219 l 682 219 l 682 363 l 1035 363 l 1035 561 l 682 561 l 682 707 l 1060 707 l 1060 926 l 400 926 l 400 0 l 1060 0 l 1060 219 z "},"Ή":{"ha":1333,"x_min":47,"x_max":1238,"o":"m 1238 0 l 1238 926 l 953 926 l 953 576 l 685 576 l 685 926 l 400 926 l 400 0 l 685 0 l 685 351 l 953 351 l 953 0 l 1238 0 z "},"Ί":{"ha":780,"x_min":47,"x_max":685,"o":"m 685 0 l 685 926 l 400 926 l 400 0 l 685 0 z "},"Ϊ":{"ha":475,"x_min":-8,"x_max":483,"o":"m 380 0 l 380 926 l 95 926 l 95 0 l 380 0 m 384 981 q 457 1006 431 981 q 483 1074 483 1032 q 457 1141 483 1115 q 384 1166 431 1166 q 311 1141 337 1166 q 285 1074 285 1115 q 311 1006 285 1032 q 384 981 337 981 m 91 981 q 164 1006 138 981 q 190 1074 190 1032 q 164 1141 190 1115 q 91 1166 138 1166 q 18 1141 44 1166 q -8 1074 -8 1115 q 18 1006 -8 1032 q 91 981 44 981 z "},"Ό":{"ha":1225,"x_min":47,"x_max":1168,"o":"m 877 511 l 877 414 q 859 302 877 348 q 809 233 842 256 q 732 210 777 210 q 654 233 686 210 q 604 302 621 256 q 586 414 586 348 l 586 511 q 604 623 586 577 q 654 691 621 668 q 732 715 686 715 q 809 691 777 715 q 859 623 842 668 q 877 511 877 577 m 1168 416 l 1168 507 q 1118 735 1168 637 q 971 886 1068 832 q 732 941 873 941 q 493 887 591 941 q 345 736 395 833 q 294 507 294 638 l 294 416 q 345 189 294 286 q 493 38 395 92 q 732 -16 591 -16 q 971 38 873 -16 q 1118 189 1068 92 q 1168 416 1168 286 z "},"Ύ":{"ha":1279,"x_min":47,"x_max":1290,"o":"m 979 0 l 979 288 l 1290 926 l 993 926 l 847 562 l 837 562 l 692 926 l 384 926 l 694 279 l 694 0 l 979 0 z "},"Ϋ":{"ha":884,"x_min":-11,"x_max":895,"o":"m 585 0 l 585 288 l 895 926 l 598 926 l 452 562 l 442 562 l 298 926 l -11 926 l 300 279 l 300 0 l 585 0 m 588 981 q 661 1006 635 981 q 687 1074 687 1032 q 661 1141 687 1115 q 588 1166 635 1166 q 515 1141 541 1166 q 489 1074 489 1115 q 515 1006 489 1032 q 588 981 541 981 m 295 981 q 368 1006 342 981 q 394 1074 394 1032 q 368 1141 394 1115 q 295 1166 342 1166 q 222 1141 248 1166 q 196 1074 196 1115 q 222 1006 196 1032 q 295 981 248 981 z "},"Ώ":{"ha":1274,"x_min":47,"x_max":1217,"o":"m 802 0 l 1217 0 l 1217 233 l 1055 233 l 1055 248 q 1122 307 1092 269 q 1169 395 1152 345 q 1187 504 1187 446 l 1187 541 q 1136 754 1187 665 q 988 892 1086 844 q 749 941 890 941 q 510 892 608 941 q 362 754 412 844 q 311 541 311 665 l 311 504 q 329 395 311 446 q 377 307 347 345 q 444 248 407 269 l 444 233 l 281 233 l 281 0 l 696 0 l 696 291 q 648 330 669 301 q 615 402 627 358 q 603 500 603 446 l 603 531 q 621 629 603 587 q 671 692 638 670 q 749 715 704 715 q 827 692 794 715 q 878 629 860 670 q 895 531 895 587 l 895 500 q 883 402 895 446 q 850 330 871 358 q 802 291 829 301 l 802 0 z "},"А":{"ha":966,"x_min":23,"x_max":943,"o":"m 304 0 l 346 175 l 599 175 l 639 0 l 943 0 l 665 926 l 304 926 l 23 0 l 304 0 m 481 690 l 553 375 l 393 375 l 467 690 l 481 690 z "},"Ӑ":{"ha":966,"x_min":23,"x_max":943,"o":"m 304 0 l 346 175 l 599 175 l 639 0 l 943 0 l 665 926 l 304 926 l 23 0 l 304 0 m 481 690 l 553 375 l 393 375 l 467 690 l 481 690 m 233 1207 q 298 1043 233 1103 q 475 983 362 983 q 652 1043 587 983 q 716 1207 716 1103 l 572 1207 q 548 1137 572 1160 q 475 1113 523 1113 q 402 1137 427 1113 q 377 1207 377 1160 l 233 1207 z "},"Ӓ":{"ha":966,"x_min":23,"x_max":943,"o":"m 304 0 l 346 175 l 599 175 l 639 0 l 943 0 l 665 926 l 304 926 l 23 0 l 304 0 m 481 690 l 553 375 l 393 375 l 467 690 l 481 690 m 629 981 q 702 1006 676 981 q 728 1074 728 1032 q 702 1141 728 1115 q 629 1166 676 1166 q 556 1141 583 1166 q 530 1074 530 1115 q 556 1006 530 1032 q 629 981 583 981 m 336 981 q 409 1006 383 981 q 435 1074 435 1032 q 409 1141 435 1115 q 336 1166 383 1166 q 263 1141 290 1166 q 237 1074 237 1115 q 263 1006 237 1032 q 336 981 290 981 z "},"Б":{"ha":909,"x_min":102,"x_max":865,"o":"m 865 307 q 828 453 865 386 q 714 561 791 520 q 520 601 637 601 l 386 601 l 386 703 l 766 703 l 766 926 l 102 926 l 102 0 l 524 0 q 717 43 642 0 q 829 157 792 87 q 865 307 865 227 m 385 210 l 385 403 l 460 403 q 546 378 513 403 q 578 307 578 353 q 546 235 578 259 q 460 210 513 210 l 385 210 z "},"В":{"ha":939,"x_min":102,"x_max":888,"o":"m 102 0 l 567 0 q 725 31 652 0 q 843 120 798 61 q 888 264 888 179 q 853 390 888 342 q 769 461 819 438 q 673 486 720 484 l 673 498 q 757 527 717 504 q 823 593 797 551 q 848 699 848 636 q 765 866 848 807 q 549 926 682 926 l 102 926 l 102 0 m 383 736 l 470 736 q 546 712 519 736 q 573 650 573 688 q 563 607 573 627 q 530 575 552 587 q 471 562 507 562 l 383 562 l 383 736 m 383 394 l 479 394 q 547 381 520 394 q 587 346 574 368 q 600 294 600 323 q 571 221 600 252 q 480 190 543 190 l 383 190 l 383 394 z "},"Г":{"ha":800,"x_min":102,"x_max":753,"o":"m 387 0 l 387 703 l 753 703 l 753 926 l 102 926 l 102 0 l 387 0 z "},"Ѓ":{"ha":800,"x_min":102,"x_max":753,"o":"m 387 0 l 387 703 l 753 703 l 753 926 l 102 926 l 102 0 l 387 0 m 302 1013 l 484 1013 l 677 1228 l 460 1228 l 302 1013 z "},"Ґ":{"ha":800,"x_min":102,"x_max":753,"o":"m 502 1120 l 502 926 l 753 926 l 753 1120 l 502 1120 m 387 0 l 387 703 l 753 703 l 753 926 l 102 926 l 102 0 l 387 0 z "},"Ӷ":{"ha":800,"x_min":102,"x_max":753,"o":"m 102 0 l 244 0 l 244 -194 l 495 -194 l 495 226 l 102 226 l 102 0 m 387 0 l 387 703 l 753 703 l 753 926 l 102 926 l 102 0 l 387 0 z "},"Ғ":{"ha":842,"x_min":28,"x_max":795,"o":"m 627 366 l 627 556 l 28 556 l 28 366 l 627 366 m 429 0 l 429 703 l 795 703 l 795 926 l 144 926 l 144 0 l 429 0 z "},"Ӻ":{"ha":844,"x_min":28,"x_max":796,"o":"m 627 366 l 627 556 l 28 556 l 28 366 l 627 366 m 430 121 l 145 121 l 145 0 q 124 -39 145 -26 q 60 -52 104 -52 q 43 -51 52 -52 q 28 -50 35 -50 l 28 -234 q 66 -237 41 -235 q 113 -238 92 -238 q 347 -175 263 -238 q 430 0 430 -113 l 430 121 m 430 0 l 430 703 l 796 703 l 796 926 l 145 926 l 145 0 l 430 0 z "},"Д":{"ha":1051,"x_min":14,"x_max":1017,"o":"m 631 226 l 363 226 l 363 239 q 388 285 378 261 q 404 338 397 309 q 414 404 410 367 q 420 487 418 440 l 429 700 l 631 700 l 631 226 m 264 -194 l 264 0 l 766 0 l 766 -194 l 1017 -194 l 1017 226 l 909 226 l 909 926 l 187 926 l 172 532 q 163 410 169 461 q 148 323 158 359 q 123 264 138 288 q 87 226 109 241 l 14 226 l 14 -194 l 264 -194 z "},"Е":{"ha":843,"x_min":102,"x_max":762,"o":"m 762 219 l 383 219 l 383 363 l 736 363 l 736 561 l 383 561 l 383 707 l 762 707 l 762 926 l 102 926 l 102 0 l 762 0 l 762 219 z "},"Ё":{"ha":843,"x_min":102,"x_max":762,"o":"m 762 219 l 383 219 l 383 363 l 736 363 l 736 561 l 383 561 l 383 707 l 762 707 l 762 926 l 102 926 l 102 0 l 762 0 l 762 219 m 568 981 q 641 1006 615 981 q 667 1074 667 1032 q 641 1141 667 1115 q 568 1166 615 1166 q 495 1141 522 1166 q 469 1074 469 1115 q 495 1006 469 1032 q 568 981 522 981 m 275 981 q 348 1006 322 981 q 374 1074 374 1032 q 348 1141 374 1115 q 275 1166 322 1166 q 202 1141 229 1166 q 176 1074 176 1115 q 202 1006 176 1032 q 275 981 229 981 z "},"Ӗ":{"ha":843,"x_min":102,"x_max":762,"o":"m 762 219 l 383 219 l 383 363 l 736 363 l 736 561 l 383 561 l 383 707 l 762 707 l 762 926 l 102 926 l 102 0 l 762 0 l 762 219 m 180 1207 q 244 1043 180 1103 q 421 983 309 983 q 598 1043 534 983 q 663 1207 663 1103 l 519 1207 q 494 1137 519 1160 q 421 1113 469 1113 q 348 1137 373 1113 q 323 1207 323 1160 l 180 1207 z "},"Ѐ":{"ha":843,"x_min":102,"x_max":762,"o":"m 762 219 l 383 219 l 383 363 l 736 363 l 736 561 l 383 561 l 383 707 l 762 707 l 762 926 l 102 926 l 102 0 l 762 0 l 762 219 m 522 1013 l 364 1228 l 146 1228 l 340 1013 l 522 1013 z "},"Ж":{"ha":1402,"x_min":-7,"x_max":1409,"o":"m 568 563 l 533 563 l 310 926 l -7 926 l 305 451 l 309 510 l 18 0 l 334 0 l 533 364 l 568 364 l 568 0 l 840 0 l 840 364 l 875 364 l 1074 0 l 1396 0 l 1100 521 l 1106 465 l 1409 926 l 1098 926 l 875 563 l 840 563 l 840 926 l 568 926 l 568 563 z "},"Ӂ":{"ha":1402,"x_min":-7,"x_max":1409,"o":"m 568 563 l 533 563 l 310 926 l -7 926 l 305 451 l 309 510 l 18 0 l 334 0 l 533 364 l 568 364 l 568 0 l 840 0 l 840 364 l 875 364 l 1074 0 l 1396 0 l 1100 521 l 1106 465 l 1409 926 l 1098 926 l 875 563 l 840 563 l 840 926 l 568 926 l 568 563 m 458 1209 q 488 1088 458 1138 q 574 1012 519 1038 q 703 985 629 985 q 831 1012 777 985 q 915 1088 885 1038 q 944 1209 944 1139 l 804 1209 q 779 1142 804 1166 q 703 1118 755 1118 q 626 1142 650 1118 q 602 1209 602 1166 l 458 1209 z "},"Ӝ":{"ha":1402,"x_min":-7,"x_max":1409,"o":"m 568 563 l 533 563 l 310 926 l -7 926 l 305 451 l 309 510 l 18 0 l 334 0 l 533 364 l 568 364 l 568 0 l 840 0 l 840 364 l 875 364 l 1074 0 l 1396 0 l 1100 521 l 1106 465 l 1409 926 l 1098 926 l 875 563 l 840 563 l 840 926 l 568 926 l 568 563 m 847 981 q 920 1006 894 981 q 946 1074 946 1032 q 920 1141 946 1115 q 847 1166 894 1166 q 774 1141 800 1166 q 748 1074 748 1115 q 774 1006 748 1032 q 847 981 800 981 m 554 981 q 627 1006 601 981 q 653 1074 653 1032 q 627 1141 653 1115 q 554 1166 601 1166 q 481 1141 507 1166 q 455 1074 455 1115 q 481 1006 455 1032 q 554 981 507 981 z "},"Җ":{"ha":1410,"x_min":-7,"x_max":1417,"o":"m 1091 0 l 1166 0 l 1166 -194 l 1417 -194 l 1417 226 l 1091 226 l 1091 0 m 568 563 l 533 563 l 310 926 l -7 926 l 305 451 l 309 510 l 18 0 l 334 0 l 533 364 l 568 364 l 568 0 l 840 0 l 840 364 l 875 364 l 1074 0 l 1396 0 l 1100 521 l 1106 465 l 1409 926 l 1098 926 l 875 563 l 840 563 l 840 926 l 568 926 l 568 563 z "},"З":{"ha":884,"x_min":54,"x_max":833,"o":"m 330 375 l 440 375 q 523 350 490 375 q 555 284 555 325 q 540 237 555 258 q 499 205 525 217 q 440 194 473 194 q 371 209 400 194 q 326 253 341 224 q 310 319 310 281 l 54 319 q 102 144 54 219 q 237 26 151 68 q 439 -16 323 -16 q 649 20 560 -16 q 785 120 737 55 q 833 274 833 185 q 807 374 833 329 q 733 447 780 419 q 625 480 686 475 l 625 494 q 722 528 680 502 q 787 595 764 555 q 810 685 810 636 q 764 818 810 761 q 633 908 717 876 q 440 941 550 941 q 241 902 325 941 q 112 790 158 863 q 62 614 66 717 l 321 614 q 336 679 321 651 q 375 721 350 706 q 433 736 400 736 q 510 713 481 736 q 538 650 538 689 q 511 597 538 618 q 441 576 484 576 l 330 576 l 330 375 z "},"Ӟ":{"ha":884,"x_min":54,"x_max":833,"o":"m 330 375 l 440 375 q 523 350 490 375 q 555 284 555 325 q 540 237 555 258 q 499 205 525 217 q 440 194 473 194 q 371 209 400 194 q 326 253 341 224 q 310 319 310 281 l 54 319 q 102 144 54 219 q 237 26 151 68 q 439 -16 323 -16 q 649 20 560 -16 q 785 120 737 55 q 833 274 833 185 q 807 374 833 329 q 733 447 780 419 q 625 480 686 475 l 625 494 q 722 528 680 502 q 787 595 764 555 q 810 685 810 636 q 764 818 810 761 q 633 908 717 876 q 440 941 550 941 q 241 902 325 941 q 112 790 158 863 q 62 614 66 717 l 321 614 q 336 679 321 651 q 375 721 350 706 q 433 736 400 736 q 510 713 481 736 q 538 650 538 689 q 511 597 538 618 q 441 576 484 576 l 330 576 l 330 375 m 589 981 q 662 1006 636 981 q 688 1074 688 1032 q 662 1141 688 1115 q 589 1166 636 1166 q 516 1141 543 1166 q 490 1074 490 1115 q 516 1006 490 1032 q 589 981 543 981 m 296 981 q 369 1006 343 981 q 395 1074 395 1032 q 369 1141 395 1115 q 296 1166 343 1166 q 223 1141 250 1166 q 197 1074 197 1115 q 223 1006 197 1032 q 296 981 250 981 z "},"Ҙ":{"ha":884,"x_min":54,"x_max":833,"o":"m 570 0 l 319 0 l 319 -194 l 570 -194 l 570 0 m 330 375 l 440 375 q 523 350 490 375 q 555 284 555 325 q 540 237 555 258 q 499 205 525 217 q 440 194 473 194 q 371 209 400 194 q 326 253 341 224 q 310 319 310 281 l 54 319 q 102 144 54 219 q 237 26 151 68 q 439 -16 323 -16 q 649 20 560 -16 q 785 120 737 55 q 833 274 833 185 q 807 374 833 329 q 733 447 780 419 q 625 480 686 475 l 625 494 q 722 528 680 502 q 787 595 764 555 q 810 685 810 636 q 764 818 810 761 q 633 908 717 876 q 440 941 550 941 q 241 902 325 941 q 112 790 158 863 q 62 614 66 717 l 321 614 q 336 679 321 651 q 375 721 350 706 q 433 736 400 736 q 510 713 481 736 q 538 650 538 689 q 511 597 538 618 q 441 576 484 576 l 330 576 l 330 375 z "},"И":{"ha":1041,"x_min":102,"x_max":939,"o":"m 668 0 l 939 0 l 939 926 l 682 926 l 387 427 l 373 427 l 373 926 l 102 926 l 102 0 l 359 0 l 654 500 l 668 500 l 668 0 z "},"Й":{"ha":1041,"x_min":102,"x_max":939,"o":"m 668 0 l 939 0 l 939 926 l 682 926 l 387 427 l 373 427 l 373 926 l 102 926 l 102 0 l 359 0 l 654 500 l 668 500 l 668 0 m 286 1207 q 351 1043 286 1103 q 528 983 415 983 q 705 1043 640 983 q 769 1207 769 1103 l 625 1207 q 601 1137 625 1160 q 528 1113 576 1113 q 455 1137 479 1113 q 430 1207 430 1160 l 286 1207 z "},"Ѝ":{"ha":1041,"x_min":102,"x_max":939,"o":"m 668 0 l 939 0 l 939 926 l 682 926 l 387 427 l 373 427 l 373 926 l 102 926 l 102 0 l 359 0 l 654 500 l 668 500 l 668 0 m 593 1013 l 435 1228 l 217 1228 l 411 1013 l 593 1013 z "},"Ӣ":{"ha":1041,"x_min":102,"x_max":939,"o":"m 668 0 l 939 0 l 939 926 l 682 926 l 387 427 l 373 427 l 373 926 l 102 926 l 102 0 l 359 0 l 654 500 l 668 500 l 668 0 m 712 1006 l 712 1120 l 251 1120 l 251 1006 l 712 1006 z "},"Ӥ":{"ha":1041,"x_min":102,"x_max":939,"o":"m 668 0 l 939 0 l 939 926 l 682 926 l 387 427 l 373 427 l 373 926 l 102 926 l 102 0 l 359 0 l 654 500 l 668 500 l 668 0 m 672 981 q 745 1006 719 981 q 771 1074 771 1032 q 745 1141 771 1115 q 672 1166 719 1166 q 599 1141 625 1166 q 573 1074 573 1115 q 599 1006 573 1032 q 672 981 625 981 m 379 981 q 452 1006 426 981 q 478 1074 478 1032 q 452 1141 478 1115 q 379 1166 426 1166 q 306 1141 332 1166 q 280 1074 280 1115 q 306 1006 280 1032 q 379 981 332 981 z "},"Ҋ":{"ha":1063,"x_min":102,"x_max":1049,"o":"m 716 -193 l 958 -193 l 1049 176 l 1049 226 l 668 226 l 668 0 l 764 0 l 716 -193 m 668 0 l 939 0 l 939 926 l 682 926 l 387 427 l 373 427 l 373 926 l 102 926 l 102 0 l 359 0 l 654 500 l 668 500 l 668 0 m 286 1207 q 351 1043 286 1103 q 528 983 415 983 q 705 1043 640 983 q 769 1207 769 1103 l 625 1207 q 601 1137 625 1160 q 528 1113 576 1113 q 455 1137 479 1113 q 430 1207 430 1160 l 286 1207 z "},"К":{"ha":972,"x_min":102,"x_max":979,"o":"m 637 0 l 970 0 l 673 489 l 979 926 l 662 926 l 418 563 l 387 563 l 387 926 l 102 926 l 102 0 l 387 0 l 387 364 l 418 364 l 637 0 z "},"Ќ":{"ha":972,"x_min":102,"x_max":979,"o":"m 637 0 l 970 0 l 673 489 l 979 926 l 662 926 l 418 563 l 387 563 l 387 926 l 102 926 l 102 0 l 387 0 l 387 364 l 418 364 l 637 0 m 410 1013 l 592 1013 l 786 1228 l 568 1228 l 410 1013 z "},"Қ":{"ha":980,"x_min":102,"x_max":987,"o":"m 661 0 l 736 0 l 736 -194 l 987 -194 l 987 226 l 661 226 l 661 0 m 637 0 l 970 0 l 673 489 l 979 926 l 662 926 l 418 563 l 387 563 l 387 926 l 102 926 l 102 0 l 387 0 l 387 364 l 418 364 l 637 0 z "},"Ҝ":{"ha":1123,"x_min":123,"x_max":1130,"o":"m 475 732 l 475 195 l 628 195 l 628 732 l 475 732 m 795 0 l 1120 0 l 888 507 l 887 472 l 1130 926 l 819 926 l 644 563 l 408 563 l 408 926 l 123 926 l 123 0 l 408 0 l 408 364 l 644 364 l 795 0 z "},"Ҟ":{"ha":1028,"x_min":28,"x_max":1035,"o":"m 693 0 l 1025 0 l 705 507 l 704 472 l 1035 926 l 718 926 l 460 563 l 429 563 l 429 926 l 144 926 l 144 0 l 429 0 l 429 364 l 460 364 l 693 0 m 505 838 l 28 838 l 28 661 l 505 661 l 505 838 z "},"Ҡ":{"ha":1238,"x_min":28,"x_max":1245,"o":"m 28 703 l 652 703 l 652 926 l 28 926 l 28 703 m 903 0 l 1236 0 l 939 489 l 1245 926 l 928 926 l 684 563 l 652 563 l 652 926 l 368 926 l 368 0 l 652 0 l 652 364 l 684 364 l 903 0 z "},"Ӄ":{"ha":1013,"x_min":102,"x_max":979,"o":"m 102 0 l 387 0 l 387 364 l 418 364 q 544 338 490 364 q 630 267 599 312 q 661 162 661 221 q 645 79 661 117 q 600 18 629 41 q 527 -5 570 -5 q 487 -4 505 -5 q 454 0 468 -3 l 454 -218 q 498 -226 471 -222 q 557 -229 526 -229 q 761 -175 672 -229 q 899 -31 849 -121 q 949 170 949 60 q 913 334 949 260 q 813 461 878 408 q 664 543 749 514 l 673 489 l 979 926 l 662 926 l 418 563 l 387 563 l 387 926 l 102 926 l 102 0 z "},"Л":{"ha":980,"x_min":31,"x_max":878,"o":"m 163 532 q 152 352 161 418 q 122 258 142 286 q 64 231 101 231 q 47 233 57 231 q 31 237 38 235 l 31 0 q 68 -11 44 -7 q 127 -16 93 -16 q 254 10 201 -16 q 341 93 307 35 q 394 246 376 150 q 414 484 412 342 l 419 700 l 593 700 l 593 0 l 878 0 l 878 926 l 167 926 l 163 532 z "},"Ӆ":{"ha":1002,"x_min":31,"x_max":988,"o":"m 655 -193 l 897 -193 l 988 176 l 988 226 l 593 226 l 593 0 l 703 0 l 655 -193 m 163 532 q 152 352 161 418 q 122 258 142 286 q 64 231 101 231 q 47 233 57 231 q 31 237 38 235 l 31 0 q 68 -11 44 -7 q 127 -16 93 -16 q 254 10 201 -16 q 341 93 307 35 q 394 246 376 150 q 414 484 412 342 l 419 700 l 593 700 l 593 0 l 878 0 l 878 926 l 167 926 l 163 532 z "},"Ԯ":{"ha":1021,"x_min":31,"x_max":987,"o":"m 593 0 l 736 0 l 736 -194 l 987 -194 l 987 226 l 593 226 l 593 0 m 163 532 q 152 352 161 418 q 122 258 142 286 q 64 231 101 231 q 47 233 57 231 q 31 237 38 235 l 31 0 q 68 -11 44 -7 q 127 -16 93 -16 q 254 10 201 -16 q 341 93 307 35 q 394 246 376 150 q 414 484 412 342 l 419 700 l 593 700 l 593 0 l 878 0 l 878 926 l 167 926 l 163 532 z "},"Ԓ":{"ha":980,"x_min":31,"x_max":878,"o":"m 878 121 l 593 121 l 593 0 q 573 -39 593 -26 q 509 -52 552 -52 q 491 -51 500 -52 q 477 -50 483 -50 l 477 -234 q 515 -237 489 -235 q 562 -238 541 -238 q 795 -175 711 -238 q 878 0 878 -113 l 878 121 m 163 532 q 152 352 161 418 q 122 258 142 286 q 64 231 101 231 q 47 233 57 231 q 31 237 38 235 l 31 0 q 68 -11 44 -7 q 127 -16 93 -16 q 254 10 201 -16 q 341 93 307 35 q 394 246 376 150 q 414 484 412 342 l 419 700 l 593 700 l 593 0 l 878 0 l 878 926 l 167 926 l 163 532 z "},"М":{"ha":1202,"x_min":102,"x_max":1101,"o":"m 353 0 l 353 516 l 367 516 l 526 176 l 675 176 l 832 516 l 845 516 l 845 0 l 1101 0 l 1101 926 l 806 926 l 607 513 l 597 513 l 399 926 l 102 926 l 102 0 l 353 0 z "},"Ӎ":{"ha":1224,"x_min":102,"x_max":1211,"o":"m 878 -193 l 1119 -193 l 1211 176 l 1211 226 l 845 226 l 845 0 l 926 0 l 878 -193 m 353 0 l 353 516 l 367 516 l 526 176 l 675 176 l 832 516 l 845 516 l 845 0 l 1101 0 l 1101 926 l 806 926 l 607 513 l 597 513 l 399 926 l 102 926 l 102 0 l 353 0 z "},"Н":{"ha":1041,"x_min":102,"x_max":939,"o":"m 939 0 l 939 926 l 654 926 l 654 576 l 387 576 l 387 926 l 102 926 l 102 0 l 387 0 l 387 351 l 654 351 l 654 0 l 939 0 z "},"Ӈ":{"ha":1041,"x_min":102,"x_max":939,"o":"m 939 121 l 654 121 l 654 0 q 634 -39 654 -26 q 570 -52 613 -52 q 552 -51 561 -52 q 538 -50 544 -50 l 538 -234 q 576 -237 550 -235 q 623 -238 602 -238 q 856 -175 772 -238 q 939 0 939 -113 l 939 121 m 939 0 l 939 926 l 654 926 l 654 576 l 387 576 l 387 926 l 102 926 l 102 0 l 387 0 l 387 351 l 654 351 l 654 0 l 939 0 z "},"Ң":{"ha":1082,"x_min":102,"x_max":1048,"o":"m 654 0 l 797 0 l 797 -194 l 1048 -194 l 1048 226 l 654 226 l 654 0 m 939 0 l 939 926 l 654 926 l 654 576 l 387 576 l 387 926 l 102 926 l 102 0 l 387 0 l 387 351 l 654 351 l 654 0 l 939 0 z "},"Ӊ":{"ha":1063,"x_min":102,"x_max":1049,"o":"m 716 -193 l 958 -193 l 1049 176 l 1049 226 l 654 226 l 654 0 l 764 0 l 716 -193 m 939 0 l 939 926 l 654 926 l 654 576 l 387 576 l 387 926 l 102 926 l 102 0 l 387 0 l 387 351 l 654 351 l 654 0 l 939 0 z "},"Ҥ":{"ha":1326,"x_min":102,"x_max":1278,"o":"m 654 703 l 1278 703 l 1278 926 l 654 926 l 654 703 m 939 0 l 939 926 l 654 926 l 654 576 l 387 576 l 387 926 l 102 926 l 102 0 l 387 0 l 387 351 l 654 351 l 654 0 l 939 0 z "},"О":{"ha":1002,"x_min":64,"x_max":938,"o":"m 646 511 l 646 414 q 629 302 646 348 q 579 233 611 256 q 501 210 547 210 q 423 233 456 210 q 373 302 391 256 q 355 414 355 348 l 355 511 q 373 623 355 577 q 423 691 391 668 q 501 715 456 715 q 579 691 547 715 q 629 623 611 668 q 646 511 646 577 m 938 416 l 938 507 q 888 735 938 637 q 740 886 838 832 q 501 941 643 941 q 262 887 360 941 q 114 736 165 833 q 64 507 64 638 l 64 416 q 114 189 64 286 q 262 38 165 92 q 501 -16 360 -16 q 740 38 643 -16 q 888 189 838 92 q 938 416 938 286 z "},"Ӧ":{"ha":1002,"x_min":64,"x_max":938,"o":"m 646 511 l 646 414 q 629 302 646 348 q 579 233 611 256 q 501 210 547 210 q 423 233 456 210 q 373 302 391 256 q 355 414 355 348 l 355 511 q 373 623 355 577 q 423 691 391 668 q 501 715 456 715 q 579 691 547 715 q 629 623 611 668 q 646 511 646 577 m 938 416 l 938 507 q 888 735 938 637 q 740 886 838 832 q 501 941 643 941 q 262 887 360 941 q 114 736 165 833 q 64 507 64 638 l 64 416 q 114 189 64 286 q 262 38 165 92 q 501 -16 360 -16 q 740 38 643 -16 q 888 189 838 92 q 938 416 938 286 m 648 981 q 721 1006 694 981 q 747 1074 747 1032 q 721 1141 747 1115 q 648 1166 694 1166 q 575 1141 601 1166 q 549 1074 549 1115 q 575 1006 549 1032 q 648 981 601 981 m 355 981 q 428 1006 401 981 q 454 1074 454 1032 q 428 1141 454 1115 q 355 1166 401 1166 q 282 1141 308 1166 q 256 1074 256 1115 q 282 1006 256 1032 q 355 981 308 981 z "},"Ө":{"ha":1002,"x_min":64,"x_max":938,"o":"m 774 575 l 229 575 l 229 356 l 774 356 l 774 575 m 646 511 l 646 414 q 629 302 646 348 q 579 233 611 256 q 501 210 547 210 q 423 233 456 210 q 373 302 391 256 q 355 414 355 348 l 355 511 q 373 623 355 577 q 423 691 391 668 q 501 715 456 715 q 579 691 547 715 q 629 623 611 668 q 646 511 646 577 m 938 416 l 938 507 q 888 735 938 637 q 740 886 838 832 q 501 941 643 941 q 262 887 360 941 q 114 736 165 833 q 64 507 64 638 l 64 416 q 114 189 64 286 q 262 38 165 92 q 501 -16 360 -16 q 740 38 643 -16 q 888 189 838 92 q 938 416 938 286 z "},"Ӫ":{"ha":1002,"x_min":64,"x_max":938,"o":"m 774 575 l 229 575 l 229 356 l 774 356 l 774 575 m 646 511 l 646 414 q 629 302 646 348 q 579 233 611 256 q 501 210 547 210 q 423 233 456 210 q 373 302 391 256 q 355 414 355 348 l 355 511 q 373 623 355 577 q 423 691 391 668 q 501 715 456 715 q 579 691 547 715 q 629 623 611 668 q 646 511 646 577 m 938 416 l 938 507 q 888 735 938 637 q 740 886 838 832 q 501 941 643 941 q 262 887 360 941 q 114 736 165 833 q 64 507 64 638 l 64 416 q 114 189 64 286 q 262 38 165 92 q 501 -16 360 -16 q 740 38 643 -16 q 888 189 838 92 q 938 416 938 286 m 648 981 q 721 1006 694 981 q 747 1074 747 1032 q 721 1141 747 1115 q 648 1166 694 1166 q 575 1141 601 1166 q 549 1074 549 1115 q 575 1006 549 1032 q 648 981 601 981 m 355 981 q 428 1006 401 981 q 454 1074 454 1032 q 428 1141 454 1115 q 355 1166 401 1166 q 282 1141 308 1166 q 256 1074 256 1115 q 282 1006 256 1032 q 355 981 308 981 z "},"Ѳ":{"ha":1002,"x_min":64,"x_max":938,"o":"m 359 345 q 376 370 364 360 q 405 380 387 380 q 444 374 428 380 q 473 359 459 368 q 505 345 488 351 q 549 338 523 338 q 632 367 598 338 q 685 439 667 395 q 703 530 703 484 l 644 578 q 627 553 639 563 q 598 543 616 543 q 559 549 575 543 q 530 563 544 555 q 498 578 515 572 q 454 584 480 584 q 371 555 405 584 q 318 483 336 527 q 300 392 300 439 l 359 345 m 646 511 l 646 414 q 629 302 646 348 q 579 233 611 256 q 501 210 547 210 q 423 233 456 210 q 373 302 391 256 q 355 414 355 348 l 355 511 q 373 623 355 577 q 423 691 391 668 q 501 715 456 715 q 579 691 547 715 q 629 623 611 668 q 646 511 646 577 m 938 416 l 938 507 q 888 735 938 637 q 740 886 838 832 q 501 941 643 941 q 262 887 360 941 q 114 736 165 833 q 64 507 64 638 l 64 416 q 114 189 64 286 q 262 38 165 92 q 501 -16 360 -16 q 740 38 643 -16 q 888 189 838 92 q 938 416 938 286 z "},"П":{"ha":1027,"x_min":102,"x_max":926,"o":"m 926 0 l 926 926 l 102 926 l 102 0 l 387 0 l 387 700 l 641 700 l 641 0 l 926 0 z "},"Ԥ":{"ha":1068,"x_min":102,"x_max":1034,"o":"m 641 0 l 783 0 l 783 -194 l 1034 -194 l 1034 226 l 641 226 l 641 0 m 926 0 l 926 926 l 102 926 l 102 0 l 387 0 l 387 700 l 641 700 l 641 0 l 926 0 z "},"Џ":{"ha":1034,"x_min":102,"x_max":932,"o":"m 392 0 l 392 -194 l 643 -194 l 643 0 l 392 0 m 932 926 l 648 926 l 648 226 l 387 226 l 387 926 l 102 926 l 102 0 l 932 0 l 932 926 z "},"Р":{"ha":911,"x_min":102,"x_max":865,"o":"m 524 926 l 102 926 l 102 0 l 386 0 l 386 250 l 520 250 q 714 296 637 250 q 828 419 791 342 q 865 585 865 495 q 829 752 865 674 q 717 878 792 829 q 524 926 642 926 m 578 585 q 562 515 578 544 q 516 470 545 486 q 447 455 486 455 l 385 455 l 385 715 l 447 715 q 542 683 506 715 q 578 585 578 650 z "},"Ҏ":{"ha":911,"x_min":102,"x_max":865,"o":"m 408 526 l 481 411 l 481 366 l 629 136 l 785 241 l 662 431 l 608 463 l 521 599 l 408 526 m 524 926 l 102 926 l 102 0 l 386 0 l 386 250 l 495 250 q 699 296 616 250 q 823 417 781 341 q 865 585 865 494 q 829 752 865 674 q 717 878 792 829 q 524 926 642 926 m 581 585 q 544 487 581 522 q 447 452 507 452 l 385 452 l 385 715 l 447 715 q 544 683 507 715 q 581 585 581 650 z "},"С":{"ha":948,"x_min":64,"x_max":887,"o":"m 355 505 q 371 618 355 572 q 417 687 387 663 q 490 710 448 710 q 561 690 532 710 q 604 634 589 669 q 618 555 618 599 l 887 555 q 887 575 887 565 q 887 595 887 585 q 858 738 887 674 q 775 847 828 802 q 648 917 722 892 q 488 941 575 941 q 256 887 351 941 q 113 735 161 833 q 64 505 64 637 l 64 421 q 113 191 64 289 q 256 39 161 93 q 488 -16 351 -16 q 694 27 604 -16 q 836 148 785 70 q 887 330 887 225 q 887 350 887 340 q 887 371 887 361 l 618 371 q 604 292 618 327 q 561 236 589 256 q 490 215 532 215 q 417 238 448 215 q 371 307 387 262 q 355 419 355 353 l 355 505 z "},"Ҫ":{"ha":948,"x_min":64,"x_max":887,"o":"m 466 -323 q 566 -309 524 -323 q 631 -263 608 -294 q 654 -184 654 -233 q 640 -122 654 -149 q 601 -79 627 -95 q 539 -64 575 -64 l 562 -11 q 732 47 659 2 q 846 164 805 92 q 887 330 887 237 q 887 350 887 340 q 887 371 887 361 l 618 371 q 604 292 618 327 q 561 236 589 256 q 490 215 532 215 q 417 238 448 215 q 371 307 387 262 q 355 419 355 353 l 355 505 q 371 618 355 572 q 417 687 387 663 q 490 710 448 710 q 561 690 532 710 q 604 634 589 669 q 618 555 618 599 l 887 555 q 887 575 887 565 q 887 595 887 585 q 858 738 887 674 q 775 847 828 802 q 648 917 722 892 q 488 941 575 941 q 256 887 351 941 q 113 735 161 833 q 64 505 64 637 l 64 421 q 105 208 64 300 q 225 59 146 115 q 420 -12 304 2 l 397 -70 l 397 -161 l 437 -161 q 498 -170 487 -161 q 509 -194 509 -180 q 488 -216 509 -212 q 441 -220 467 -220 q 403 -218 422 -220 q 370 -212 384 -216 l 370 -313 q 404 -320 380 -316 q 466 -323 427 -323 z "},"Т":{"ha":812,"x_min":28,"x_max":784,"o":"m 549 0 l 549 698 l 784 698 l 784 926 l 28 926 l 28 698 l 264 698 l 264 0 l 549 0 z "},"Ҭ":{"ha":812,"x_min":28,"x_max":784,"o":"m 264 0 l 406 0 l 406 -194 l 657 -194 l 657 226 l 264 226 l 264 0 m 549 0 l 549 698 l 784 698 l 784 926 l 28 926 l 28 698 l 264 698 l 264 0 l 549 0 z "},"У":{"ha":884,"x_min":-11,"x_max":895,"o":"m 253 -16 q 405 19 343 -16 q 513 122 467 54 q 605 288 560 189 l 895 926 l 602 926 l 464 541 l 451 541 l 301 926 l -11 926 l 360 153 l 345 302 q 281 226 318 245 q 203 207 245 207 q 146 211 168 207 q 124 216 124 216 l 124 0 q 159 -8 124 0 q 253 -16 194 -16 z "},"Ў":{"ha":884,"x_min":-11,"x_max":895,"o":"m 253 -16 q 405 19 343 -16 q 513 122 467 54 q 605 288 560 189 l 895 926 l 602 926 l 464 541 l 451 541 l 301 926 l -11 926 l 360 153 l 345 302 q 281 226 318 245 q 203 207 245 207 q 146 211 168 207 q 124 216 124 216 l 124 0 q 159 -8 124 0 q 253 -16 194 -16 m 208 1208 q 272 1044 208 1104 q 449 985 336 985 q 626 1044 562 985 q 690 1208 690 1104 l 547 1208 q 522 1138 547 1162 q 449 1114 497 1114 q 376 1138 401 1114 q 351 1208 351 1162 l 208 1208 z "},"Ӯ":{"ha":884,"x_min":-11,"x_max":895,"o":"m 253 -16 q 405 19 343 -16 q 513 122 467 54 q 605 288 560 189 l 895 926 l 602 926 l 464 541 l 451 541 l 301 926 l -11 926 l 360 153 l 345 302 q 281 226 318 245 q 203 207 245 207 q 146 211 168 207 q 124 216 124 216 l 124 0 q 159 -8 124 0 q 253 -16 194 -16 m 686 1006 l 686 1120 l 224 1120 l 224 1006 l 686 1006 z "},"Ӱ":{"ha":884,"x_min":-11,"x_max":895,"o":"m 253 -16 q 405 19 343 -16 q 513 122 467 54 q 605 288 560 189 l 895 926 l 602 926 l 464 541 l 451 541 l 301 926 l -11 926 l 360 153 l 345 302 q 281 226 318 245 q 203 207 245 207 q 146 211 168 207 q 124 216 124 216 l 124 0 q 159 -8 124 0 q 253 -16 194 -16 m 602 980 q 674 1006 648 980 q 701 1073 701 1031 q 674 1140 701 1114 q 602 1166 648 1166 q 529 1140 555 1166 q 503 1073 503 1114 q 529 1006 503 1031 q 602 980 555 980 m 309 980 q 381 1006 355 980 q 408 1073 408 1031 q 381 1140 408 1114 q 309 1166 355 1166 q 236 1140 262 1166 q 210 1073 210 1114 q 236 1006 210 1031 q 309 980 262 980 z "},"Ӳ":{"ha":884,"x_min":-11,"x_max":895,"o":"m 253 -16 q 405 19 343 -16 q 513 122 467 54 q 605 288 560 189 l 895 926 l 602 926 l 464 541 l 451 541 l 301 926 l -11 926 l 360 153 l 345 302 q 281 226 318 245 q 203 207 245 207 q 146 211 168 207 q 124 216 124 216 l 124 0 q 159 -8 124 0 q 253 -16 194 -16 m 167 1013 l 346 1013 l 540 1229 l 324 1229 l 167 1013 m 483 1013 l 662 1013 l 856 1229 l 640 1229 l 483 1013 z "},"Ф":{"ha":1219,"x_min":57,"x_max":1162,"o":"m 745 -7 l 745 94 q 1053 200 943 103 q 1162 468 1162 297 q 1162 468 1162 468 q 1162 468 1162 468 q 1053 736 1162 639 q 745 842 943 833 l 745 932 l 474 932 l 474 842 q 167 736 277 833 q 57 468 57 639 q 57 468 57 468 q 57 468 57 468 q 167 200 57 297 q 474 94 277 103 l 474 -7 l 745 -7 m 332 468 q 332 468 332 468 q 332 468 332 468 q 371 591 332 552 q 481 634 411 629 l 481 302 q 371 345 411 307 q 332 468 332 384 m 888 468 q 888 468 888 468 q 888 468 888 468 q 848 345 888 384 q 739 302 808 307 l 739 634 q 848 591 808 629 q 888 468 888 552 z "},"Х":{"ha":928,"x_min":7,"x_max":922,"o":"m 922 926 l 605 926 l 477 646 l 466 646 l 338 926 l 7 926 l 270 466 l 8 0 l 309 0 l 450 268 l 461 268 l 604 0 l 921 0 l 646 466 l 922 926 z "},"Ҳ":{"ha":928,"x_min":7,"x_max":935,"o":"m 616 0 l 684 0 l 684 -194 l 935 -194 l 935 226 l 616 226 l 616 0 m 922 926 l 605 926 l 477 646 l 466 646 l 338 926 l 7 926 l 270 466 l 8 0 l 309 0 l 450 268 l 461 268 l 604 0 l 921 0 l 646 466 l 922 926 z "},"Ӿ":{"ha":928,"x_min":7,"x_max":922,"o":"m 851 383 l 851 559 l 69 559 l 69 383 l 851 383 m 922 926 l 605 926 l 477 646 l 466 646 l 338 926 l 7 926 l 270 466 l 8 0 l 309 0 l 450 268 l 461 268 l 604 0 l 921 0 l 646 466 l 922 926 z "},"Ӽ":{"ha":928,"x_min":7,"x_max":922,"o":"m 745 315 l 646 466 l 922 926 l 605 926 l 477 646 l 466 646 l 338 926 l 7 926 l 270 466 l 8 0 l 309 0 l 450 268 l 461 268 l 520 178 q 547 131 538 151 q 562 97 556 111 q 570 71 568 81 q 572 49 572 60 q 550 5 572 22 q 495 -12 529 -12 q 468 -11 480 -12 q 439 -8 455 -10 l 439 -221 q 493 -227 459 -224 q 564 -229 526 -229 q 774 -157 696 -229 q 853 36 853 -85 q 847 102 853 70 q 821 177 840 134 q 791 238 808 205 q 745 315 773 272 z "},"Ц":{"ha":1068,"x_min":102,"x_max":1034,"o":"m 641 0 l 783 0 l 783 -194 l 1034 -194 l 1034 226 l 641 226 l 641 0 m 926 926 l 641 926 l 641 226 l 387 226 l 387 926 l 102 926 l 102 0 l 926 0 l 926 926 z "},"Ҵ":{"ha":1212,"x_min":28,"x_max":1178,"o":"m 785 0 l 927 0 l 927 -194 l 1178 -194 l 1178 226 l 785 226 l 785 0 m 1069 926 l 785 926 l 785 226 l 530 226 l 530 926 l 245 926 l 245 0 l 1069 0 l 1069 926 m 711 698 l 711 926 l 28 926 l 28 698 l 711 698 z "},"Ч":{"ha":1017,"x_min":88,"x_max":916,"o":"m 916 0 l 916 926 l 631 926 l 631 568 q 597 552 618 559 q 554 541 577 545 q 511 536 531 536 q 406 571 439 536 q 373 678 373 605 l 373 926 l 88 926 l 88 658 q 177 399 88 490 q 429 307 266 307 q 496 313 460 307 q 565 327 532 318 q 618 347 597 336 l 631 347 l 631 0 l 916 0 z "},"Ӵ":{"ha":1017,"x_min":88,"x_max":916,"o":"m 916 0 l 916 926 l 631 926 l 631 568 q 597 552 618 559 q 554 541 577 545 q 511 536 531 536 q 406 571 439 536 q 373 678 373 605 l 373 926 l 88 926 l 88 658 q 177 399 88 490 q 429 307 266 307 q 496 313 460 307 q 565 327 532 318 q 618 347 597 336 l 631 347 l 631 0 l 916 0 m 642 981 q 714 1006 688 981 q 741 1074 741 1032 q 714 1141 741 1115 q 642 1166 688 1166 q 569 1141 595 1166 q 543 1074 543 1115 q 569 1006 543 1032 q 642 981 595 981 m 349 981 q 421 1006 395 981 q 448 1074 448 1032 q 421 1141 448 1115 q 349 1166 395 1166 q 276 1141 302 1166 q 250 1074 250 1115 q 276 1006 250 1032 q 349 981 302 981 z "},"Ҷ":{"ha":1058,"x_min":88,"x_max":1024,"o":"m 631 0 l 773 0 l 773 -194 l 1024 -194 l 1024 226 l 631 226 l 631 0 m 916 0 l 916 926 l 631 926 l 631 568 q 597 552 618 559 q 554 541 577 545 q 511 536 531 536 q 406 571 439 536 q 373 678 373 605 l 373 926 l 88 926 l 88 658 q 177 399 88 490 q 429 307 266 307 q 496 313 460 307 q 565 327 532 318 q 618 347 597 336 l 631 347 l 631 0 l 916 0 z "},"Ӌ":{"ha":1017,"x_min":88,"x_max":916,"o":"m 916 0 l 916 226 l 522 226 l 522 -194 l 773 -194 l 773 0 l 916 0 m 916 0 l 916 926 l 631 926 l 631 568 q 597 552 618 559 q 554 541 577 545 q 511 536 531 536 q 406 571 439 536 q 373 678 373 605 l 373 926 l 88 926 l 88 658 q 177 399 88 490 q 429 307 266 307 q 496 313 460 307 q 565 327 532 318 q 618 347 597 336 l 631 347 l 631 0 l 916 0 z "},"Ҹ":{"ha":1069,"x_min":88,"x_max":967,"o":"m 441 696 l 441 173 l 614 173 l 614 696 l 441 696 m 967 0 l 967 926 l 682 926 l 682 561 q 640 543 667 550 q 582 533 612 536 q 524 530 551 530 q 410 564 446 530 q 373 671 373 598 l 373 926 l 88 926 l 88 658 q 181 403 88 493 q 443 313 273 313 q 524 317 480 313 q 607 327 568 320 q 670 347 646 334 l 682 347 l 682 0 l 967 0 z "},"Һ":{"ha":1017,"x_min":102,"x_max":929,"o":"m 102 926 l 102 0 l 387 0 l 387 358 q 420 374 399 367 q 463 385 440 381 q 507 389 486 389 q 611 355 578 389 q 644 248 644 321 l 644 0 l 929 0 l 929 268 q 840 527 929 435 q 588 618 751 618 q 521 613 557 618 q 452 598 485 608 q 399 578 420 589 l 387 578 l 387 926 l 102 926 z "},"Ԧ":{"ha":1072,"x_min":102,"x_max":1038,"o":"m 644 0 l 787 0 l 787 -194 l 1038 -194 l 1038 226 l 644 226 l 644 0 m 102 926 l 102 0 l 387 0 l 387 358 q 420 374 399 367 q 463 385 440 381 q 507 389 486 389 q 611 355 578 389 q 644 248 644 321 l 644 0 l 929 0 l 929 268 q 840 527 929 436 q 588 618 751 618 q 521 613 557 618 q 452 599 485 608 q 399 578 420 590 l 387 578 l 387 926 l 102 926 z "},"Ћ":{"ha":1147,"x_min":28,"x_max":1065,"o":"m 561 545 l 549 545 l 549 698 l 784 698 l 784 926 l 28 926 l 28 698 l 264 698 l 264 0 l 549 0 l 549 330 q 597 353 566 344 q 656 362 627 362 q 751 330 721 362 q 781 227 781 297 l 781 0 l 1065 0 l 1065 248 q 981 496 1065 408 q 741 585 897 585 q 642 572 696 585 q 561 545 587 559 z "},"Ш":{"ha":1431,"x_min":102,"x_max":1329,"o":"m 102 0 l 1329 0 l 1329 926 l 1044 926 l 1044 226 l 858 226 l 858 926 l 573 926 l 573 226 l 387 226 l 387 926 l 102 926 l 102 0 z "},"Щ":{"ha":1472,"x_min":102,"x_max":1438,"o":"m 1438 -194 l 1438 226 l 1329 226 l 1329 926 l 1044 926 l 1044 226 l 858 226 l 858 926 l 573 926 l 573 226 l 387 226 l 387 926 l 102 926 l 102 0 l 1187 0 l 1187 -194 l 1438 -194 z "},"Ъ":{"ha":1010,"x_min":28,"x_max":972,"o":"m 631 0 q 823 47 748 0 q 935 171 899 94 q 972 334 972 247 q 935 497 972 422 q 821 617 897 572 q 627 662 744 662 l 492 662 l 492 926 l 28 926 l 28 700 l 208 700 l 208 0 l 631 0 m 553 210 l 488 210 l 488 457 l 553 457 q 648 425 612 457 q 684 334 684 393 q 648 242 684 273 q 553 210 612 210 z "},"Ы":{"ha":1305,"x_min":102,"x_max":1204,"o":"m 862 334 q 825 497 862 422 q 711 617 787 572 q 517 662 634 662 l 386 662 l 386 926 l 102 926 l 102 0 l 521 0 q 713 47 638 0 q 825 171 789 94 q 862 334 862 247 m 444 457 q 538 425 503 457 q 574 334 574 393 q 538 242 574 273 q 444 210 503 210 l 381 210 l 381 457 l 444 457 m 1204 0 l 1204 926 l 919 926 l 919 0 l 1204 0 z "},"Ӹ":{"ha":1316,"x_min":113,"x_max":1215,"o":"m 873 334 q 836 497 873 422 q 722 617 798 572 q 528 662 645 662 l 397 662 l 397 926 l 113 926 l 113 0 l 532 0 q 724 47 649 0 q 836 171 800 94 q 873 334 873 247 m 454 457 q 549 425 513 457 q 585 334 585 393 q 549 242 585 273 q 454 210 513 210 l 392 210 l 392 457 l 454 457 m 1215 0 l 1215 926 l 930 926 l 930 0 l 1215 0 m 814 981 q 887 1006 861 981 q 913 1074 913 1032 q 887 1141 913 1115 q 814 1166 861 1166 q 742 1141 768 1166 q 715 1074 715 1115 q 742 1006 715 1032 q 814 981 768 981 m 522 981 q 594 1006 568 981 q 621 1074 621 1032 q 594 1141 621 1115 q 522 1166 568 1166 q 449 1141 475 1166 q 422 1074 422 1115 q 449 1006 422 1032 q 522 981 475 981 z "},"Ҍ":{"ha":1007,"x_min":28,"x_max":968,"o":"m 627 0 q 820 45 745 0 q 932 164 895 91 q 968 320 968 237 q 931 476 968 405 q 817 591 894 548 q 623 635 741 635 l 489 635 l 489 966 l 205 966 l 205 0 l 627 0 m 550 210 l 484 210 l 484 430 l 550 430 q 645 401 609 430 q 681 320 681 373 q 645 238 681 267 q 550 210 609 210 m 734 688 l 734 865 l 28 865 l 28 688 l 734 688 z "},"Ѣ":{"ha":1007,"x_min":28,"x_max":968,"o":"m 627 0 q 820 45 745 0 q 932 164 895 91 q 968 320 968 237 q 931 476 968 405 q 817 591 894 548 q 623 635 741 635 l 489 635 l 489 966 l 205 966 l 205 0 l 627 0 m 550 210 l 484 210 l 484 430 l 550 430 q 645 401 609 430 q 681 320 681 373 q 645 238 681 267 q 550 210 609 210 m 734 688 l 734 865 l 28 865 l 28 688 l 734 688 z "},"Ь":{"ha":904,"x_min":102,"x_max":865,"o":"m 524 0 q 717 47 642 0 q 829 171 792 94 q 865 334 865 247 q 828 497 865 422 q 714 617 791 572 q 520 662 637 662 l 386 662 l 386 926 l 102 926 l 102 0 l 524 0 m 447 210 l 381 210 l 381 457 l 447 457 q 542 425 506 457 q 578 334 578 393 q 542 242 578 273 q 447 210 506 210 z "},"Љ":{"ha":1386,"x_min":31,"x_max":1348,"o":"m 127 -16 q 254 10 201 -16 q 341 93 307 35 q 394 246 376 150 q 414 484 412 342 l 419 700 l 584 700 l 584 0 l 1006 0 q 1199 47 1124 0 q 1311 171 1274 94 q 1348 334 1348 247 q 1310 497 1348 422 q 1196 617 1273 572 q 1002 662 1120 662 l 868 662 l 868 926 l 167 926 l 163 532 q 152 352 161 418 q 122 258 142 286 q 64 231 101 231 q 47 233 57 231 q 31 237 38 235 q 31 178 31 208 q 31 119 31 149 q 31 59 31 89 q 31 0 31 30 q 68 -11 44 -7 q 127 -16 93 -16 m 929 457 q 1024 425 988 457 q 1060 334 1060 393 q 1024 242 1060 273 q 929 210 988 210 l 863 210 l 863 457 l 929 457 z "},"Њ":{"ha":1457,"x_min":102,"x_max":1418,"o":"m 654 608 l 387 608 l 387 926 l 102 926 l 102 0 l 387 0 l 387 382 l 654 382 l 654 0 l 1074 0 q 1268 43 1192 0 q 1381 157 1344 87 q 1418 307 1418 227 q 1380 456 1418 388 q 1265 566 1343 525 q 1069 608 1188 608 l 939 608 l 939 926 l 654 926 l 654 608 m 1006 403 q 1096 378 1062 403 q 1131 307 1131 353 q 1096 235 1131 260 q 1006 210 1062 210 l 934 210 l 934 403 l 1006 403 z "},"Э":{"ha":941,"x_min":54,"x_max":878,"o":"m 454 -16 q 685 39 591 -16 q 829 191 780 93 q 878 421 878 289 l 878 505 q 829 735 878 637 q 685 887 780 833 q 454 941 591 941 q 293 917 366 941 q 166 847 220 892 q 84 738 113 802 q 54 595 54 674 q 54 592 54 593 q 54 589 54 590 l 326 589 q 344 647 330 620 q 384 692 357 675 q 451 710 410 710 q 516 693 488 710 q 562 644 544 677 q 586 563 579 611 q 586 563 586 563 q 586 563 586 563 l 328 563 l 328 364 l 586 364 q 586 364 586 364 q 586 364 586 364 q 562 282 580 315 q 516 232 545 249 q 451 215 488 215 q 383 234 410 215 q 343 282 357 252 q 325 344 329 311 l 54 344 q 54 337 54 340 q 54 330 54 333 q 84 188 54 251 q 166 79 113 124 q 293 9 220 33 q 454 -16 366 -16 z "},"Ӭ":{"ha":941,"x_min":54,"x_max":878,"o":"m 454 -16 q 685 39 591 -16 q 829 191 780 93 q 878 421 878 289 l 878 505 q 829 735 878 637 q 685 887 780 833 q 454 941 591 941 q 293 917 366 941 q 166 847 220 892 q 84 738 113 802 q 54 595 54 674 q 54 592 54 593 q 54 589 54 590 l 326 589 q 344 647 330 620 q 384 692 357 675 q 451 710 410 710 q 516 693 488 710 q 562 644 544 677 q 586 563 579 611 q 586 563 586 563 q 586 563 586 563 l 328 563 l 328 364 l 586 364 q 586 364 586 364 q 586 364 586 364 q 562 282 580 315 q 516 232 545 249 q 451 215 488 215 q 383 234 410 215 q 343 282 357 252 q 325 344 329 311 l 54 344 q 54 337 54 340 q 54 330 54 333 q 84 188 54 251 q 166 79 113 124 q 293 9 220 33 q 454 -16 366 -16 m 595 982 q 668 1008 642 982 q 694 1075 694 1034 q 668 1142 694 1116 q 595 1168 642 1168 q 522 1142 548 1168 q 496 1075 496 1116 q 522 1008 496 1034 q 595 982 548 982 m 302 982 q 375 1008 349 982 q 401 1075 401 1034 q 375 1142 401 1116 q 302 1168 349 1168 q 229 1142 255 1168 q 203 1075 203 1116 q 229 1008 203 1034 q 302 982 255 982 z "},"Ю":{"ha":1385,"x_min":102,"x_max":1321,"o":"m 658 576 l 387 576 l 387 926 l 102 926 l 102 0 l 387 0 l 387 351 l 658 351 l 658 576 m 467 416 q 516 189 467 286 q 660 38 565 92 q 891 -16 754 -16 q 1127 38 1031 -16 q 1272 189 1223 92 q 1321 416 1321 286 l 1321 507 q 1272 735 1321 637 q 1127 886 1223 832 q 891 941 1031 941 q 660 887 754 941 q 516 736 565 833 q 467 507 467 638 l 467 416 m 752 511 q 769 623 752 577 q 817 691 785 668 q 891 715 848 715 q 965 691 935 715 q 1013 623 996 668 q 1029 511 1029 577 l 1029 414 q 1013 302 1029 348 q 965 233 996 256 q 891 210 935 210 q 817 233 848 210 q 769 302 785 256 q 752 414 752 348 l 752 511 z "},"Я":{"ha":946,"x_min":33,"x_max":844,"o":"m 477 479 q 385 510 420 479 q 350 599 350 541 q 385 688 350 658 q 477 719 420 719 l 566 719 l 566 479 l 477 479 m 560 277 l 560 0 l 844 0 l 844 926 l 425 926 q 222 881 302 926 q 103 761 142 836 q 64 599 64 686 q 103 444 64 515 q 221 333 142 374 l 33 0 l 343 0 l 491 277 q 491 277 491 277 q 491 277 491 277 l 560 277 z "},"Ҕ":{"ha":977,"x_min":102,"x_max":922,"o":"m 387 546 l 387 703 l 753 703 l 753 926 l 102 926 l 102 0 l 387 0 l 387 307 q 441 361 406 340 q 526 381 477 381 q 608 357 578 381 q 637 291 637 334 q 610 220 637 244 q 532 195 583 195 q 486 198 502 195 q 470 201 470 201 l 470 0 q 497 -5 470 0 q 574 -11 524 -11 q 762 30 684 -11 q 881 144 840 71 q 922 313 922 217 q 887 461 922 395 q 779 568 851 528 q 596 608 707 608 q 479 592 530 608 q 391 546 429 576 l 387 546 z "},"Ҧ":{"ha":1502,"x_min":102,"x_max":1448,"o":"m 912 546 l 912 926 l 102 926 l 102 0 l 387 0 l 387 700 l 627 700 l 627 0 l 912 0 l 912 307 q 967 361 931 340 q 1052 381 1002 381 q 1133 357 1104 381 q 1162 291 1162 334 q 1135 220 1162 244 q 1058 195 1108 195 q 1011 198 1027 195 q 996 201 996 201 l 996 0 q 1023 -5 996 0 q 1099 -11 1050 -11 q 1288 30 1210 -11 q 1407 144 1366 71 q 1448 313 1448 217 q 1412 461 1448 395 q 1304 568 1377 528 q 1122 608 1232 608 q 1005 592 1055 608 q 917 546 955 576 l 912 546 z "},"Є":{"ha":948,"x_min":64,"x_max":887,"o":"m 352 505 q 368 618 352 572 q 416 687 385 663 q 490 710 447 710 q 557 692 532 710 q 597 647 583 675 q 616 589 611 620 l 887 589 q 887 592 887 590 q 887 595 887 593 q 858 738 887 674 q 775 847 828 802 q 648 917 722 892 q 488 941 575 941 q 256 887 351 941 q 113 735 161 833 q 64 505 64 637 l 64 421 q 113 191 64 289 q 256 39 161 93 q 488 -16 351 -16 q 648 9 575 -16 q 775 79 722 33 q 858 188 828 124 q 887 330 887 251 q 887 337 887 333 q 887 344 887 340 l 616 344 q 598 282 612 311 q 558 234 585 252 q 490 215 532 215 q 416 238 447 215 q 368 307 385 262 q 352 419 352 353 l 352 505 m 326 364 l 614 364 l 614 563 l 326 563 l 326 364 z "},"Ӏ":{"ha":488,"x_min":102,"x_max":387,"o":"z "},"І":{"ha":488,"x_min":102,"x_max":387,"o":"m 387 0 l 387 926 l 102 926 l 102 0 l 387 0 z "},"Ї":{"ha":488,"x_min":-1,"x_max":490,"o":"m 387 0 l 387 926 l 102 926 l 102 0 l 387 0 m 391 981 q 464 1006 437 981 q 490 1074 490 1032 q 464 1141 490 1115 q 391 1166 437 1166 q 318 1141 344 1166 q 292 1074 292 1115 q 318 1006 292 1032 q 391 981 344 981 m 98 981 q 171 1006 144 981 q 197 1074 197 1032 q 171 1141 197 1115 q 98 1166 144 1166 q 25 1141 51 1166 q -1 1074 -1 1115 q 25 1006 -1 1032 q 98 981 51 981 z "},"Ҩ":{"ha":1305,"x_min":57,"x_max":1285,"o":"m 1191 459 l 1191 484 q 1146 658 1191 582 q 1020 778 1101 734 q 831 821 939 821 q 641 778 722 821 q 515 658 560 734 q 471 484 471 582 l 471 459 q 526 256 471 351 q 680 108 581 162 q 843 16 751 47 q 1037 -16 935 -16 q 1168 -2 1103 -16 q 1285 50 1232 13 l 1208 241 q 1132 207 1175 220 q 1042 193 1089 193 q 907 218 967 193 q 788 307 826 242 q 749 451 749 371 l 749 473 q 758 537 749 509 q 785 582 767 565 q 831 598 803 598 q 877 582 859 598 q 904 536 895 565 q 912 473 912 508 l 912 451 q 893 346 912 394 q 831 264 873 298 q 719 218 789 231 q 643 204 684 207 q 555 201 601 201 q 442 226 492 201 q 364 304 393 251 q 336 444 336 358 l 336 494 q 349 600 336 553 q 395 677 362 647 q 485 714 427 707 l 485 937 q 239 871 334 930 q 101 718 145 812 q 57 511 57 623 l 57 435 q 92 238 57 322 q 194 97 127 153 q 354 13 260 41 q 566 -15 448 -15 q 743 8 654 -15 q 897 83 831 31 q 1052 174 986 114 q 1155 308 1118 233 q 1191 459 1191 383 z "},"Ү":{"ha":898,"x_min":-4,"x_max":902,"o":"m 591 0 l 591 288 l 902 926 l 605 926 l 459 562 l 449 562 l 304 926 l -4 926 l 307 279 l 307 0 l 591 0 z "},"Ұ":{"ha":898,"x_min":-4,"x_max":902,"o":"m 808 220 l 808 397 l 90 397 l 90 220 l 808 220 m 591 0 l 591 288 l 902 926 l 605 926 l 459 562 l 449 562 l 304 926 l -4 926 l 307 279 l 307 0 l 591 0 z "},"Ҽ":{"ha":1189,"x_min":7,"x_max":1118,"o":"m 1118 319 l 844 319 q 832 280 842 299 q 807 246 823 261 q 767 222 791 231 q 713 213 743 213 q 634 234 667 213 q 586 295 602 255 q 569 395 569 336 l 569 402 l 1112 402 q 1115 441 1112 402 q 1118 543 1118 480 q 1074 747 1118 656 q 937 889 1029 837 q 705 941 846 941 q 513 906 593 941 q 381 810 433 871 q 305 673 330 750 q 281 511 281 595 l 281 406 q 329 190 281 285 q 473 40 378 94 q 709 -15 569 -15 q 890 14 814 -15 q 1015 90 966 42 q 1089 198 1064 138 q 1118 319 1114 258 m 713 713 q 794 696 764 713 q 838 652 825 680 q 851 595 851 625 l 851 591 l 573 591 l 573 595 q 589 652 573 625 q 637 696 606 680 q 713 713 668 713 m 385 401 l 385 591 l 286 591 q 233 613 250 591 q 216 663 216 634 q 220 701 216 684 q 230 728 225 718 q 234 738 234 738 l 29 738 q 23 725 29 738 q 12 688 18 713 q 7 626 7 663 q 78 465 7 528 q 283 401 150 401 l 385 401 z "},"Ҿ":{"ha":1189,"x_min":7,"x_max":1118,"o":"m 589 0 l 589 -194 l 840 -194 l 840 0 l 589 0 m 1118 319 l 844 319 q 832 280 842 299 q 807 246 823 261 q 767 222 791 231 q 713 213 743 213 q 634 234 667 213 q 586 295 602 255 q 569 395 569 336 l 569 402 l 1112 402 q 1115 441 1112 402 q 1118 543 1118 480 q 1074 747 1118 656 q 937 889 1029 837 q 705 941 846 941 q 513 906 593 941 q 381 810 433 871 q 305 673 330 750 q 281 511 281 595 l 281 406 q 329 190 281 285 q 473 40 378 94 q 709 -15 569 -15 q 890 14 814 -15 q 1015 90 966 42 q 1089 198 1064 138 q 1118 319 1114 258 m 713 713 q 794 696 764 713 q 838 652 825 680 q 851 595 851 625 l 851 591 l 573 591 l 573 595 q 589 652 573 625 q 637 696 606 680 q 713 713 668 713 m 385 401 l 385 591 l 286 591 q 233 613 250 591 q 216 663 216 634 q 220 701 216 684 q 230 728 225 718 q 234 738 234 738 l 29 738 q 23 725 29 738 q 12 688 18 713 q 7 626 7 663 q 78 465 7 528 q 283 401 150 401 l 385 401 z "},"Ӕ":{"ha":1375,"x_min":23,"x_max":1293,"o":"m 590 707 l 632 707 l 632 370 l 472 369 l 590 707 m 632 159 l 632 0 l 1293 0 l 1293 219 l 911 219 l 911 363 l 1268 363 l 1268 561 l 911 561 l 911 707 l 1293 707 l 1293 926 l 403 926 l 23 0 l 331 0 l 392 159 l 632 159 z "},"Ə":{"ha":979,"x_min":71,"x_max":908,"o":"m 476 212 q 395 229 425 212 q 351 273 364 246 q 338 330 338 300 l 338 335 l 616 335 l 616 331 q 600 273 616 300 q 552 229 583 246 q 476 212 522 212 m 71 606 l 345 606 q 356 646 347 627 q 382 680 366 665 q 422 704 398 695 q 476 713 446 713 q 554 692 522 713 q 603 631 587 671 q 620 531 620 590 l 620 524 l 77 524 q 74 485 77 524 q 71 383 71 446 q 115 179 71 269 q 252 37 160 90 q 484 -15 343 -15 q 676 20 596 -15 q 808 115 756 55 q 884 253 859 176 q 908 415 908 330 l 908 519 q 860 736 908 641 q 716 886 811 831 q 480 941 621 941 q 299 912 374 941 q 174 836 223 884 q 100 728 125 787 q 71 606 75 669 z "},"Ӛ":{"ha":979,"x_min":71,"x_max":908,"o":"m 476 212 q 395 229 425 212 q 351 273 364 246 q 338 330 338 300 l 338 335 l 616 335 l 616 331 q 600 273 616 300 q 552 229 583 246 q 476 212 522 212 m 71 606 l 345 606 q 356 646 347 627 q 382 680 366 665 q 422 704 398 695 q 476 713 446 713 q 554 692 522 713 q 603 631 587 671 q 620 531 620 590 l 620 524 l 77 524 q 74 485 77 524 q 71 383 71 446 q 115 179 71 269 q 252 37 160 90 q 484 -15 343 -15 q 676 20 596 -15 q 808 115 756 55 q 884 253 859 176 q 908 415 908 330 l 908 519 q 860 736 908 641 q 716 886 811 831 q 480 941 621 941 q 299 912 374 941 q 174 836 223 884 q 100 728 125 787 q 71 606 75 669 m 621 981 q 694 1006 668 981 q 720 1074 720 1032 q 694 1141 720 1115 q 621 1166 668 1166 q 548 1141 574 1166 q 522 1074 522 1115 q 548 1006 522 1032 q 621 981 574 981 m 328 981 q 401 1006 375 981 q 427 1074 427 1032 q 401 1141 427 1115 q 328 1166 375 1166 q 255 1141 281 1166 q 229 1074 229 1115 q 255 1006 229 1032 q 328 981 281 981 z "},"Ӡ":{"ha":888,"x_min":54,"x_max":833,"o":"m 833 286 q 755 475 833 404 q 549 560 676 547 l 549 566 l 779 755 l 779 926 l 99 926 l 99 710 l 447 710 l 447 705 l 279 563 l 279 389 l 404 389 q 516 361 477 389 q 555 290 555 334 q 542 239 555 260 q 503 205 528 217 q 440 194 477 194 q 371 209 400 194 q 326 253 341 224 q 310 319 310 281 l 54 319 q 102 144 54 219 q 238 26 151 68 q 441 -16 325 -16 q 650 20 562 -16 q 786 123 738 56 q 833 286 833 191 z "},"Ԑ":{"ha":884,"x_min":51,"x_max":830,"o":"m 554 375 l 554 576 l 444 576 q 373 597 400 576 q 346 650 346 618 q 375 713 346 689 q 451 736 404 736 q 509 721 484 736 q 549 679 534 706 q 563 614 563 651 l 823 614 q 773 790 819 717 q 643 902 726 863 q 444 941 559 941 q 251 908 335 941 q 121 818 168 876 q 74 685 74 761 q 97 595 74 636 q 162 528 121 555 q 259 494 204 502 l 259 480 q 152 447 199 475 q 78 374 104 419 q 51 274 51 329 q 99 120 51 185 q 236 20 147 55 q 446 -16 324 -16 q 647 26 561 -16 q 782 144 734 68 q 830 319 830 219 l 574 319 q 559 253 574 281 q 514 209 543 224 q 444 194 485 194 q 385 205 411 194 q 345 237 359 217 q 330 284 330 258 q 362 350 330 325 q 444 375 395 375 l 554 375 z "},"Ѵ":{"ha":1040,"x_min":20,"x_max":1053,"o":"m 666 0 l 841 612 q 857 653 848 638 q 876 677 865 668 q 924 693 895 693 q 952 689 936 693 q 983 679 968 686 l 1053 885 q 957 923 1013 909 q 849 937 901 937 q 756 925 795 937 q 684 888 716 913 q 609 801 637 854 q 561 647 580 748 l 495 292 l 482 292 l 353 926 l 20 926 l 292 0 l 666 0 z "},"Ԝ":{"ha":1312,"x_min":20,"x_max":1292,"o":"m 516 0 l 652 509 l 662 509 l 797 0 l 1065 0 l 1292 926 l 998 926 l 913 364 l 899 364 l 766 926 l 547 926 l 414 364 l 401 364 l 314 926 l 20 926 l 248 0 l 516 0 z "},"Ђ":{"ha":1139,"x_min":28,"x_max":1084,"o":"m 549 306 q 603 359 568 339 q 688 380 639 380 q 770 356 741 380 q 799 290 799 332 q 772 218 799 243 q 694 194 745 194 q 648 197 664 194 q 632 200 632 200 l 632 -1 q 659 -7 632 -1 q 736 -12 686 -12 q 924 29 846 -12 q 1043 143 1002 70 q 1084 311 1084 216 q 1049 460 1084 393 q 941 567 1013 527 q 758 607 869 607 q 642 591 692 607 q 553 545 591 574 l 549 545 l 549 698 l 784 698 l 784 926 l 28 926 l 28 698 l 264 698 l 264 0 l 549 0 l 549 306 z "},"Ѕ":{"ha":922,"x_min":62,"x_max":860,"o":"m 62 283 q 82 177 62 230 q 147 80 102 124 q 269 11 193 37 q 459 -16 345 -16 q 684 25 595 -16 q 816 136 772 65 q 860 296 860 206 q 821 449 860 392 q 723 534 783 506 q 599 572 663 563 l 480 591 q 392 616 424 600 q 359 663 359 633 q 384 714 359 692 q 463 735 408 735 q 530 721 504 735 q 570 687 557 707 q 583 648 583 667 l 841 648 q 801 787 841 720 q 676 898 760 854 q 462 941 593 941 q 260 905 347 941 q 125 803 174 870 q 77 640 77 735 q 111 498 77 554 q 205 410 145 441 q 340 364 264 378 l 452 345 q 548 318 515 334 q 582 266 582 302 q 571 230 582 247 q 534 203 559 214 q 465 193 509 193 q 407 201 432 193 q 365 222 382 209 q 339 251 348 235 q 330 283 330 267 l 62 283 z "},"Ј":{"ha":873,"x_min":42,"x_max":781,"o":"m 42 345 q 62 214 42 278 q 126 98 83 150 q 241 15 170 46 q 411 -16 311 -16 q 682 72 583 -16 q 781 336 781 159 l 781 926 l 496 926 l 496 341 q 476 262 496 290 q 408 233 457 233 q 357 247 378 233 q 325 285 336 260 q 314 345 314 310 l 42 345 z "},"a":{"ha":817,"x_min":50,"x_max":743,"o":"m 293 -10 q 384 4 347 -10 q 442 41 420 19 q 473 85 464 63 l 486 85 l 486 0 l 743 0 l 743 477 q 697 633 743 576 q 576 716 652 691 q 407 741 500 741 q 244 718 309 741 q 144 656 180 694 q 93 573 108 618 q 76 486 77 528 l 332 486 q 341 518 332 504 q 366 541 350 533 q 404 549 382 549 q 454 533 435 549 q 473 488 473 517 l 473 435 l 316 435 q 119 374 187 435 q 50 212 50 314 q 118 47 50 105 q 293 -10 186 -10 m 393 172 q 342 188 365 172 q 319 236 319 205 q 342 283 319 266 q 402 300 365 300 l 473 300 l 473 235 q 461 201 473 216 q 431 179 450 187 q 393 172 413 172 z "},"à":{"ha":817,"x_min":50,"x_max":743,"o":"m 293 -10 q 384 4 347 -10 q 442 41 420 19 q 473 85 464 63 l 486 85 l 486 0 l 743 0 l 743 477 q 697 633 743 576 q 576 716 652 691 q 407 741 500 741 q 244 718 309 741 q 144 656 180 694 q 93 573 108 618 q 76 486 77 528 l 332 486 q 341 518 332 504 q 366 541 350 533 q 404 549 382 549 q 454 533 435 549 q 473 488 473 517 l 473 435 l 316 435 q 119 374 187 435 q 50 212 50 314 q 118 47 50 105 q 293 -10 186 -10 m 393 172 q 342 188 365 172 q 319 236 319 205 q 342 283 319 266 q 402 300 365 300 l 473 300 l 473 235 q 461 201 473 216 q 431 179 450 187 q 393 172 413 172 z "},"á":{"ha":817,"x_min":50,"x_max":743,"o":"m 293 -10 q 384 4 347 -10 q 442 41 420 19 q 473 85 464 63 l 486 85 l 486 0 l 743 0 l 743 477 q 697 633 743 576 q 576 716 652 691 q 407 741 500 741 q 244 718 309 741 q 144 656 180 694 q 93 573 108 618 q 76 486 77 528 l 332 486 q 341 518 332 504 q 366 541 350 533 q 404 549 382 549 q 454 533 435 549 q 473 488 473 517 l 473 435 l 316 435 q 119 374 187 435 q 50 212 50 314 q 118 47 50 105 q 293 -10 186 -10 m 393 172 q 342 188 365 172 q 319 236 319 205 q 342 283 319 266 q 402 300 365 300 l 473 300 l 473 235 q 461 201 473 216 q 431 179 450 187 q 393 172 413 172 z "},"ä":{"ha":817,"x_min":50,"x_max":743,"o":"m 293 -10 q 384 4 347 -10 q 442 41 420 19 q 473 85 464 63 l 486 85 l 486 0 l 743 0 l 743 477 q 697 633 743 576 q 576 716 652 691 q 407 741 500 741 q 244 718 309 741 q 144 656 180 694 q 93 573 108 618 q 76 486 77 528 l 332 486 q 341 518 332 504 q 366 541 350 533 q 404 549 382 549 q 454 533 435 549 q 473 488 473 517 l 473 435 l 316 435 q 119 374 187 435 q 50 212 50 314 q 118 47 50 105 q 293 -10 186 -10 m 393 172 q 342 188 365 172 q 319 236 319 205 q 342 283 319 266 q 402 300 365 300 l 473 300 l 473 235 q 461 201 473 216 q 431 179 450 187 q 393 172 413 172 z "},"ǟ":{"ha":817,"x_min":50,"x_max":743,"o":"m 293 -10 q 384 4 347 -10 q 442 41 420 19 q 473 85 464 63 l 486 85 l 486 0 l 743 0 l 743 477 q 697 633 743 576 q 576 716 652 691 q 407 741 500 741 q 244 718 309 741 q 144 656 180 694 q 93 573 108 618 q 76 486 77 528 l 332 486 q 341 518 332 504 q 366 541 350 533 q 404 549 382 549 q 454 533 435 549 q 473 488 473 517 l 473 435 l 316 435 q 119 374 187 435 q 50 212 50 314 q 118 47 50 105 q 293 -10 186 -10 m 393 172 q 342 188 365 172 q 319 236 319 205 q 342 283 319 266 q 402 300 365 300 l 473 300 l 473 235 q 461 201 473 216 q 431 179 450 187 q 393 172 413 172 z "},"å":{"ha":817,"x_min":50,"x_max":743,"o":"m 293 -10 q 384 4 347 -10 q 442 41 420 19 q 473 85 464 63 l 486 85 l 486 0 l 743 0 l 743 477 q 697 633 743 576 q 576 716 652 691 q 407 741 500 741 q 244 718 309 741 q 144 656 180 694 q 93 573 108 618 q 76 486 77 528 l 332 486 q 341 518 332 504 q 366 541 350 533 q 404 549 382 549 q 454 533 435 549 q 473 488 473 517 l 473 435 l 316 435 q 119 374 187 435 q 50 212 50 314 q 118 47 50 105 q 293 -10 186 -10 m 393 172 q 342 188 365 172 q 319 236 319 205 q 342 283 319 266 q 402 300 365 300 l 473 300 l 473 235 q 461 201 473 216 q 431 179 450 187 q 393 172 413 172 z "},"ǻ":{"ha":817,"x_min":50,"x_max":743,"o":"m 293 -10 q 384 4 347 -10 q 442 41 420 19 q 473 85 464 63 l 486 85 l 486 0 l 743 0 l 743 477 q 697 633 743 576 q 576 716 652 691 q 407 741 500 741 q 244 718 309 741 q 144 656 180 694 q 93 573 108 618 q 76 486 77 528 l 332 486 q 341 518 332 504 q 366 541 350 533 q 404 549 382 549 q 454 533 435 549 q 473 488 473 517 l 473 435 l 316 435 q 119 374 187 435 q 50 212 50 314 q 118 47 50 105 q 293 -10 186 -10 m 393 172 q 342 188 365 172 q 319 236 319 205 q 342 283 319 266 q 402 300 365 300 l 473 300 l 473 235 q 461 201 473 216 q 431 179 450 187 q 393 172 413 172 m 532 1192 l 652 1316 l 420 1316 l 332 1192 l 532 1192 m 405 816 q 527 861 478 816 q 575 980 575 906 q 527 1098 575 1053 q 405 1142 479 1142 q 282 1098 331 1142 q 234 980 234 1053 q 283 861 234 906 q 405 816 332 816 m 349 979 q 364 1019 349 1003 q 404 1034 380 1034 q 445 1019 429 1034 q 460 979 460 1003 q 445 939 460 954 q 404 924 429 924 q 364 939 380 924 q 349 979 349 954 z "},"ã":{"ha":817,"x_min":50,"x_max":743,"o":"m 293 -10 q 384 4 347 -10 q 442 41 420 19 q 473 85 464 63 l 486 85 l 486 0 l 743 0 l 743 477 q 697 633 743 576 q 576 716 652 691 q 407 741 500 741 q 244 718 309 741 q 144 656 180 694 q 93 573 108 618 q 76 486 77 528 l 332 486 q 341 518 332 504 q 366 541 350 533 q 404 549 382 549 q 454 533 435 549 q 473 488 473 517 l 473 435 l 316 435 q 119 374 187 435 q 50 212 50 314 q 118 47 50 105 q 293 -10 186 -10 m 393 172 q 342 188 365 172 q 319 236 319 205 q 342 283 319 266 q 402 300 365 300 l 473 300 l 473 235 q 461 201 473 216 q 431 179 450 187 q 393 172 413 172 z "},"ằ":{"ha":817,"x_min":50,"x_max":743,"o":"m 293 -10 q 384 4 347 -10 q 442 41 420 19 q 473 85 464 63 l 486 85 l 486 0 l 743 0 l 743 477 q 697 633 743 576 q 576 716 652 691 q 407 741 500 741 q 244 718 309 741 q 144 656 180 694 q 93 573 108 618 q 76 486 77 528 l 332 486 q 341 518 332 504 q 366 541 350 533 q 404 549 382 549 q 454 533 435 549 q 473 488 473 517 l 473 435 l 316 435 q 119 374 187 435 q 50 212 50 314 q 118 47 50 105 q 293 -10 186 -10 m 393 172 q 342 188 365 172 q 319 236 319 205 q 342 283 319 266 q 402 300 365 300 l 473 300 l 473 235 q 461 201 473 216 q 431 179 450 187 q 393 172 413 172 m 325 1065 l 507 1065 l 349 1273 l 131 1273 l 325 1065 m 169 1027 q 199 928 169 973 q 282 855 229 882 q 409 827 336 827 q 535 855 481 827 q 617 928 588 882 q 646 1027 646 973 l 508 1027 q 484 975 508 1004 q 409 947 460 947 q 334 975 357 947 q 310 1027 310 1004 l 169 1027 z "},"ǡ":{"ha":817,"x_min":50,"x_max":743,"o":"m 293 -10 q 384 4 347 -10 q 442 41 420 19 q 473 85 464 63 l 486 85 l 486 0 l 743 0 l 743 477 q 697 633 743 576 q 576 716 652 691 q 407 741 500 741 q 244 718 309 741 q 144 656 180 694 q 93 573 108 618 q 76 486 77 528 l 332 486 q 341 518 332 504 q 366 541 350 533 q 404 549 382 549 q 454 533 435 549 q 473 488 473 517 l 473 435 l 316 435 q 119 374 187 435 q 50 212 50 314 q 118 47 50 105 q 293 -10 186 -10 m 393 172 q 342 188 365 172 q 319 236 319 205 q 342 283 319 266 q 402 300 365 300 l 473 300 l 473 235 q 461 201 473 216 q 431 179 450 187 q 393 172 413 172 z "},"ḁ":{"ha":817,"x_min":50,"x_max":743,"o":"m 293 -10 q 384 4 347 -10 q 442 41 420 19 q 473 85 464 63 l 486 85 l 486 0 l 743 0 l 743 477 q 697 633 743 576 q 576 716 652 691 q 407 741 500 741 q 244 718 309 741 q 144 656 180 694 q 93 573 108 618 q 76 486 77 528 l 332 486 q 341 518 332 504 q 366 541 350 533 q 404 549 382 549 q 454 533 435 549 q 473 488 473 517 l 473 435 l 316 435 q 119 374 187 435 q 50 212 50 314 q 118 47 50 105 q 293 -10 186 -10 m 393 172 q 342 188 365 172 q 319 236 319 205 q 342 283 319 266 q 402 300 365 300 l 473 300 l 473 235 q 461 201 473 216 q 431 179 450 187 q 393 172 413 172 z "},"â":{"ha":817,"x_min":50,"x_max":743,"o":"m 293 -10 q 384 4 347 -10 q 442 41 420 19 q 473 85 464 63 l 486 85 l 486 0 l 743 0 l 743 477 q 697 633 743 576 q 576 716 652 691 q 407 741 500 741 q 244 718 309 741 q 144 656 180 694 q 93 573 108 618 q 76 486 77 528 l 332 486 q 341 518 332 504 q 366 541 350 533 q 404 549 382 549 q 454 533 435 549 q 473 488 473 517 l 473 435 l 316 435 q 119 374 187 435 q 50 212 50 314 q 118 47 50 105 q 293 -10 186 -10 m 393 172 q 342 188 365 172 q 319 236 319 205 q 342 283 319 266 q 402 300 365 300 l 473 300 l 473 235 q 461 201 473 216 q 431 179 450 187 q 393 172 413 172 z "}}}
